<?xml version="1.0" encoding="iso-8859-1"?>
<!-- Generator: Adobe Illustrator 22.1.0, SVG Export Plug-In . SVG Version: 6.00 Build 0)  -->
<svg xmlns="http://www.w3.org/2000/svg" xmlns:xlink="http://www.w3.org/1999/xlink" version="1.1" id="Layer_3" x="0px" y="0px" viewBox="0 0 64 64" style="enable-background:new 0 0 64 64;" xml:space="preserve" width="512" height="512">
<g>
	<g>
		<path style="fill:#9E9C3D;" d="M13,51l-0.6,0.8C10.842,53.877,10,56.404,10,59v0c0,1.657,2.239,3,5,3s5-1.343,5-3l-0.502-0.335    C17.937,57.625,17,55.873,17,53.998v-0.263"/>
	</g>
	<g>
		<path style="fill:#D1D8DB;" d="M13,56.111V56h2v0.111c0,1.081,0.255,2.164,0.739,3.131l1.253,2.507C16.382,61.909,15.709,62,15,62    c-0.042,0-0.08-0.007-0.122-0.007l-0.928-1.856C13.329,58.894,13,57.501,13,56.111z"/>
	</g>
	<g>
		<path style="fill:#9E9C3D;" d="M51,51l0.6,0.8c1.558,2.077,2.4,4.604,2.4,7.2v0c0,1.657-2.239,3-5,3s-5-1.343-5-3l0.502-0.335    C46.063,57.625,47,55.873,47,53.998v-0.263"/>
	</g>
	<g>
		<path style="fill:#67AC5B;" d="M42,14v-0.31c0-4.198,2.028-8.138,5.444-10.579L49,2l-4.27,0.474    c-3.018,0.335-5.763,1.903-7.585,4.333L37,7l-5-5l-5,5l-0.145-0.193c-1.822-2.429-4.567-3.997-7.585-4.333L15,2l1.556,1.111    C19.972,5.552,22,9.492,22,13.69V14"/>
	</g>
	<g>
		<path style="fill:#74564A;" d="M55,41c0,12.703-10.297,15-23,15S9,53.703,9,41s10.297-31,23-31S55,28.297,55,41z"/>
	</g>
	<g>
		<path style="fill:#D1D8DB;" d="M27,41c0-2.761,2.239-5,5-5s5,2.239,5,5s-2.239,3-5,3S27,43.761,27,41z"/>
	</g>
	<g>
		<path style="fill:#FFFFFF;" d="M25.209,23.122C27.943,23.681,30,26.101,30,29c0,3.314-2.686,6-6,6    c-2.875,0-5.278-2.022-5.864-4.722"/>
	</g>
	<g>
		<path style="fill:#FFFFFF;" d="M38.791,23.122C36.057,23.681,34,26.101,34,29c0,3.314,2.686,6,6,6    c2.875,0,5.278-2.022,5.864-4.722"/>
	</g>
	<g>
		<polyline style="fill:#FFFFFF;" points="46,50 42,44 40,52   "/>
	</g>
	<g>
		<polyline style="fill:#FFFFFF;" points="18,50 22,44 24,52   "/>
	</g>
	<g>
		<circle style="fill:#39474E;" cx="26" cy="31" r="3"/>
	</g>
	<g>
		<circle style="fill:#39474E;" cx="38" cy="31" r="3"/>
	</g>
	<g>
		<path style="fill:#D1D8DB;" d="M51,56.111V56h-2v0.111c0,1.081-0.255,2.164-0.739,3.131l-1.253,2.507    C47.618,61.909,48.291,62,49,62c0.042,0,0.08-0.007,0.122-0.007l0.928-1.856C50.671,58.894,51,57.501,51,56.111z"/>
	</g>
	<g>
		<g>
			<path style="fill:#D1D8DB;" d="M32,21c-0.297,0-0.578-0.132-0.768-0.359l-5-6l1.536-1.281L32,18.438l4.232-5.078l1.536,1.281     l-5,6C32.578,20.868,32.297,21,32,21z"/>
		</g>
	</g>
	<g>
		<g>
			<path style="fill:#D1D8DB;" d="M17.986,35.164l-1.973-0.328l0.303-1.815c0.491-2.945,1.866-5.617,3.977-7.728     c2.111-2.111,4.784-3.486,7.728-3.977l1.814-0.303l0.329,1.973l-1.815,0.303c-2.531,0.422-4.828,1.604-6.643,3.418     c-1.814,1.814-2.996,4.111-3.418,6.642L17.986,35.164z"/>
		</g>
	</g>
	<g>
		<g>
			<path style="fill:#D1D8DB;" d="M46.014,35.164l-0.303-1.815c-0.422-2.53-1.604-4.827-3.418-6.642     c-1.815-1.814-4.112-2.996-6.642-3.418l-1.815-0.303l0.329-1.973l1.815,0.303c2.944,0.49,5.616,1.865,7.728,3.977     c2.111,2.11,3.486,4.782,3.977,7.728l0.303,1.815L46.014,35.164z"/>
		</g>
	</g>
	<g>
		<g>
			<path style="fill:#D1D8DB;" d="M33.405,53h-2.811c-5.176,0-10.212-1.033-14.969-3.072l0.785-1.84l0.02,0.009     C20.92,50.021,25.691,51,30.595,51h2.811c4.904,0,9.675-0.979,14.181-2.91l0.824,1.822C43.618,51.967,38.581,53,33.405,53z"/>
		</g>
	</g>
</g>
</svg>
