<?xml version="1.0" encoding="iso-8859-1"?>
<!-- Generator: Adobe Illustrator 22.1.0, SVG Export Plug-In . SVG Version: 6.00 Build 0)  -->
<svg xmlns="http://www.w3.org/2000/svg" xmlns:xlink="http://www.w3.org/1999/xlink" version="1.1" id="Layer_3" x="0px" y="0px" viewBox="0 0 64 64" style="enable-background:new 0 0 64 64;" xml:space="preserve" width="512" height="512">
<g>
	<g>
		<path style="fill:#4496EC;" d="M26,13l4.586-10.09C30.838,2.356,31.391,2,32,2h0c0.609,0,1.162,0.356,1.414,0.91L38,13"/>
	</g>
	<g>
		<path style="fill:#97C05C;" d="M26.085,54h11.829c-0.623,1.604-1.505,3.108-2.623,4.45L34,60l0.401,0.115    C38.779,61.365,43.31,62,47.863,62H48l0.151-0.565c2.373-8.901,3.659-18.053,3.83-27.258C55.523,32.638,58,29.108,58,25    c0-5.523-4.477-10-10-10c-1.486,0-2.896,0.324-4.163,0.905C40.517,13.445,36.414,12,32,12h0c-4.414,0-8.517,1.445-11.837,3.905    C18.896,15.324,17.486,15,16,15c-5.523,0-10,4.477-10,10c0,4.108,2.477,7.638,6.02,9.176c0.171,9.205,1.456,18.358,3.83,27.258    L16,62h0.137c4.553,0,9.084-0.635,13.461-1.885L30,60l-1.292-1.55C27.59,57.108,26.708,55.604,26.085,54z"/>
	</g>
	<g>
		<path style="fill:#FAE0B8;" d="M48,62l0.151-0.565c0.223-0.838,0.428-1.68,0.632-2.522L44,57l-7-1l-0.041,0.005    c-0.48,0.859-1.031,1.681-1.668,2.445L34,60l0.401,0.115C38.779,61.365,43.31,62,47.863,62H48z"/>
	</g>
	<g>
		<path style="fill:#FAE0B8;" d="M30,60l-1.292-1.55c-0.638-0.766-1.19-1.59-1.67-2.45H27l-7,1l-4.782,1.913    c0.204,0.842,0.408,1.684,0.632,2.522L16,62h0.137c4.553,0,9.084-0.635,13.461-1.885L30,60z"/>
	</g>
	<g>
		<polyline style="fill:#FFFFFF;" points="21,39 22,45 27,45 26,39   "/>
	</g>
	<g>
		<polyline style="fill:#FFFFFF;" points="43,39 42,45 37,45 38,39   "/>
	</g>
	<g>
		<circle style="fill:#FFFFFF;" cx="16" cy="25" r="10"/>
	</g>
	<g>
		<circle style="fill:#FFFFFF;" cx="48" cy="25" r="10"/>
	</g>
	<g>
		<path style="fill:#FAE0B8;" d="M24.651,20c-1.73-2.986-4.952-5-8.651-5c-5.523,0-10,4.477-10,10c0,0.326,0.018,0.648,0.049,0.966    C11.233,22.095,17.529,20,24,20H24.651z"/>
	</g>
	<g>
		<path style="fill:#FAE0B8;" d="M57.951,25.966C57.982,25.648,58,25.326,58,25c0-5.523-4.477-10-10-10    c-3.699,0-6.921,2.014-8.651,5H40C46.471,20,52.767,22.095,57.951,25.966z"/>
	</g>
	<g>
		<circle style="fill:#39474E;" cx="17" cy="28" r="3"/>
	</g>
	<g>
		<circle style="fill:#39474E;" cx="47" cy="28" r="3"/>
	</g>
	<g>
		<path style="fill:#D1D8DB;" d="M23.2,60.6C21.781,58.709,21,56.365,21,54h-2c0,2.754,0.901,5.481,2.531,7.698    c0.757-0.084,1.51-0.188,2.262-0.307L23.2,60.6z"/>
	</g>
	<g>
		<path style="fill:#D1D8DB;" d="M40.8,60.601l-0.592,0.79c0.752,0.119,1.506,0.224,2.263,0.307C44.1,59.481,45,56.753,45,54h-2    C43,56.365,42.219,58.709,40.8,60.601z"/>
	</g>
	<g>
		<g>
			<rect x="18" y="38" style="fill:#D1D8DB;" width="28" height="2"/>
		</g>
	</g>
</g>
</svg>
