<?xml version="1.0" encoding="iso-8859-1"?>
<!-- Generator: Adobe Illustrator 22.1.0, SVG Export Plug-In . SVG Version: 6.00 Build 0)  -->
<svg xmlns="http://www.w3.org/2000/svg" xmlns:xlink="http://www.w3.org/1999/xlink" version="1.1" id="Layer_3" x="0px" y="0px" viewBox="0 0 64 64" style="enable-background:new 0 0 64 64;" xml:space="preserve" width="512" height="512">
<g>
	<g>
		<polyline style="fill:#B63830;" points="14.621,19.725 7.624,11.561 11,10 20,17   "/>
	</g>
	<g>
		<polyline style="fill:#B63830;" points="49.547,19.528 56.288,11.663 53,10 44,17   "/>
	</g>
	<g>
		<polyline style="fill:#B63830;" points="19,54 18,46 22.247,39.73 26,41 22,47 23.051,55.409   "/>
	</g>
	<g>
		<polyline style="fill:#B63830;" points="45,54 46,46 41.753,39.73 38,41 42,47 40.949,55.409   "/>
	</g>
	<g>
		<path style="fill:#F29C37;" d="M52,25c0,8.837-8.954,17-20,17s-20-8.163-20-17s8.954-9,20-9S52,16.163,52,25z"/>
	</g>
	<g>
		<circle style="fill:#FFFFFF;" cx="32" cy="25" r="6"/>
	</g>
	<g>
		<circle style="fill:#39474E;" cx="32" cy="25" r="2"/>
	</g>
	<g>
		<path style="fill:#B63830;" d="M14,22c-0.574,0-1.125,0.098-1.638,0.276C12.132,23.08,12,23.976,12,25    c0,2.44,0.703,4.82,1.923,6.999C13.949,32,13.974,32,14,32c2.761,0,5-2.239,5-5S16.761,22,14,22z"/>
	</g>
	<g>
		<path style="fill:#B63830;" d="M21,34c-1.633,0-2.96,1.305-2.998,2.928c1.266,1.08,2.696,2.023,4.255,2.796    C23.286,39.248,24,38.208,24,37C24,35.343,22.657,34,21,34z"/>
	</g>
	<g>
		<path style="fill:#B63830;" d="M51.638,22.276C51.125,22.098,50.574,22,50,22c-2.761,0-5,2.239-5,5s2.239,5,5,5    c0.026,0,0.051,0,0.077-0.001C51.297,29.82,52,27.44,52,25C52,23.976,51.868,23.08,51.638,22.276z"/>
	</g>
	<g>
		<path style="fill:#B63830;" d="M43,34c-1.657,0-3,1.343-3,3c0,1.208,0.714,2.249,1.743,2.724c1.557-0.772,2.985-1.714,4.25-2.792    C45.956,35.307,44.634,34,43,34z"/>
	</g>
	<g>
		<circle style="fill:#D73964;" cx="7" cy="7" r="5"/>
	</g>
	<g>
		<circle style="fill:#D73964;" cx="57" cy="7" r="5"/>
	</g>
	<g>
		<path style="fill:#D73964;" d="M25,59c0,2.485-2.686,3-6,3s-6-0.515-6-3s2.686-5,6-5S25,56.515,25,59z"/>
	</g>
	<g>
		<path style="fill:#D73964;" d="M39,59c0,2.485,2.686,3,6,3s6-0.515,6-3s-2.686-5-6-5S39,56.515,39,59z"/>
	</g>
	<g>
		<g>
			<rect x="26" y="35" style="fill:#D73964;" width="12" height="2"/>
		</g>
	</g>
</g>
</svg>
