<?xml version="1.0" encoding="iso-8859-1"?>
<!-- Generator: Adobe Illustrator 22.1.0, SVG Export Plug-In . SVG Version: 6.00 Build 0)  -->
<svg xmlns="http://www.w3.org/2000/svg" xmlns:xlink="http://www.w3.org/1999/xlink" version="1.1" id="Layer_3" x="0px" y="0px" viewBox="0 0 64 64" style="enable-background:new 0 0 64 64;" xml:space="preserve" width="512" height="512">
<g>
	<g>
		<polyline style="fill:#657B88;" points="21,39 6,44 10,52 13,46 21,44   "/>
	</g>
	<g>
		<polyline style="fill:#657B88;" points="43,39 58,44 54,52 51,46 43,44   "/>
	</g>
	<g>
		<polyline style="fill:#457B3A;" points="21,36 21,62 28,62 27,58 37,58 36,62 43,62 43,36   "/>
	</g>
	<g>
		<rect x="25" y="40" style="fill:#D1D8DB;" width="14" height="4"/>
	</g>
	<g>
		<path style="fill:#67AC5B;" d="M48,36H16c-2.209,0-4-1.791-4-4V6c0-2.209,1.791-4,4-4h32c2.209,0,4,1.791,4,4v26    C52,34.209,50.209,36,48,36z"/>
	</g>
	<g>
		<circle style="fill:#FFFFFF;" cx="23" cy="19" r="6"/>
	</g>
	<g>
		<circle style="fill:#FFFFFF;" cx="41" cy="19" r="6"/>
	</g>
	<g>
		<polyline style="fill:#FFFFFF;" points="35,32 35,28 39,28 39,32   "/>
	</g>
	<g>
		<circle style="fill:#39474E;" cx="23" cy="19" r="2"/>
	</g>
	<g>
		<circle style="fill:#39474E;" cx="41" cy="19" r="2"/>
	</g>
	<g>
		<path style="fill:#74564A;" d="M24,2L24,2c-3.226,1.936-5.654,4.962-6.844,8.532L17,11l10-6v0c0,3.792,1.724,7.379,4.685,9.748    L32,15l2-9l0,0c3.237,2.589,7.258,4,11.403,4H47l-7-8"/>
	</g>
	<g>
		<g>
			<rect x="22" y="31" style="fill:#457B3A;" width="20" height="2"/>
		</g>
	</g>
</g>
</svg>
