<?xml version="1.0" encoding="iso-8859-1"?>
<!-- Generator: Adobe Illustrator 22.1.0, SVG Export Plug-In . SVG Version: 6.00 Build 0)  -->
<svg xmlns="http://www.w3.org/2000/svg" xmlns:xlink="http://www.w3.org/1999/xlink" version="1.1" id="Layer_3" x="0px" y="0px" viewBox="0 0 64 64" style="enable-background:new 0 0 64 64;" xml:space="preserve" width="512" height="512">
<g>
	<g>
		<path style="fill:#FAE0B8;" d="M12,27.906l-8.292,4.146C2.661,32.575,2,33.645,2,34.816v1.09v0c0,2.297,2.417,3.791,4.472,2.764    L12,35.906"/>
	</g>
	<g>
		<path style="fill:#FAE0B8;" d="M52,27.906l8.292,4.146C61.339,32.575,62,33.645,62,34.816v1.09v0c0,2.297-2.417,3.791-4.472,2.764    L52,35.906"/>
	</g>
	<g>
		<path style="fill:#97C05C;" d="M52,11v30.802C52,48.584,51.33,55.35,50,62l0,0h-8l1-4l-11,1l-11-1l1,4h-8l0,0    c-1.33-6.65-2-13.416-2-20.198V10"/>
	</g>
	<g>
		<path style="fill:#FAE0B8;" d="M46,51c0,3.314-6.268,4-14,4s-14-0.686-14-4s6.268-8,14-8S46,47.686,46,51z"/>
	</g>
	<g>
		<polyline style="fill:#FFFFFF;" points="18,36 16,41 20,43 22,38   "/>
	</g>
	<g>
		<polyline style="fill:#FFFFFF;" points="46,36 48,41 44,43 42,38   "/>
	</g>
	<g>
		<circle style="fill:#FFFFFF;" cx="21" cy="27" r="5"/>
	</g>
	<g>
		<circle style="fill:#FFFFFF;" cx="43" cy="27" r="5"/>
	</g>
	<g>
		<circle style="fill:#39474E;" cx="23" cy="27" r="2"/>
	</g>
	<g>
		<circle style="fill:#39474E;" cx="45" cy="27" r="2"/>
	</g>
	<g>
		<path style="fill:#F8D859;" d="M43,18c-3.938,0-7.116-3.251-6.997-7.215C36.118,6.954,39.461,4,43.293,4h0    c6.05,0,11.684,3.076,14.955,8.165L62,18H43z"/>
	</g>
	<g>
		<path style="fill:#F6C244;" d="M28,18c4.595,0,8.284-3.873,7.983-8.533C35.707,5.215,31.988,2,27.727,2l-0.265,0    c-3.595,0-7.083,0.926-10.164,2.687l0,0C15.792,5.547,14.088,6,12.353,6h0c-1.547,0-3.074-0.36-4.458-1.052L2,2v0    c0,8.837,7.163,16,16,16H28z"/>
	</g>
	<g>
		<g>
			<path style="fill:#D1DA59;" d="M34.789,40h-5.578c-4.916,0-9.676-1.441-13.766-4.168l1.109-1.664     C20.314,36.675,24.691,38,29.211,38h5.578c4.52,0,8.896-1.325,12.656-3.832l1.109,1.664C44.465,38.559,39.705,40,34.789,40z"/>
		</g>
	</g>
	<g>
		<g>
			<rect x="31" y="50" style="fill:#D1DA59;" width="2" height="2"/>
		</g>
	</g>
</g>
</svg>
