<?xml version="1.0" encoding="iso-8859-1"?>
<!-- Generator: Adobe Illustrator 22.1.0, SVG Export Plug-In . SVG Version: 6.00 Build 0)  -->
<svg xmlns="http://www.w3.org/2000/svg" xmlns:xlink="http://www.w3.org/1999/xlink" version="1.1" id="Layer_3" x="0px" y="0px" viewBox="0 0 64 64" style="enable-background:new 0 0 64 64;" xml:space="preserve" width="512" height="512">
<g>
	<g>
		<path style="fill:#D73964;" d="M14,15c-3.314,0-6,2.686-6,6c-3.314,0-6-2.686-6-6s2.686-6,6-6h6"/>
	</g>
	<g>
		<path style="fill:#D73964;" d="M50,15c3.314,0,6,2.686,6,6c3.314,0,6-2.686,6-6s-2.686-6-6-6h-6"/>
	</g>
	<g>
		<path style="fill:#F6C244;" d="M50,60V2H14v58c0,1.105,0.895,2,2,2h6c1.105,0,2-0.895,2-2v-4h16v4c0,1.105,0.895,2,2,2h6    C49.105,62,50,61.105,50,60z"/>
	</g>
	<g>
		<path style="fill:#39474E;" d="M32,52L32,52c-6.075,0-11-4.925-11-11V28h22v13C43,47.075,38.075,52,32,52z"/>
	</g>
	<g>
		<polyline style="fill:#FFFFFF;" points="25,28 25,37 31,37 30,28   "/>
	</g>
	<g>
		<circle style="fill:#FFFFFF;" cx="24" cy="18" r="6"/>
	</g>
	<g>
		<circle style="fill:#FFFFFF;" cx="40" cy="18" r="6"/>
	</g>
	<g>
		<polyline style="fill:#FFFFFF;" points="30,52 29,46 34,46 34,52   "/>
	</g>
	<g>
		<circle style="fill:#39474E;" cx="22" cy="16" r="3"/>
	</g>
	<g>
		<circle style="fill:#39474E;" cx="38" cy="16" r="3"/>
	</g>
	<g>
		<path style="fill:#D73964;" d="M28,2c-1.657,0-3,1.343-3,3s1.343,3,3,3c0.395,0,0.77-0.081,1.116-0.22    C29.461,9.056,30.615,10,32,10s2.539-0.944,2.884-2.22C35.23,7.919,35.605,8,36,8c1.657,0,3-1.343,3-3s-1.343-3-3-3"/>
	</g>
</g>
</svg>
