<?xml version="1.0" encoding="iso-8859-1"?>
<!-- Generator: Adobe Illustrator 22.1.0, SVG Export Plug-In . SVG Version: 6.00 Build 0)  -->
<svg xmlns="http://www.w3.org/2000/svg" xmlns:xlink="http://www.w3.org/1999/xlink" version="1.1" id="Layer_3" x="0px" y="0px" viewBox="0 0 64 64" style="enable-background:new 0 0 64 64;" xml:space="preserve" width="512" height="512">
<g>
	<g>
		<path style="fill:#74564A;" d="M11,33l-7.576,6.734C2.518,40.539,2,41.693,2,42.905v0.852C2,46.101,3.899,48,6.243,48h0    c1.125,0,2.204-0.447,3-1.243l1.991-1.998"/>
	</g>
	<g>
		<path style="fill:#74564A;" d="M53,33l7.576,6.734C61.482,40.539,62,41.693,62,42.905v0.852C62,46.101,60.101,48,57.757,48h0    c-1.125,0-2.204-0.447-3-1.243l-1.992-1.989"/>
	</g>
	<g>
		<path style="fill:#FAE0B8;" d="M10,46l-5.892-6.874l-0.684,0.608C2.518,40.539,2,41.693,2,42.905v0.852C2,46.1,3.899,48,6.243,48    c1.125,0,2.204-0.447,3-1.243L10,46z"/>
	</g>
	<g>
		<path style="fill:#FAE0B8;" d="M59.892,39.126L54,46l0.757,0.757c0.796,0.796,1.875,1.243,3,1.243C60.101,48,62,46.1,62,43.757    v-0.852c0-1.212-0.518-2.366-1.424-3.171L59.892,39.126z"/>
	</g>
	<g>
		<path style="fill:#E25341;" d="M36,56l-1,6h17l2-45c0-2.761-2.239-5-5-5s-5,2.239-5,5V7c0-2.761-2.239-5-5-5s-5,2.239-5,5l-2,10    L30,7c0-2.761-2.239-5-5-5s-5,2.239-5,5v10c0-2.761-2.239-5-5-5s-5,2.239-5,5l2,45h17l-1-6H36z"/>
	</g>
	<g>
		<path style="fill:#74564A;" d="M20,62c0-2.209-1.791-4-4-4s-4,1.791-4,4"/>
	</g>
	<g>
		<path style="fill:#74564A;" d="M28,62c0-2.209-1.791-4-4-4s-4,1.791-4,4"/>
	</g>
	<g>
		<path style="fill:#74564A;" d="M44,62c0-2.209-1.791-4-4-4s-4,1.791-4,4"/>
	</g>
	<g>
		<path style="fill:#74564A;" d="M52,62c0-2.209-1.791-4-4-4s-4,1.791-4,4"/>
	</g>
	<g>
		<circle style="fill:#FFFFFF;" cx="22" cy="28" r="7"/>
	</g>
	<g>
		<circle style="fill:#FFFFFF;" cx="42" cy="28" r="7"/>
	</g>
	<g>
		<path style="fill:#39474E;" d="M23.677,25.512C24.475,26.051,25,26.964,25,28c0,1.657-1.343,3-3,3s-3-1.343-3-3    c0-0.191,0.018-0.378,0.052-0.559"/>
	</g>
	<g>
		<path style="fill:#39474E;" d="M40.323,25.512C39.525,26.051,39,26.964,39,28c0,1.657,1.343,3,3,3s3-1.343,3-3    c0-0.191-0.018-0.378-0.052-0.559"/>
	</g>
	<g>
		<path style="fill:#D1D8DB;" d="M22,21c-3.866,0-7,3.134-7,7c0,0.33,0.031,0.653,0.075,0.971l12.723-4.893    C26.539,22.221,24.412,21,22,21z"/>
	</g>
	<g>
		<path style="fill:#D1D8DB;" d="M49,28c0-3.866-3.134-7-7-7c-2.412,0-4.539,1.221-5.798,3.078l12.723,4.893    C48.969,28.653,49,28.33,49,28z"/>
	</g>
	<g>
		<polyline style="fill:#FFFFFF;" points="18,45 24,40 25,48   "/>
	</g>
	<g>
		<polyline style="fill:#FFFFFF;" points="46,45 40,40 39,48   "/>
	</g>
	<g>
		<g>
			<path style="fill:#74564A;" d="M32,50c-6.042,0-11.896-2.166-16.484-6.098l-0.167-0.144l1.304-1.517l0.167,0.143     C21.043,46.005,26.435,48,32,48s10.957-1.995,15.183-5.616l0.166-0.142l1.304,1.517l-0.167,0.143C43.896,47.834,38.042,50,32,50z     "/>
		</g>
	</g>
	<g>
		<path style="fill:#FAE0B8;" d="M20,7v1l9.625-2.888C28.88,3.288,27.093,2,25,2C22.239,2,20,4.239,20,7z"/>
	</g>
	<g>
		<path style="fill:#FAE0B8;" d="M34.375,5.112L44,8V7c0-2.761-2.239-5-5-5C36.907,2,35.12,3.288,34.375,5.112z"/>
	</g>
</g>
</svg>
