<?xml version="1.0" encoding="iso-8859-1"?>
<!-- Generator: Adobe Illustrator 22.1.0, SVG Export Plug-In . SVG Version: 6.00 Build 0)  -->
<svg xmlns="http://www.w3.org/2000/svg" xmlns:xlink="http://www.w3.org/1999/xlink" version="1.1" id="Layer_3" x="0px" y="0px" viewBox="0 0 64 64" style="enable-background:new 0 0 64 64;" xml:space="preserve" width="512" height="512">
<g>
	<g>
		<path style="fill:#F6C244;" d="M45,42l0,0.065c0,4.651-0.756,9.246-1.86,13.764C43.049,56.204,43,56.596,43,57    c0,3.111,2.842,5.559,6.072,4.889c1.941-0.403,3.486-2.004,3.843-3.954c0.136-0.741,0.106-1.457-0.058-2.119    C51.834,51.68,51,47.5,51,43.241v-0.001c0-2.814,0.367-5.616,1.092-8.336l0.004-0.014C54.024,27.661,55,20.211,55,12.73v0    C55,6.804,50.196,2,44.27,2H19.73C13.804,2,9,6.804,9,12.73v0c0,7.481,0.976,14.93,2.904,22.159l0.307,1.149    C12.735,38.004,13,40.03,13,42.065v0c0,4.651-0.756,9.246-1.86,13.764C11.049,56.204,11,56.596,11,57    c0,3.111,2.842,5.559,6.072,4.889c1.941-0.403,3.486-2.004,3.843-3.954c0.136-0.741,0.106-1.457-0.058-2.119    C19.834,51.68,19,47.5,19,43.24L19,42c0-2.761,2.239-5,5-5s5,2.239,5,5v0.065c0,4.651-0.756,9.246-1.86,13.764    C27.049,56.204,27,56.596,27,57c0,2.761,2.239,5,5,5s5-2.239,5-5c0-0.404-0.049-0.796-0.14-1.171    C35.756,51.311,35,46.716,35,42.065V42c0-2.761,2.239-5,5-5S45,39.239,45,42z"/>
	</g>
	<g>
		<circle style="fill:#FFFFFF;" cx="32" cy="15" r="9"/>
	</g>
	<g>
		<polyline style="fill:#FFFFFF;" points="16,30 22,25 22,33   "/>
	</g>
	<g>
		<polyline style="fill:#FFFFFF;" points="48,30 42,25 42,33   "/>
	</g>
	<g>
		<circle style="fill:#39474E;" cx="32" cy="15" r="4"/>
	</g>
	<g>
		<g>
			<path style="fill:#F8D859;" d="M32.822,35h-1.645c-6.191,0-12.239-1.734-17.49-5.016l-0.217-0.135l1.059-1.697l0.218,0.136     C19.681,31.371,25.361,33,31.178,33h1.645c5.816,0,11.497-1.629,16.43-4.712l0.219-0.136l1.059,1.697l-0.218,0.136     C45.062,33.266,39.014,35,32.822,35z"/>
		</g>
	</g>
</g>
</svg>
