<?xml version="1.0" encoding="iso-8859-1"?>
<!-- Generator: Adobe Illustrator 22.1.0, SVG Export Plug-In . SVG Version: 6.00 Build 0)  -->
<svg xmlns="http://www.w3.org/2000/svg" xmlns:xlink="http://www.w3.org/1999/xlink" version="1.1" id="Layer_3" x="0px" y="0px" viewBox="0 0 64 64" style="enable-background:new 0 0 64 64;" xml:space="preserve" width="512" height="512">
<g>
	<g>
		<path style="fill:#F6C244;" d="M11,16v23.598c0,7.567,1.009,15.101,3,22.402l0,0h10v-4h16v4h10l0,0c1.991-7.301,3-14.834,3-22.402    V16"/>
	</g>
	<g>
		<path style="fill:#39474E;" d="M37,54H27c-5.523,0-10-4.477-10-10v0h30v0C47,49.523,42.523,54,37,54z"/>
	</g>
	<g>
		<circle style="fill:#FFFFFF;" cx="22" cy="34" r="6"/>
	</g>
	<g>
		<circle style="fill:#FFFFFF;" cx="42" cy="34" r="6"/>
	</g>
	<g>
		<polyline style="fill:#FFFFFF;" points="21,44 24,50 27,44   "/>
	</g>
	<g>
		<polyline style="fill:#FFFFFF;" points="37,44 40,50 43,44   "/>
	</g>
	<g>
		<polyline style="fill:#FFFFFF;" points="27,44 25.625,46.75 29,49 32,47 35,49 38.375,46.75 37,44   "/>
	</g>
	<g>
		<circle style="fill:#39474E;" cx="22" cy="33" r="2"/>
	</g>
	<g>
		<circle style="fill:#39474E;" cx="42" cy="33" r="2"/>
	</g>
	<g>
		<path style="fill:#D1D8DB;" d="M11,28c6.627,0,12-5.373,12-12l-0.257-0.059C14.525,14.044,7.268,9.244,2.308,2.423L2,2v4.574    c0,7.956,3.161,15.587,8.787,21.213L11,28z"/>
	</g>
	<g>
		<path style="fill:#D1D8DB;" d="M53,28c-6.627,0-12-5.373-12-12l0.257-0.059c8.218-1.896,15.475-6.697,20.436-13.518L62,2v4.574    c0,7.956-3.161,15.587-8.787,21.213L53,28z"/>
	</g>
	<g>
		<path style="fill:#657B88;" d="M16.905,14.038c-1.148,2.844-3.05,5.32-5.506,7.162l1.2,1.6c2.754-2.066,4.886-4.844,6.17-8.036    C18.141,14.538,17.518,14.299,16.905,14.038z"/>
	</g>
	<g>
		<path style="fill:#657B88;" d="M10.168,14.445c-1.212,1.818-2.886,3.295-4.84,4.272l-0.614,0.307    c0.277,0.607,0.57,1.206,0.887,1.793l0.622-0.311c2.265-1.133,4.205-2.845,5.61-4.952L10.168,14.445z"/>
	</g>
	<g>
		<path style="fill:#657B88;" d="M51.4,22.8l1.2-1.6c-2.455-1.842-4.357-4.318-5.506-7.162c-0.613,0.261-1.236,0.5-1.864,0.726    C46.514,17.956,48.646,20.734,51.4,22.8z"/>
	</g>
	<g>
		<path style="fill:#657B88;" d="M58.672,18.718c-1.955-0.977-3.628-2.455-4.84-4.272l-1.664,1.109    c1.405,2.107,3.345,3.819,5.61,4.952l0.622,0.311c0.317-0.587,0.61-1.186,0.887-1.793L58.672,18.718z"/>
	</g>
</g>
</svg>
