<?xml version="1.0" encoding="iso-8859-1"?>
<!-- Generator: Adobe Illustrator 22.1.0, SVG Export Plug-In . SVG Version: 6.00 Build 0)  -->
<svg xmlns="http://www.w3.org/2000/svg" xmlns:xlink="http://www.w3.org/1999/xlink" version="1.1" id="Layer_3" x="0px" y="0px" viewBox="0 0 64 64" style="enable-background:new 0 0 64 64;" xml:space="preserve" width="512" height="512">
<g>
	<g>
		<path style="fill:#74564A;" d="M48,27c0-8.837-7.163-16-16-16s-16,7.163-16,16c0,2.406,0.531,4.687,1.483,6.733    C20.89,41.062,23,48.926,23,57.008V62h7l-0.978-7.826C29.007,54.058,29,53.941,29,53.824v0C29,52.264,30.264,51,31.824,51h0.352    C33.736,51,35,52.264,35,53.824v0c0,0.117-0.007,0.234-0.022,0.35L34,62h7v-4.992c0-8.082,2.11-15.946,5.517-23.275    C47.469,31.687,48,29.406,48,27z"/>
	</g>
	<g>
		<polygon style="fill:#657B88;" points="34,62 41,62 41,58 34.5,58   "/>
	</g>
	<g>
		<polygon style="fill:#657B88;" points="29.5,58 23,58 23,62 30,62   "/>
	</g>
	<g>
		<path style="fill:#657B88;" d="M19,26l-1.845-3.321c-2.055-3.7-5.18-6.692-8.966-8.584L8,14c-3.735,0-6.673-3.413-5.865-7.291    c0.473-2.268,2.306-4.102,4.574-4.574C10.587,1.327,14,4.265,14,8l0.095,0.189c1.893,3.785,4.885,6.911,8.584,8.966L26,19"/>
	</g>
	<g>
		<path style="fill:#657B88;" d="M45,26l1.845-3.321c2.055-3.7,5.18-6.692,8.966-8.584L56,14c3.735,0,6.673-3.413,5.865-7.291    c-0.473-2.268-2.306-4.102-4.574-4.574C53.413,1.327,50,4.265,50,8l-0.095,0.189c-1.893,3.785-4.885,6.911-8.584,8.966L38,19"/>
	</g>
	<g>
		<circle style="fill:#FFFFFF;" cx="8" cy="8" r="2"/>
	</g>
	<g>
		<circle style="fill:#FFFFFF;" cx="56" cy="8" r="2"/>
	</g>
	<g>
		<ellipse style="fill:#B63830;" cx="32" cy="33" rx="10" ry="7"/>
	</g>
	<g>
		<path style="fill:#FFFFFF;" d="M23.914,28.893L28,34l1.964-7.854C27.486,26.505,25.351,27.51,23.914,28.893z"/>
	</g>
	<g>
		<path style="fill:#FFFFFF;" d="M40.086,28.893c-1.437-1.383-3.571-2.388-6.049-2.747L36,34L40.086,28.893z"/>
	</g>
</g>
</svg>
