<?xml version="1.0" encoding="iso-8859-1"?>
<!-- Generator: Adobe Illustrator 22.1.0, SVG Export Plug-In . SVG Version: 6.00 Build 0)  -->
<svg xmlns="http://www.w3.org/2000/svg" xmlns:xlink="http://www.w3.org/1999/xlink" version="1.1" id="Layer_3" x="0px" y="0px" viewBox="0 0 64 64" style="enable-background:new 0 0 64 64;" xml:space="preserve" width="512" height="512">
<g>
	<g>
		<path style="fill:#457B3A;" d="M30.063,49.804l-1.115,3.35c-0.616,1.847-0.616,3.845,0,5.692L29,59c0,1.657-1.343,3-3,3    s-3-1.343-3-3l0.046-0.228c0.627-3.135,1.997-6.075,3.994-8.572L28,49"/>
	</g>
	<g>
		<path style="fill:#457B3A;" d="M33.93,49.792l1.122,3.362c0.616,1.847,0.616,3.845,0,5.692L35,59c0,1.657,1.343,3,3,3s3-1.343,3-3    l-0.046-0.228c-0.627-3.135-1.997-6.075-3.994-8.572L36,49"/>
	</g>
	<g>
		<path style="fill:#457B3A;" d="M26.358,44.14l-0.888-0.352C22.517,42.607,19.366,42,16.185,42h-0.013    c-2.089,0-3.955,1.527-4.153,3.607C11.791,47.993,13.661,50,16,50l0,0c2.596-1.947,5.754-3,9-3l1.219-0.001"/>
	</g>
	<g>
		<path style="fill:#457B3A;" d="M37.471,44.207l1.059-0.419C41.483,42.607,44.634,42,47.815,42h0.013    c2.089,0,3.955,1.527,4.153,3.607C52.209,47.993,50.339,50,48,50l0,0c-2.596-1.947-5.754-3-9-3l-1.253,0.005"/>
	</g>
	<g>
		<path style="fill:#F6C244;" d="M38,46c0,3.866-2.686,4-6,4s-6-0.134-6-4s2.686-6,6-6S38,42.134,38,46z"/>
	</g>
	<g>
		<path style="fill:#F6C244;" d="M24,15l5.162-11.184C29.673,2.709,30.781,2,32,2h0c1.219,0,2.327,0.709,2.838,1.816L40,15"/>
	</g>
	<g>
		<path style="fill:#67AC5B;" d="M48,30c0,7.732-7.163,10-16,10s-16-2.268-16-10s7.163-18,16-18S48,22.268,48,30z"/>
	</g>
	<g>
		<circle style="fill:#FFFFFF;" cx="32" cy="27" r="8"/>
	</g>
	<g>
		<circle style="fill:#39474E;" cx="32" cy="27" r="4"/>
	</g>
</g>
</svg>
