<?xml version="1.0" encoding="iso-8859-1"?>
<!-- Generator: Adobe Illustrator 22.1.0, SVG Export Plug-In . SVG Version: 6.00 Build 0)  -->
<svg xmlns="http://www.w3.org/2000/svg" xmlns:xlink="http://www.w3.org/1999/xlink" version="1.1" id="Layer_3" x="0px" y="0px" viewBox="0 0 64 64" style="enable-background:new 0 0 64 64;" xml:space="preserve" width="512" height="512">
<g>
	<g>
		<path style="fill:#429488;" d="M37,49l-2,8c0,2.761,2.239,5,5,5s5-2.239,5-5V41.935c0-7.704,4.479-14.617,11.378-18.043    C59.916,22.134,62,19.828,62,17C62,9.82,48.569,2,32,2S2,9.82,2,17c0,2.828,2.084,5.134,5.622,6.892    C14.521,27.319,19,34.232,19,41.935V57c0,2.761,2.239,5,5,5s5-2.239,5-5l-2-8c0-2.761,2.239-5,5-5S37,46.239,37,49z"/>
	</g>
	<g>
		<path style="fill:#2C665C;" d="M35,57c0,2.761,2.239,5,5,5s5-2.239,5-5v-1h-9.75L35,57z"/>
	</g>
	<g>
		<path style="fill:#2C665C;" d="M24,62c2.761,0,5-2.239,5-5l-0.25-1H19v1C19,59.761,21.239,62,24,62z"/>
	</g>
	<g>
		<path style="fill:#B63830;" d="M32,40L32,40c-4.418,0-8-3.582-8-8v-8h16v8C40,36.418,36.418,40,32,40z"/>
	</g>
	<g>
		<circle style="fill:#FFFFFF;" cx="16" cy="16" r="7"/>
	</g>
	<g>
		<circle style="fill:#FFFFFF;" cx="48" cy="16" r="7"/>
	</g>
	<g>
		<polyline style="fill:#FFFFFF;" points="27,24 28,30 36,30 37,24   "/>
	</g>
	<g>
		<path style="fill:#FFFFFF;" d="M25.041,35.938c0.902,1.59,2.331,2.836,4.051,3.509L30,34l-3-1L25.041,35.938z"/>
	</g>
	<g>
		<path style="fill:#FFFFFF;" d="M38.959,35.938L37,33l-3,1l0.908,5.447C36.628,38.774,38.057,37.528,38.959,35.938z"/>
	</g>
	<g>
		<circle style="fill:#39474E;" cx="16" cy="16" r="3"/>
	</g>
	<g>
		<circle style="fill:#39474E;" cx="48" cy="16" r="3"/>
	</g>
</g>
</svg>
