<?xml version="1.0" encoding="iso-8859-1"?>
<!-- Generator: Adobe Illustrator 22.1.0, SVG Export Plug-In . SVG Version: 6.00 Build 0)  -->
<svg xmlns="http://www.w3.org/2000/svg" xmlns:xlink="http://www.w3.org/1999/xlink" version="1.1" id="Layer_3" x="0px" y="0px" viewBox="0 0 64 64" style="enable-background:new 0 0 64 64;" xml:space="preserve" width="512" height="512">
<g>
	<g>
		<path style="fill:#4496EC;" d="M32,51l0.166,0.166c5.126,5.126,11.55,8.763,18.583,10.521L52,62v-0.015    c0-7.864-1.973-15.602-5.739-22.506L46,39l0.182-0.091c6.392-3.196,11.652-8.272,15.074-14.545L62,23l-18-1l-0.322-0.709    C40.57,14.454,36.671,8.005,32.06,2.077L32,2l-0.06,0.077c-4.611,5.928-8.51,12.376-11.617,19.213L20,22L2,23l0.744,1.364    c3.422,6.274,8.682,11.349,15.074,14.545L18,39l-0.261,0.479C13.973,46.382,12,54.121,12,61.985V62l1.251-0.313    c7.033-1.758,13.456-5.395,18.583-10.521L32,51z"/>
	</g>
	<g>
		<circle style="fill:#FFFFFF;" cx="24" cy="31" r="6"/>
	</g>
	<g>
		<circle style="fill:#FFFFFF;" cx="40" cy="31" r="6"/>
	</g>
	<g>
		<polyline style="fill:#FFFFFF;" points="23,43 26,49 29,43   "/>
	</g>
	<g>
		<polyline style="fill:#FFFFFF;" points="35,43 38,49 41,43   "/>
	</g>
	<g>
		<circle style="fill:#39474E;" cx="24" cy="31" r="2"/>
	</g>
	<g>
		<circle style="fill:#39474E;" cx="40" cy="31" r="2"/>
	</g>
	<g>
		<g>
			<rect x="21" y="42" style="fill:#39474E;" width="22" height="2"/>
		</g>
	</g>
</g>
</svg>
