<?xml version="1.0" encoding="iso-8859-1"?>
<!-- Generator: Adobe Illustrator 22.1.0, SVG Export Plug-In . SVG Version: 6.00 Build 0)  -->
<svg xmlns="http://www.w3.org/2000/svg" xmlns:xlink="http://www.w3.org/1999/xlink" version="1.1" id="Layer_3" x="0px" y="0px" viewBox="0 0 64 64" style="enable-background:new 0 0 64 64;" xml:space="preserve" width="512" height="512">
<g>
	<g>
		<path style="fill:#E58231;" d="M27,31l-6.12-3.825C19.71,26.444,19,25.162,19,23.783v-0.526c0-3.205-2.4-6.035-5.598-6.244    c-3.445-0.224-6.317,2.46-6.4,5.837C6.918,26.262,9.844,29,13.258,29l0.224,0c1.562,0,2.946,0.856,3.624,2.211L19,35"/>
	</g>
	<g>
		<path style="fill:#E58231;" d="M37,31l6.12-3.825c1.17-0.731,1.88-2.013,1.88-3.392v-0.526c0-3.205,2.4-6.035,5.598-6.244    c3.445-0.224,6.317,2.46,6.4,5.837c0.084,3.412-2.843,6.15-6.256,6.15l-0.224,0c-1.562,0-2.946,0.856-3.624,2.211L45,35"/>
	</g>
	<g>
		<circle style="fill:#39474E;" cx="13" cy="23" r="2"/>
	</g>
	<g>
		<circle style="fill:#39474E;" cx="51" cy="23" r="2"/>
	</g>
	<g>
		<path style="fill:#C84E29;" d="M20,51l-0.6,0.8C17.842,53.877,17,56.404,17,59v0c0,1.657,2.239,3,5,3s5-1.343,5-3l-0.364-0.364    C24.948,56.948,24,54.659,24,52.272l0.006-0.73"/>
	</g>
	<g>
		<path style="fill:#C84E29;" d="M44,51l0.6,0.8c1.558,2.077,2.4,4.604,2.4,7.2v0c0,1.657-2.239,3-5,3s-5-1.343-5-3l0.364-0.364    C39.052,56.948,40,54.659,40,52.272l0.003-0.644"/>
	</g>
	<g>
		<path style="fill:#C84E29;" d="M36.568,30.508C45.412,32.482,52,39.789,52,45c0,6.075-8.954,7-20,7s-20-0.925-20-7    c0-5.211,6.588-12.518,15.432-14.492"/>
	</g>
	<g>
		<path style="fill:#E58231;" d="M36.568,34.508h-9.135c-7.676,1.713-13.645,7.442-15.09,12.333C14.044,51.261,22.189,52,32,52    s17.956-0.739,19.658-5.159C50.213,41.95,44.244,36.221,36.568,34.508z"/>
	</g>
	<g>
		<polyline style="fill:#FFFFFF;" points="21,41 25,47 27,39   "/>
	</g>
	<g>
		<polyline style="fill:#FFFFFF;" points="43,41 39,47 37,39   "/>
	</g>
	<g>
		<path style="fill:#F29C37;" d="M40,36l-3.779-6.046C35.423,28.677,35,27.202,35,25.696v0c0-2.346,1.025-4.574,2.806-6.101    l1.417-1.215C40.986,16.869,42,14.664,42,12.343v0c0-5.326-4.019-9.977-9.334-10.321C26.841,1.645,22,6.257,22,12v0.304    c0,2.346,1.025,4.574,2.806,6.101l1.388,1.19C27.975,21.121,29,23.35,29,25.696v0c0,1.506-0.423,2.982-1.221,4.259L24,36"/>
	</g>
	<g>
		<circle style="fill:#39474E;" cx="32" cy="12" r="5"/>
	</g>
	<g>
		<g>
			<path style="fill:#C84E29;" d="M45.606,42.919l-0.585-0.251c-4.132-1.771-8.506-2.668-13-2.668c-4.536,0-8.91,0.897-13.042,2.668     l-0.585,0.251l-0.788-1.838l0.585-0.251C22.574,38.952,27.213,38,31.979,38c4.808,0,9.447,0.952,13.83,2.83l0.585,0.251     L45.606,42.919z"/>
		</g>
	</g>
	<g>
		<path style="fill:#E58231;" d="M22.739,59.242C22.255,58.275,22,57.192,22,56.111V56h-2v0.111c0,1.39,0.329,2.782,0.95,4.025    l0.928,1.856C21.92,61.993,21.958,62,22,62c0.709,0,1.382-0.091,1.993-0.251L22.739,59.242z"/>
	</g>
	<g>
		<path style="fill:#E58231;" d="M44,56.111V56h-2v0.111c0,1.081-0.255,2.164-0.739,3.131l-1.253,2.507    C40.618,61.909,41.291,62,42,62c0.042,0,0.08-0.007,0.122-0.007l0.928-1.856C43.671,58.894,44,57.501,44,56.111z"/>
	</g>
</g>
</svg>
