<?xml version="1.0" encoding="iso-8859-1"?>
<!-- Generator: Adobe Illustrator 22.1.0, SVG Export Plug-In . SVG Version: 6.00 Build 0)  -->
<svg xmlns="http://www.w3.org/2000/svg" xmlns:xlink="http://www.w3.org/1999/xlink" version="1.1" id="Layer_3" x="0px" y="0px" viewBox="0 0 64 64" style="enable-background:new 0 0 64 64;" xml:space="preserve" width="512" height="512">
<g>
	<g>
		<path style="fill:#E58231;" d="M38,5l0.02-0.007C43.297,3.014,48.887,2,54.523,2H62l-4.978,2.074    c-4.613,1.922-8.693,4.931-11.892,8.77l-0.274,0.326"/>
	</g>
	<g>
		<path style="fill:#E58231;" d="M26,5l-0.02-0.007C20.703,3.014,15.113,2,9.477,2H2l4.978,2.074    c4.613,1.922,8.693,4.931,11.892,8.77l0.273,0.328"/>
	</g>
	<g>
		<path style="fill:#D1DA59;" d="M52,42c0,16.569-8.954,20-20,20s-20-3.431-20-20S20.954,2,32,2S52,25.431,52,42z"/>
	</g>
	<g>
		<path style="fill:#F29C37;" d="M28.007,3.022L32,16l3.993-12.978C34.703,2.361,33.368,2,32,2S29.297,2.361,28.007,3.022z"/>
	</g>
	<g>
		<path style="fill:#B63830;" d="M32,54L32,54c-8.837,0-16-7.163-16-16v-2h32v2C48,46.837,40.837,54,32,54z"/>
	</g>
	<g>
		<polyline style="fill:#FFFFFF;" points="46,36 43,42 40,36 38,45 35,36 32,41 29,36 26,45 24,36 21,42 18,36   "/>
	</g>
	<g>
		<path style="fill:#FFFFFF;" d="M32,54l-3-7l-2.926,5.853C27.908,53.586,29.904,54,32,54L32,54z"/>
	</g>
	<g>
		<path style="fill:#FFFFFF;" d="M35,47l-3,7c2.096,0,4.092-0.414,5.926-1.147L35,47z"/>
	</g>
	<g>
		<circle style="fill:#D1D8DB;" cx="17" cy="23" r="9"/>
	</g>
	<g>
		<circle style="fill:#D1D8DB;" cx="47" cy="23" r="9"/>
	</g>
	<g>
		<path style="fill:#39474E;" d="M20,23c-1.657,0-3-1.343-3-3c0-0.738,0.277-1.405,0.719-1.928C17.482,18.038,17.246,18,17,18    c-2.761,0-5,2.239-5,5s2.239,5,5,5s5-2.239,5-5c0-0.246-0.038-0.482-0.072-0.719C21.405,22.723,20.738,23,20,23z"/>
	</g>
	<g>
		<path style="fill:#39474E;" d="M50,23c-1.657,0-3-1.343-3-3c0-0.738,0.277-1.405,0.719-1.928C47.482,18.038,47.246,18,47,18    c-2.761,0-5,2.239-5,5s2.239,5,5,5s5-2.239,5-5c0-0.246-0.038-0.482-0.072-0.719C51.405,22.723,50.738,23,50,23z"/>
	</g>
</g>
</svg>
