<?xml version="1.0" encoding="iso-8859-1"?>
<!-- Generator: Adobe Illustrator 22.1.0, SVG Export Plug-In . SVG Version: 6.00 Build 0)  -->
<svg xmlns="http://www.w3.org/2000/svg" xmlns:xlink="http://www.w3.org/1999/xlink" version="1.1" id="Layer_3" x="0px" y="0px" viewBox="0 0 64 64" style="enable-background:new 0 0 64 64;" xml:space="preserve" width="512" height="512">
<g>
	<g>
		<path style="fill:#74564A;" d="M17,44l-5.496,4.397C8.657,50.674,7,54.122,7,57.767v0.061c0,2.089,1.527,3.955,3.607,4.153    C12.993,62.209,15,60.339,15,58l-0.045-0.227c-0.603-3.013,0.213-6.136,2.213-8.469L20,46"/>
	</g>
	<g>
		<path style="fill:#74564A;" d="M47,44l5.496,4.397C55.343,50.674,57,54.122,57,57.767v0.061c0,2.089-1.527,3.955-3.607,4.153    C51.007,62.209,49,60.339,49,58l0.045-0.227c0.603-3.013-0.213-6.136-2.213-8.469L44,46"/>
	</g>
	<g>
		<circle style="fill:#F6C244;" cx="32" cy="26" r="24"/>
	</g>
	<g>
		<ellipse style="fill:#F8D859;" cx="30.5" cy="26" rx="22.5" ry="23.949"/>
	</g>
	<g>
		<path style="fill:#39474E;" d="M32,46L32,46c-6.627,0-12-5.373-12-12v0h24v0C44,40.627,38.627,46,32,46z"/>
	</g>
	<g>
		<polyline style="fill:#FFFFFF;" points="25,34 25,39 29,39 30,34   "/>
	</g>
	<g>
		<path style="fill:#FFFFFF;" d="M38.146,44.293L36,40l-3,1v4.95C34.872,45.795,36.617,45.208,38.146,44.293z"/>
	</g>
	<g>
		<circle style="fill:#FFFFFF;" cx="22" cy="20" r="8"/>
	</g>
	<g>
		<circle style="fill:#FFFFFF;" cx="42" cy="20" r="8"/>
	</g>
	<g>
		<circle style="fill:#39474E;" cx="22" cy="20" r="4"/>
	</g>
	<g>
		<circle style="fill:#39474E;" cx="42" cy="20" r="4"/>
	</g>
</g>
</svg>
