<?xml version="1.0" encoding="iso-8859-1"?>
<!-- Generator: Adobe Illustrator 22.1.0, SVG Export Plug-In . SVG Version: 6.00 Build 0)  -->
<svg xmlns="http://www.w3.org/2000/svg" xmlns:xlink="http://www.w3.org/1999/xlink" version="1.1" id="Layer_3" x="0px" y="0px" viewBox="0 0 64 64" style="enable-background:new 0 0 64 64;" xml:space="preserve" width="512" height="512">
<g>
	<g>
		<path style="fill:#D1D8DB;" d="M14.768,49.546L13.333,50.4c-2.811,1.687-4.992,4.248-6.21,7.292L7,58c0,2.209,1.791,4,4,4    s4-1.791,4-4l-0.023-0.068c-0.599-1.797-0.131-3.778,1.208-5.117l1.194-1.205"/>
	</g>
	<g>
		<path style="fill:#D1D8DB;" d="M49.326,49.591l1.341,0.81c2.811,1.687,4.992,4.248,6.21,7.292L57,58c0,2.209-1.791,4-4,4    s-4-1.791-4-4l0.023-0.068c0.599-1.797,0.131-3.778-1.208-5.117l-1.391-1.368"/>
	</g>
	<g>
		<path style="fill:#53BAD1;" d="M51.177,16.39l-0.279,0.916c-1.861,5.583-1.511,11.667,0.978,17L55,41c0,7.732-10.297,14-23,14    S9,48.732,9,41l3.124-6.695c2.489-5.333,2.838-11.417,0.978-17l-0.207-0.589L22,16v2.615c0,3.448,1.37,6.754,3.808,9.192L26,28    l0.733-0.488C28.211,26.526,29.948,26,31.725,26h0.55c1.777,0,3.514,0.526,4.992,1.512L38,28l0.192-0.192    C40.63,25.37,42,22.063,42,18.615V16L51.177,16.39z"/>
	</g>
	<g>
		<ellipse style="fill:#B63830;" cx="32" cy="41" rx="14" ry="10"/>
	</g>
	<g>
		<path style="fill:#FFFFFF;" d="M22.004,34.005L25,38l4-2v-4.764C26.291,31.659,23.876,32.64,22.004,34.005z"/>
	</g>
	<g>
		<path style="fill:#FFFFFF;" d="M35,31.236V36l4,2l2.996-3.995C40.124,32.64,37.709,31.659,35,31.236z"/>
	</g>
	<g>
		<path style="fill:#FFFFFF;" d="M23.893,49.143c1.774,0.903,3.853,1.513,6.107,1.744V46l-3-1L23.893,49.143z"/>
	</g>
	<g>
		<path style="fill:#FFFFFF;" d="M40.107,49.143L37,45l-3,1v4.886C36.255,50.655,38.333,50.046,40.107,49.143z"/>
	</g>
	<g>
		<circle style="fill:#D1D8DB;" cx="17" cy="10" r="8"/>
	</g>
	<g>
		<circle style="fill:#D1D8DB;" cx="47" cy="10" r="8"/>
	</g>
	<g>
		<circle style="fill:#39474E;" cx="17" cy="10" r="4"/>
	</g>
	<g>
		<circle style="fill:#39474E;" cx="47" cy="10" r="4"/>
	</g>
</g>
</svg>
