<?xml version="1.0" encoding="iso-8859-1"?>
<!-- Generator: Adobe Illustrator 22.1.0, SVG Export Plug-In . SVG Version: 6.00 Build 0)  -->
<svg xmlns="http://www.w3.org/2000/svg" xmlns:xlink="http://www.w3.org/1999/xlink" version="1.1" id="Layer_3" x="0px" y="0px" viewBox="0 0 64 64" style="enable-background:new 0 0 64 64;" xml:space="preserve" width="512" height="512">
<g>
	<g>
		<path style="fill:#D1DA59;" d="M38,18l3.179-0.795c3.087-0.772,5.74-2.738,7.377-5.466v0l5.518,4.2l-0.239,0.192    c-3.123,2.499-5.266,6.019-6.05,9.941l-0.797,3.975"/>
	</g>
	<g>
		<path style="fill:#D1DA59;" d="M26,18l-3.179-0.795c-3.087-0.772-5.74-2.738-7.377-5.466l0,0l-5.558,4.17l0.279,0.222    c3.123,2.499,5.266,6.019,6.05,9.941l0.794,3.98"/>
	</g>
	<g>
		<path style="fill:#D1DA59;" d="M49.906,44.95l7.132,4.156C60.111,50.898,62,54.187,62,57.744v0.084    c0,2.089-1.527,3.955-3.607,4.153C56.007,62.209,54,60.339,54,58l0.087-0.346c0.558-2.234-0.211-4.59-1.98-6.065L49,49"/>
	</g>
	<g>
		<path style="fill:#9E9C3D;" d="M62,57.828v-0.084c0-0.253-0.031-0.5-0.05-0.75l-7.691-0.961c0.015,0.538-0.039,1.083-0.173,1.621    L54,58c0,2.339,2.007,4.209,4.393,3.981C60.473,61.783,62,59.917,62,57.828z"/>
	</g>
	<g>
		<path style="fill:#D1DA59;" d="M14.093,44.942l-7.132,4.164C3.889,50.898,2,54.187,2,57.744v0.084    c0,2.089,1.527,3.955,3.607,4.153C7.993,62.209,10,60.339,10,58l-0.087-0.346c-0.558-2.234,0.211-4.59,1.98-6.065L15,49"/>
	</g>
	<g>
		<path style="fill:#9E9C3D;" d="M5.607,61.981C7.993,62.209,10,60.339,10,58l-0.087-0.346c-0.135-0.538-0.188-1.083-0.173-1.621    L2.05,56.994C2.031,57.243,2,57.491,2,57.744v0.084C2,59.917,3.527,61.783,5.607,61.981z"/>
	</g>
	<g>
		<path style="fill:#9E9C3D;" d="M50,43c0,10.493-8.059,19-18,19s-18-8.507-18-19s8.059-27,18-27S50,32.507,50,43z"/>
	</g>
	<g>
		<path style="fill:#B63830;" d="M46,43c0,8.284-5.716,15-14,15s-14-6.716-14-15H46z"/>
	</g>
	<g>
		<polyline style="fill:#FFFFFF;" points="42,43 39,48 36,43 32,51 28,43 25,48 22,43   "/>
	</g>
	<g>
		<path style="fill:#FFFFFF;" d="M27,57.083V51l-4.82,2.892C23.521,55.285,25.147,56.376,27,57.083z"/>
	</g>
	<g>
		<path style="fill:#FFFFFF;" d="M37,51v6.083c1.853-0.707,3.479-1.798,4.82-3.191L37,51z"/>
	</g>
	<g>
		<path style="fill:#D1DA59;" d="M37,36c0,2.761-2.239,3-5,3s-5-0.239-5-3s2.239-7,5-7S37,33.239,37,36z"/>
	</g>
	<g>
		<circle style="fill:#D1D8DB;" cx="9" cy="9" r="7"/>
	</g>
	<g>
		<circle style="fill:#D1D8DB;" cx="55" cy="9" r="7"/>
	</g>
	<g>
		<circle style="fill:#39474E;" cx="9" cy="9" r="3"/>
	</g>
	<g>
		<circle style="fill:#39474E;" cx="55" cy="9" r="3"/>
	</g>
</g>
</svg>
