<?xml version="1.0" encoding="iso-8859-1"?>
<!-- Generator: Adobe Illustrator 22.1.0, SVG Export Plug-In . SVG Version: 6.00 Build 0)  -->
<svg xmlns="http://www.w3.org/2000/svg" xmlns:xlink="http://www.w3.org/1999/xlink" version="1.1" id="Layer_3" x="0px" y="0px" viewBox="0 0 64 64" style="enable-background:new 0 0 64 64;" xml:space="preserve" width="512" height="512">
<g>
	<g>
		<path style="fill:#9E9C3D;" d="M17.163,35.085l-1.94-0.973C12.446,32.723,9.384,32,6.279,32H6.172    c-2.089,0-3.955,1.527-4.153,3.607C1.791,37.993,3.661,40,6,40l0.036-0.014c3.252-1.301,6.789-1.725,10.256-1.229L18,39"/>
	</g>
	<g>
		<path style="fill:#9E9C3D;" d="M21,47l-0.466,0.933C18.867,51.265,18,54.94,18,58.666v0.165c0,1.624,1.216,3.081,2.839,3.166    C22.569,62.086,24,60.71,24,59l-0.193-0.385c-1.15-2.299-1.261-4.981-0.306-7.367l0.552-1.378"/>
	</g>
	<g>
		<path style="fill:#9E9C3D;" d="M33.939,51.837l0.295,0.788c1.732,4.618,5.622,8.089,10.407,9.285L45,62    c1.71,0,3.086-1.431,2.996-3.161C47.911,57.216,46.455,56,44.83,56h-0.466c-2.126,0-4.138-0.967-5.466-2.627l-2.134-2.655"/>
	</g>
	<g>
		<path style="fill:#9E9C3D;" d="M41,31l0.024-0.012c5.276-2.638,10.977-4.321,16.839-4.973L58,26c2.209,0,4,1.791,4,4s-1.791,4-4,4    l-0.242-0.069c-4.413-1.261-9.094-1.23-13.49,0.089L41,35"/>
	</g>
	<g>
		<path style="fill:#E25341;" d="M41,27c0,13.807,0.941,25-9,25s-15-7.193-15-21S22.059,2,32,2S41,13.193,41,27z"/>
	</g>
	<g>
		<path style="fill:#39474E;" d="M38,40c0,4.418-3.582,8-8,8s-6-3.582-6-8s1.582-6,6-6S38,35.582,38,40z"/>
	</g>
	<g>
		<path style="fill:#FFFFFF;" d="M28,38h5v-3.706C32.073,34.094,31.062,34,30,34c-0.748,0-1.408,0.05-2,0.146V38z"/>
	</g>
	<g>
		<path style="fill:#FFFFFF;" d="M32,44h-4v3.698C28.592,47.89,29.252,48,30,48c1.011,0,1.975-0.195,2.866-0.538L32,44z"/>
	</g>
	<g>
		<circle style="fill:#FFFFFF;" cx="30" cy="17" r="7"/>
	</g>
	<g>
		<circle style="fill:#39474E;" cx="30" cy="17" r="3"/>
	</g>
</g>
</svg>
