<?xml version="1.0" encoding="iso-8859-1"?>
<!-- Generator: Adobe Illustrator 22.1.0, SVG Export Plug-In . SVG Version: 6.00 Build 0)  -->
<svg xmlns="http://www.w3.org/2000/svg" xmlns:xlink="http://www.w3.org/1999/xlink" version="1.1" id="Layer_3" x="0px" y="0px" viewBox="0 0 64 64" style="enable-background:new 0 0 64 64;" xml:space="preserve" width="512" height="512">
<g>
	<g>
		<path style="fill:#657B88;" d="M51.688,25H52h0c5.523,0,10,4.477,10,10v11c0,1.105-0.895,2-2,2h0c-1.105,0-2-0.895-2-2V35    c0-3.314-2.686-6-6-6h0h-0.832"/>
	</g>
	<g>
		<path style="fill:#657B88;" d="M12.519,29H12h0h0c-3.314,0-6,2.686-6,6v11c0,1.105-0.895,2-2,2h0c-1.105,0-2-0.895-2-2V35    c0-5.523,4.477-10,10-10h0h0h0.065"/>
	</g>
	<g>
		<path style="fill:#28388E;" d="M29,58h-8c-2.209,0-4,1.791-4,4v0h12V58z"/>
	</g>
	<g>
		<path style="fill:#28388E;" d="M35,58h8c2.209,0,4,1.791,4,4v0H35V58z"/>
	</g>
	<g>
		<rect x="25" y="44" style="fill:#657B88;" width="4" height="14"/>
	</g>
	<g>
		<rect x="35" y="44" style="fill:#657B88;" width="4" height="14"/>
	</g>
	<g>
		<ellipse style="fill:#2C67BA;" cx="32" cy="24" rx="20" ry="22"/>
	</g>
	<g>
		<ellipse style="fill:#4496EC;" cx="30.5" cy="24" rx="18.5" ry="21.932"/>
	</g>
	<g>
		<path style="fill:#FFFFFF;" d="M29.109,14.15C29.671,14.958,30,15.941,30,17c0,2.761-2.239,5-5,5s-5-2.239-5-5    c0-0.096,0.003-0.191,0.008-0.286"/>
	</g>
	<g>
		<path style="fill:#FFFFFF;" d="M34.89,14.152C34.329,14.96,34,15.942,34,17c0,2.761,2.239,5,5,5s5-2.239,5-5    c0-0.096-0.003-0.191-0.008-0.286"/>
	</g>
	<g>
		<polyline style="fill:#FFFFFF;" points="22,32 26,38 29,32   "/>
	</g>
	<g>
		<polyline style="fill:#FFFFFF;" points="42,32 38,38 35,32   "/>
	</g>
	<g>
		<path style="fill:#39474E;" d="M26.396,14.568C26.769,14.931,27,15.439,27,16c0,1.105-0.895,2-2,2s-2-0.895-2-2    c0-0.138,0.014-0.273,0.041-0.403"/>
	</g>
	<g>
		<path style="fill:#39474E;" d="M37.602,14.57C37.23,14.933,37,15.44,37,16c0,1.105,0.895,2,2,2s2-0.895,2-2    c0-0.185-0.025-0.365-0.072-0.535"/>
	</g>
	<g>
		<g>
			<path style="fill:#2C67BA;" d="M47.47,19.848l-1.216-0.76C41.975,16.414,37.046,15,32,15s-9.975,1.414-14.254,4.088l-1.216,0.76     l-1.061-1.695l1.216-0.76C21.283,14.519,26.579,13,32,13s10.717,1.519,15.314,4.392l1.216,0.761L47.47,19.848z"/>
		</g>
	</g>
	<g>
		<g>
			<rect x="29" y="25" style="fill:#2C67BA;" width="2" height="4"/>
		</g>
	</g>
	<g>
		<g>
			<rect x="33" y="25" style="fill:#2C67BA;" width="2" height="4"/>
		</g>
	</g>
	<g>
		<g>
			<rect x="20" y="31" style="fill:#2C67BA;" width="24" height="2"/>
		</g>
	</g>
</g>
</svg>
