<?xml version="1.0" encoding="iso-8859-1"?>
<!-- Generator: Adobe Illustrator 22.1.0, SVG Export Plug-In . SVG Version: 6.00 Build 0)  -->
<svg xmlns="http://www.w3.org/2000/svg" xmlns:xlink="http://www.w3.org/1999/xlink" version="1.1" id="Layer_3" x="0px" y="0px" viewBox="0 0 64 64" style="enable-background:new 0 0 64 64;" xml:space="preserve" width="512" height="512">
<g>
	<g>
		<path style="fill:#457B3A;" d="M42.013,22H52c5.523,0,10,4.477,10,10h-2c-0.64,0-1.254-0.254-1.707-0.707l-0.586-0.586    C57.254,30.254,56.64,30,56,30s-1.254,0.254-1.707,0.707l-0.586,0.586C53.254,31.746,52.64,32,52,32s-1.254-0.254-1.707-0.707    l-0.586-0.586C49.254,30.254,48.64,30,48,30s-1.254,0.254-1.707,0.707L45,32h-0.143l-0.186-0.326    C42.984,28.722,42.077,25.395,42.013,22z"/>
	</g>
	<g>
		<path style="fill:#67AC5B;" d="M43.858,30.069c-0.152-0.334-0.298-0.67-0.432-1.011c-0.044-0.111-0.085-0.223-0.127-0.335    c-0.134-0.361-0.259-0.725-0.373-1.093c-0.027-0.088-0.056-0.176-0.082-0.265c-0.123-0.417-0.232-0.839-0.329-1.263    c-0.008-0.034-0.017-0.068-0.025-0.102H52c2.932,0,5.365,2.107,5.888,4.888l-0.181-0.181C57.254,30.254,56.64,30,56,30    s-1.254,0.254-1.707,0.707l-0.586,0.586C53.254,31.746,52.64,32,52,32s-1.254-0.254-1.707-0.707l-0.586-0.586    C49.254,30.254,48.64,30,48,30s-1.254,0.254-1.707,0.707L45,32h-0.143l-0.186-0.326c-0.237-0.416-0.456-0.84-0.662-1.27    C43.956,30.293,43.909,30.18,43.858,30.069z"/>
	</g>
	<g>
		<path style="fill:#457B3A;" d="M21.987,22H12C6.477,22,2,26.477,2,32h2c0.64,0,1.254-0.254,1.707-0.707l0.586-0.586    C6.746,30.254,7.36,30,8,30s1.254,0.254,1.707,0.707l0.586,0.586C10.746,31.746,11.36,32,12,32s1.254-0.254,1.707-0.707    l0.586-0.586C14.746,30.254,15.36,30,16,30s1.254,0.254,1.707,0.707L19,32h0.143l0.186-0.326    C21.016,28.722,21.923,25.395,21.987,22z"/>
	</g>
	<g>
		<path style="fill:#67AC5B;" d="M20.142,30.069c0.152-0.334,0.298-0.67,0.432-1.011c0.044-0.111,0.085-0.223,0.127-0.335    c0.134-0.361,0.259-0.725,0.373-1.093c0.027-0.088,0.056-0.176,0.082-0.265c0.123-0.417,0.232-0.839,0.329-1.263    c0.008-0.034,0.017-0.068,0.025-0.102H12c-2.932,0-5.365,2.107-5.888,4.888l0.181-0.181C6.746,30.254,7.36,30,8,30    s1.254,0.254,1.707,0.707l0.586,0.586C10.746,31.746,11.36,32,12,32s1.254-0.254,1.707-0.707l0.586-0.586    C14.746,30.254,15.36,30,16,30s1.254,0.254,1.707,0.707L19,32h0.143l0.186-0.326c0.237-0.416,0.456-0.84,0.662-1.27    C20.044,30.293,20.091,30.18,20.142,30.069z"/>
	</g>
	<g>
		<path style="fill:#28388E;" d="M44.671,31.674l2.658,4.652C49.079,39.389,50,42.856,50,46.383v0c0,4.91-1.782,9.653-5.016,13.349    L43,62h-8l0.641-3.207C35.88,57.6,36,56.388,36,55.172v0c0-1.935-1.294-3.722-3.193-4.093C30.244,50.578,28,52.527,28,55v0.172    c0,1.216,0.12,2.429,0.359,3.621L29,62h-8l-1.984-2.268C15.782,56.037,14,51.294,14,46.383v0c0-3.528,0.921-6.994,2.671-10.057    l2.658-4.652C21.079,28.611,22,25.144,22,21.617V19v-6.657c0-5.326,4.019-9.977,9.334-10.321C37.159,1.645,42,6.257,42,12v7v2.617    C42,25.144,42.921,28.611,44.671,31.674z"/>
	</g>
	<g>
		<path style="fill:#2C67BA;" d="M47,46.383L47,46.383c0-3.528-0.921-6.995-2.671-10.057l-2.658-4.652    C39.921,28.611,39,25.144,39,21.617V19v-7c0-5.007-3.681-9.152-8.484-9.883C25.613,2.859,22,7.294,22,12.343V19v2.617    c0,3.528-0.921,6.994-2.671,10.057l-2.658,4.652C14.921,39.389,14,42.856,14,46.383v0c0,4.91,1.782,9.653,5.016,13.349L21,62h5    l-0.641-3.207C25.12,57.6,25,56.388,25,55.172V55c0-2.473,2.244-4.422,4.807-3.921c0.244,0.048,0.477,0.12,0.7,0.212    c0.692-0.279,1.479-0.372,2.3-0.212C34.706,51.45,36,53.237,36,55.172c0,1.216-0.12,2.428-0.359,3.621L35,62h5l1.984-2.268    C45.218,56.037,47,51.294,47,46.383z"/>
	</g>
	<g>
		<path style="fill:#39474E;" d="M42,35H22v2c0,5.523,4.477,10,10,10h0c5.523,0,10-4.477,10-10V35z"/>
	</g>
	<g>
		<polyline style="fill:#FFFFFF;" points="42,35 37,41 35,35 32,40 29,35 27,41 22,35   "/>
	</g>
	<g>
		<path style="fill:#FFFFFF;" d="M34,43h-4l-0.893,3.571C30.023,46.848,30.994,47,32,47s1.977-0.152,2.893-0.429L34,43z"/>
	</g>
	<g>
		<path style="fill:#FFFFFF;" d="M37,11c-1.657,0-3-1.343-3-3c0-0.546,0.157-1.051,0.412-1.492C33.673,6.183,32.859,6,32,6    c-3.314,0-6,2.686-6,6s2.686,6,6,6s6-2.686,6-6c0-0.393-0.04-0.777-0.113-1.149C37.605,10.939,37.311,11,37,11z"/>
	</g>
	<g>
		<circle style="fill:#657B88;" cx="32" cy="12" r="2"/>
	</g>
</g>
</svg>
