<?xml version="1.0" encoding="iso-8859-1"?>
<!-- Generator: Adobe Illustrator 22.1.0, SVG Export Plug-In . SVG Version: 6.00 Build 0)  -->
<svg xmlns="http://www.w3.org/2000/svg" xmlns:xlink="http://www.w3.org/1999/xlink" version="1.1" id="Layer_3" x="0px" y="0px" viewBox="0 0 64 64" style="enable-background:new 0 0 64 64;" xml:space="preserve" width="512" height="512">
<g>
	<g>
		<path style="fill:#2C665C;" d="M46.049,36.149c0.622-0.4,1.21-0.826,1.761-1.276c0,0,0.192,0.128,0.192,0.128    C51.749,37.499,54,41.705,54,46.209V48l-6.698,4.784c0.024-0.091,0.047-0.181,0.07-0.272L48,50v-1.675    C48,44.188,47.341,40.078,46.049,36.149z"/>
	</g>
	<g>
		<path style="fill:#429488;" d="M54,47h-6.026C47.989,47.441,48,47.883,48,48.325V50l-0.628,2.512    c-0.023,0.091-0.046,0.182-0.07,0.272L54,48V47z"/>
	</g>
	<g>
		<path style="fill:#2C665C;" d="M17.95,36.148c-0.621-0.4-1.209-0.826-1.759-1.275c0,0-0.192,0.128-0.192,0.128    C12.251,37.499,10,41.705,10,46.209V48l6.698,4.784c-0.024-0.091-0.047-0.181-0.07-0.272L16,50v-1.675    c0-4.137,0.659-8.247,1.951-12.176L17.95,36.148z"/>
	</g>
	<g>
		<path style="fill:#429488;" d="M16.628,52.512L16,50v-1.675c0-0.442,0.011-0.883,0.026-1.325H10v1l6.698,4.784    C16.674,52.694,16.651,52.603,16.628,52.512z"/>
	</g>
	<g>
		<path style="fill:#612694;" d="M46,36L46,36c1.325,3.974,2,8.136,2,12.325V50l-0.628,2.512C46.474,56.103,44.617,59.383,42,62l0,0    l0,0c-2.596-1.298-4.702-3.404-6-6l0,0h-8l0,0c-1.298,2.596-3.404,4.702-6,6l0,0l0,0c-2.617-2.617-4.474-5.897-5.372-9.488L16,50    v-1.675c0-4.189,0.675-8.351,2-12.325l0,0"/>
	</g>
	<g>
		<path style="fill:#9037AA;" d="M47.925,46.037c-0.075-1.281-0.208-2.557-0.409-3.822l-2.31,1.027    C41.114,45.06,36.687,46,32.209,46h-0.418c-4.477,0-8.905-0.94-12.996-2.758l-2.31-1.027c-0.201,1.266-0.334,2.541-0.409,3.822    l0.957,0.479C21.614,48.807,26.667,50,31.79,50h0.42c5.123,0,10.176-1.193,14.758-3.484L47.925,46.037z"/>
	</g>
	<g>
		<path style="fill:#E58231;" d="M41.88,11.766C42.57,11.047,43,10.075,43,9c0-2.209-1.791-4-4-4c-1.202,0-2.267,0.541-3,1.38    C35.267,5.541,34.202,5,33,5c-0.38,0-0.741,0.07-1.089,0.169C31.528,3.359,29.924,2,28,2c-2.209,0-4,1.791-4,4    c0,0.047,0.012,0.091,0.014,0.137C22.284,6.578,21,8.133,21,10c0,0.726,0.193,1.407,0.532,1.994l0.036,0    C24.643,10.732,28.199,10,32,10C35.573,10,38.935,10.641,41.88,11.766z"/>
	</g>
	<g>
		<path style="fill:#F29C37;" d="M21.298,11.515c0.068,0.165,0.145,0.326,0.233,0.479l0.036,0C24.643,10.732,28.199,10,32,10    c3.573,0,6.935,0.641,9.88,1.766c0.349-0.363,0.63-0.792,0.824-1.265C42.11,9.036,40.678,8,39,8c-1.202,0-2.267,0.541-3,1.38    C35.267,8.541,34.202,8,33,8c-0.38,0-0.741,0.07-1.089,0.169C31.528,6.359,29.924,5,28,5c-2.209,0-4,1.791-4,4    c0,0.047,0.012,0.091,0.014,0.137C22.773,9.454,21.771,10.348,21.298,11.515z"/>
	</g>
	<g>
		<ellipse style="fill:#612694;" cx="32" cy="25" rx="21" ry="15"/>
	</g>
	<g>
		<ellipse style="fill:#9037AA;" cx="32" cy="26.5" rx="20.894" ry="13.5"/>
	</g>
	<g>
		<circle style="fill:#FFFFFF;" cx="24" cy="22" r="6"/>
	</g>
	<g>
		<circle style="fill:#FFFFFF;" cx="40" cy="22" r="6"/>
	</g>
	<g>
		<polyline style="fill:#FFFFFF;" points="31,32 30,37 25,36 26,32   "/>
	</g>
	<g>
		<polyline style="fill:#FFFFFF;" points="33,32 34,37 39,36 38,32   "/>
	</g>
	<g>
		<circle style="fill:#39474E;" cx="24" cy="22" r="2"/>
	</g>
	<g>
		<circle style="fill:#39474E;" cx="40" cy="22" r="2"/>
	</g>
	<g>
		<g>
			<rect x="20" y="31" style="fill:#612694;" width="24" height="2"/>
		</g>
	</g>
	<g>
		<path d="M46,36"/>
	</g>
	<g>
		<path d="M18,36"/>
	</g>
</g>
</svg>
