<?xml version="1.0" encoding="iso-8859-1"?>
<!-- Generator: Adobe Illustrator 22.1.0, SVG Export Plug-In . SVG Version: 6.00 Build 0)  -->
<svg xmlns="http://www.w3.org/2000/svg" xmlns:xlink="http://www.w3.org/1999/xlink" version="1.1" id="Layer_3" x="0px" y="0px" viewBox="0 0 64 64" style="enable-background:new 0 0 64 64;" xml:space="preserve" width="512" height="512">
<g>
	<g>
		<path style="fill:#2C665C;" d="M33.888,12h-3.775c-10.365,0-18.588,8.732-17.968,19.078L14,62h15l-1-7h8l-1,7h15l1.855-30.922    C52.476,20.732,44.253,12,33.888,12z"/>
	</g>
	<g>
		<path style="fill:#457B3A;" d="M12.308,33.794c-0.777-0.202-1.574-0.552-2.221-0.99l-0.012-0.008L6.301,43.172    C6.102,43.72,6,44.298,6,44.881v0.822c0,2,1.192,3.808,3.03,4.596l4.38,1.879C13.411,52.178,12.308,33.794,12.308,33.794z"/>
	</g>
	<g>
		<path style="fill:#67AC5B;" d="M13.039,45.985l-6.401,2.136c0.527,0.951,1.35,1.732,2.392,2.178l4.38,1.879    C13.411,52.178,13.251,49.376,13.039,45.985z"/>
	</g>
	<g>
		<path style="fill:#457B3A;" d="M51.692,33.794c0.782-0.203,1.583-0.556,2.234-0.998c0,0,3.773,10.376,3.773,10.376    C57.898,43.72,58,44.298,58,44.881v0.822c0,2-1.192,3.808-3.03,4.596l-4.38,1.877C50.589,52.176,51.692,33.794,51.692,33.794z"/>
	</g>
	<g>
		<path style="fill:#67AC5B;" d="M50.961,45.988c-0.212,3.391-0.371,6.188-0.371,6.188l4.38-1.877    c1.042-0.446,1.865-1.227,2.392-2.178L50.961,45.988z"/>
	</g>
	<g>
		<path style="fill:#FFFFFF;" d="M14,62v-3c0-1.657,1.343-3,3-3s3,1.343,3,3v3"/>
	</g>
	<g>
		<path style="fill:#D1D8DB;" d="M20,62v-3c0-1.657,1.343-3,3-3s3,1.343,3,3v3"/>
	</g>
	<g>
		<path style="fill:#FFFFFF;" d="M38,62v-3c0-1.657,1.343-3,3-3s3,1.343,3,3v3"/>
	</g>
	<g>
		<path style="fill:#D1D8DB;" d="M44,62v-3c0-1.657,1.343-3,3-3s3,1.343,3,3v3"/>
	</g>
	<g>
		<polyline style="fill:#FFFFFF;" points="32,40 32,46 26,46 27,40   "/>
	</g>
	<g>
		<polyline style="fill:#D1D8DB;" points="32,40 32,46 38,46 37,40   "/>
	</g>
	<g>
		<circle style="fill:#D1D8DB;" cx="14" cy="27" r="7"/>
	</g>
	<g>
		<circle style="fill:#D1D8DB;" cx="50" cy="27" r="7"/>
	</g>
	<g>
		<circle style="fill:#39474E;" cx="14" cy="27" r="3"/>
	</g>
	<g>
		<circle style="fill:#39474E;" cx="50" cy="27" r="3"/>
	</g>
	<g>
		<polyline style="fill:#67AC5B;" points="17.134,10.224 14,5 22,2 24,8   "/>
	</g>
	<g>
		<polyline style="fill:#67AC5B;" points="46.866,10.224 50,5 42,2 40,8   "/>
	</g>
	<g>
		<g>
			<rect x="20" y="39" style="fill:#457B3A;" width="24" height="2"/>
		</g>
	</g>
	<g>
		<path style="fill:#457B3A;" d="M26.183,12.437c0.099-0.022,0.198-0.044,0.297-0.064c0.19-0.041,0.375-0.091,0.569-0.123L26,7    l-11,4l3.929,4.922c1.953-1.555,4.234-2.71,6.734-3.346C25.835,12.526,26.008,12.48,26.183,12.437z"/>
	</g>
	<g>
		<path style="fill:#457B3A;" d="M38.615,12.651c2.392,0.65,4.577,1.775,6.458,3.273L49,11L38,7l-1.05,5.25    c0.212,0.035,0.415,0.086,0.622,0.131c0.057,0.012,0.113,0.024,0.17,0.036C38.038,12.485,38.329,12.564,38.615,12.651z"/>
	</g>
</g>
</svg>
