<?xml version="1.0" encoding="iso-8859-1"?>
<!-- Generator: Adobe Illustrator 22.1.0, SVG Export Plug-In . SVG Version: 6.00 Build 0)  -->
<svg xmlns="http://www.w3.org/2000/svg" xmlns:xlink="http://www.w3.org/1999/xlink" version="1.1" id="Layer_3" x="0px" y="0px" viewBox="0 0 64 64" style="enable-background:new 0 0 64 64;" xml:space="preserve" width="512" height="512">
<g>
	<g>
		<path style="fill:#F6C244;" d="M40,10l0.029-0.029c3.9-3.9,8.831-6.607,14.215-7.803L55,2v0.378    c0,5.479-2.365,10.691-6.488,14.299L47,18"/>
	</g>
	<g>
		<path style="fill:#F8D859;" d="M53.79,8.983C54.568,6.889,55,4.661,55,2.378V2l-0.756,0.168c-4.425,0.983-8.534,3.002-12.027,5.85    L53.79,8.983z"/>
	</g>
	<g>
		<path style="fill:#F6C244;" d="M24,10l-0.029-0.029c-3.9-3.9-8.831-6.607-14.215-7.803L9,2v0.378    c0,5.479,2.365,10.691,6.488,14.299L17,18"/>
	</g>
	<g>
		<path style="fill:#F8D859;" d="M21.783,8.018c-3.492-2.848-7.601-4.867-12.027-5.85L9,2v0.378c0,2.283,0.433,4.511,1.21,6.604    L21.783,8.018z"/>
	</g>
	<g>
		<path style="fill:#D1DA59;" d="M45,56h4c3.314,0,6,2.686,6,6v0h-4.169c-3.815,0-7.559-1.037-10.831-3l0,0v-5c0-3.314-3.582-6-8-6    s-8,2.686-8,6v5l0,0c-3.272,1.963-7.015,3-10.831,3H9v0c0-3.314,2.686-6,6-6h4l-2.849-6.647C14.072,44.502,13,39.278,13,34v0    c0-14.912,8.507-27,19-27s19,12.088,19,27v0c0,5.278-1.072,10.502-3.151,15.353L45,56z"/>
	</g>
	<g>
		<circle style="fill:#FFFFFF;" cx="32" cy="21" r="8"/>
	</g>
	<g>
		<path style="fill:#39474E;" d="M35.465,19C35.805,19.588,36,20.271,36,21c0,2.209-1.791,4-4,4s-4-1.791-4-4    c0-0.729,0.195-1.412,0.535-2"/>
	</g>
	<g>
		<path style="fill:#4496EC;" d="M39.738,19c-0.889-3.449-4.011-6-7.738-6s-6.848,2.551-7.738,6H39.738z"/>
	</g>
	<g>
		<path style="fill:#FFFFFF;" d="M20,35L20,35c0,3.124,1.561,6.041,4.16,7.773L26,44v-9"/>
	</g>
	<g>
		<path style="fill:#FFFFFF;" d="M44,35L44,35c0,3.124-1.561,6.041-4.16,7.773L38,44v-9"/>
	</g>
	<g>
		<g>
			<rect x="17" y="34" style="fill:#F8D859;" width="30" height="2"/>
		</g>
	</g>
</g>
</svg>
