<!-- Generated by IcoMoon.io -->
<svg version="1.1" xmlns="http://www.w3.org/2000/svg" width="32" height="32" viewBox="0 0 32 32">
<title>furrynetwork</title>
<path fill="#2e75b4" d="M21.213 0c-4.163 0-8.291 0-12.417 0.036 0 0.073-0.072 0.073-0.109 0.109-1.92 0.816-3.548 1.975-4.878 3.413l-0.009 0.009c-1.121 1.165-2.024 2.547-2.749 4.003-0.253 0.511-0.507 1.056-0.724 1.601-0.036 0.109-0.073 0.257-0.183 0.331v8.3c0.073 0.109 0.073 0.255 0.109 0.4 0.36 1.131 0.833 2.184 1.448 3.204 0.833 1.273 1.848 2.365 3.115 3.24 0.036 0.036 0.071 0.109 0.144 0.072-0.037-0.036-0.037-0.072-0.073-0.109-0.325-0.472-0.613-0.909-0.904-1.383-0.977-1.639-1.593-3.424-1.737-5.315-0.072-0.693-0.037-1.421 0.035-2.112 0.036-0.437 0.109-0.873 0.219-1.311 0.363-1.711 1.084-3.276 2.063-4.732 1.437-2.101 3.035-3.927 4.824-5.546l0.026-0.024c1.248-1.131 2.68-2.093 4.238-2.83l0.106-0.045c1.884-0.875 3.839-1.203 5.901-1.057 0.941 0.073 1.847 0.219 2.753 0.364 0.071 0 0.18 0.036 0.252 0.036 0.107 0.037 0.18 0.037 0.289 0.037-0.507-0.217-1.015-0.436-1.52-0.581-0.073-0.036-0.145-0.036-0.217-0.109zM19.005 0.877c-0.581 0.036-1.124 0.071-1.703 0.18-0.977 0.183-1.92 0.475-2.86 0.765-0.736 0.235-1.37 0.518-1.966 0.862l0.048-0.026c-0.036 0-0.109 0-0.109 0.073h0.071c1.15-0.199 2.544-0.354 3.96-0.431l0.095-0.004c0.687-0.037 1.413-0.001 2.101 0.107 1.013 0.147 1.955 0.511 2.824 1.020 2.569 1.493 4.56 3.569 5.864 6.264 1.085 2.293 1.665 4.729 1.847 7.241 0.072 0.873 0.072 1.785 0.036 2.696l-0.109 1.528c-0.037 0.437-0.107 0.873-0.18 1.311-0.078 0.587-0.205 1.116-0.381 1.621l0.017-0.057c-0.507 1.312-1.229 2.512-2.063 3.639-0.653 0.875-1.411 1.676-2.136 2.476-0.107 0.109-0.18 0.183-0.252 0.293 0.072 0 0.072-0.037 0.109-0.037 1.166-0.682 2.171-1.392 3.111-2.178l-0.035 0.029c1.92-1.637 3.365-3.567 4.271-5.932l0.219-0.547h0.036v7.827c0 0.027 0.012-12.223 0.027-19.993-0.003 0.027 0 0.056-0.027 0.084 0-0.037-0.036-0.076-0.036-0.112-0.534-1.39-1.218-2.592-2.051-3.672l0.025 0.033c-1.121-1.45-2.508-2.635-4.096-3.497l-0.068-0.034c-1.776-0.968-3.89-1.537-6.137-1.537-0.159 0-0.317 0.003-0.474 0.008l0.023-0.001zM31.845 9.604c0.001-0.009 0.012-0.019 0.012-0.028v-7.245c-0.011-0.147-0.005 4.447-0.011 7.273zM14.496 5.161c-0.52-0.053-1.067 0.117-1.573 0.555-0.361 0.324-0.644 0.726-0.823 1.182l-0.007 0.021c-0.435 1.056-0.507 2.111-0.289 3.204 0.145 0.837 0.541 1.564 1.229 2.109 0.688 0.583 1.484 0.657 2.208 0.257 0.435-0.255 0.76-0.583 1.013-1.021 0.435-0.763 0.617-1.6 0.617-2.473v-0.003c0-0.4-0.037-0.764-0.109-1.164-0.108-0.716-0.405-1.349-0.838-1.863l0.005 0.006c-0.416-0.472-0.912-0.755-1.432-0.809zM21.34 6.872c-0.272 0-0.543 0.047-0.813 0.12-0.615 0.147-1.051 0.545-1.487 0.981-0.396 0.365-0.613 0.837-0.867 1.311-0.319 0.566-0.507 1.243-0.507 1.964 0 0.027 0 0.054 0.001 0.080l-0-0.004h-0.001c0 0.508 0.072 0.983 0.288 1.455 0.363 0.873 1.052 1.349 1.92 1.349 0.615 0 1.121-0.221 1.593-0.584 1.121-0.875 1.809-2.003 1.989-3.421 0.073-0.619 0-1.237-0.216-1.857-0.217-0.547-0.544-1.017-1.088-1.237-0.238-0.099-0.514-0.156-0.803-0.156-0.003 0-0.007 0-0.010 0h0.001zM8.507 10.085c-0.58 0.037-1.123 0.253-1.485 0.8-0.471 0.655-0.616 1.421-0.651 2.185-0.037 0.8 0.145 1.529 0.507 2.221 0.291 0.581 0.687 1.091 1.231 1.456 0.688 0.472 1.559 0.472 2.173 0.036 0.363-0.255 0.616-0.62 0.795-1.021 0.363-0.836 0.436-1.747 0.219-2.656-0.217-0.984-0.651-1.82-1.411-2.476-0.399-0.327-0.835-0.544-1.377-0.544zM24.319 13.605c-0.024-0.001-0.051-0.001-0.079-0.001-0.405 0-0.786 0.098-1.122 0.272l0.014-0.006c-1.159 0.547-1.955 1.421-2.425 2.623-0.253 0.692-0.363 1.383-0.145 2.112 0.181 0.655 0.543 1.129 1.196 1.311 0.253 0.073 0.544 0.109 0.796 0.109 0.435 0 0.724-0.040 1.087-0.221 0.688-0.328 1.229-0.8 1.7-1.381 0.76-0.983 1.087-2.075 0.833-3.276-0.145-0.8-0.615-1.311-1.448-1.493-0.119-0.025-0.258-0.043-0.401-0.048l-0.005-0zM14.84 15.8v0.003c-0.108 0-0.288 0-0.468 0.036-0.735 0.037-1.415 0.234-2.019 0.557l0.026-0.013c-0.796 0.437-1.483 1.020-2.099 1.675-0.686 0.717-1.296 1.517-1.813 2.379l-0.034 0.061c-0.289 0.508-0.469 1.056-0.435 1.639 0.036 0.327 0.037 0.619 0.183 0.908 0.397 0.512 0.939 0.876 1.591 1.021 0.616 0.109 1.232 0.036 1.847-0.036 0.687-0.073 1.339-0.147 1.989-0.109 1.052 0.072 1.993 0.4 2.827 1.053 0.325 0.256 0.613 0.548 0.976 0.803 0.688 0.473 1.413 0.691 2.245 0.508 0.687-0.145 1.159-0.583 1.301-1.273 0.147-0.584 0.109-1.129 0.036-1.711-0.129-0.768-0.304-1.442-0.531-2.091l0.027 0.089c-0.352-1.152-0.808-2.153-1.374-3.079l0.033 0.058c-0.4-0.653-0.867-1.237-1.52-1.675-0.831-0.581-1.737-0.765-2.787-0.801zM0.147 19.516v2.839c0.144 0.181 0.216 0.4 0.288 0.617 0.76 2.075 1.773 3.933 3.221 5.569 1.411 1.567 3.149 2.693 5.104 3.423 0.037 0 0.073 0.036 0.109 0.036h10.677c0.036-0.036 0.036-0.036 0.073-0.036 1.008-0.317 1.883-0.724 2.691-1.228l-0.049 0.028c1.303-0.801 2.46-1.823 3.473-2.985 0.907-1.020 1.667-2.149 2.209-3.421 0.58-1.347 0.869-2.769 0.943-4.261 0.016-0.049 0.025-0.105 0.025-0.164s-0.009-0.115-0.026-0.168l0.001 0.004c-0.037 0.037-0.073 0.073-0.073 0.109-0.109 0.328-0.181 0.619-0.289 0.947-0.532 1.659-1.389 3.085-2.502 4.265l0.005-0.005c-1.046 1.085-2.313 1.949-3.729 2.521l-0.072 0.026c-1.268 0.509-2.605 0.729-3.983 0.801-1.013 0.037-1.987 0-2.965-0.072-1.55-0.119-2.961-0.326-4.341-0.619l0.213 0.038c-1.892-0.43-3.559-1.056-5.11-1.874l0.113 0.054c-1.737-0.947-3.223-2.112-4.417-3.677-0.652-0.837-1.228-1.747-1.591-2.765z"></path>
</svg>
