<!-- Generated by IcoMoon.io -->
<svg version="1.1" xmlns="http://www.w3.org/2000/svg" width="32" height="32" viewBox="0 0 32 32">
<title>go</title>
<path fill="#76e1fe" d="M18.076 8.235c-0.295-0.375-0.769-0.631-1.156-0.741 0.025-0.108-0.009-0.211-0.023-0.332-0.017-0.155-0.231-0.564-0.993-0.537-0.704 0.023-1.099 0.072-1.411 0.573-0.1 0.161-0.12 0.283-0.088 0.381-0.263 0.111-0.833 0.385-1 0.755-0.197 0.437-0.105 0.904 0.223 1.135 0.309 0.217 0.584 0.211 0.905 0.163-0.067 0.293-0.105 0.628-0.105 0.973 0 0.008 0 0.016 0 0.024v-0.001c0 0.415 0.072 0.677 0.228 0.828 0.1 0.097 0.235 0.147 0.401 0.147h0.029c0.002 0 0.005 0 0.008 0 0.304 0 0.574-0.15 0.738-0.38l0.002-0.003c0.129 0.229 0.37 0.382 0.648 0.382 0.010 0 0.020-0 0.030-0.001l-0.001 0c0.467 0 0.723-0.283 0.723-0.797 0-0.083-0.044-0.812-0.080-1.116 0.056 0.005 0.113 0.009 0.172 0.009 0.005 0 0.011 0 0.017 0 0.233 0 0.451-0.067 0.635-0.182l-0.005 0.003c0.163-0.108 0.277-0.279 0.306-0.478l0-0.004c0.010-0.052 0.015-0.112 0.015-0.174 0-0.238-0.082-0.457-0.219-0.63l0.002 0.002zM15.079 11.411c-0.128 0.005-0.224-0.027-0.293-0.092-0.115-0.111-0.169-0.337-0.169-0.693 0-0.511 0.084-0.893 0.119-1.029 0.172-0.032 0.325-0.088 0.472-0.144 0.197-0.073 0.384-0.143 0.593-0.144-0.017 0.209-0.052 0.751-0.052 1.672-0.024 0.069-0.172 0.413-0.669 0.431zM17.047 10.803c0 0.411-0.175 0.609-0.535 0.609-0.007 0-0.015 0.001-0.024 0.001-0.269 0-0.493-0.188-0.55-0.439l-0.001-0.004c0-0.899 0.035-1.439 0.052-1.645 0.18 0.031 0.347 0.104 0.509 0.173 0.157 0.068 0.305 0.132 0.46 0.161h0.005c0.020 0.172 0.083 0.933 0.083 1.144zM18.096 9.003c-0.020 0.148-0.102 0.274-0.218 0.354l-0.002 0.001c-0.248 0.152-0.504 0.185-0.885 0.116-0.135-0.024-0.272-0.084-0.419-0.148-0.221-0.095-0.471-0.204-0.757-0.207-0.251 0-0.467 0.080-0.675 0.157-0.132 0.056-0.287 0.105-0.448 0.137l-0.016 0.003c-0.42 0.072-0.653 0.1-0.941-0.103-0.213-0.151-0.337-0.509-0.16-0.903 0.147-0.325 0.723-0.585 0.941-0.675 0.103 0.087 0.255 0.153 0.415 0.221 0.395 0.165 0.889 0.284 1.5-0.027 0.197-0.1 0.32-0.188 0.393-0.268 0.353 0.091 0.824 0.333 1.104 0.688 0.112 0.14 0.179 0.32 0.179 0.516 0 0.048-0.004 0.095-0.012 0.141l0.001-0.005zM11.876 7.835c-1.693 0-3.071-1.328-3.071-2.961 0-1.601 1.416-2.953 3.091-2.953 1.727 0 3.029 1.264 3.029 2.94 0.001 1.696-1.311 2.975-3.049 2.975zM11.896 2.109c-1.573 0-2.903 1.267-2.903 2.765 0 1.529 1.293 2.773 2.883 2.773 1.632 0 2.861-1.197 2.861-2.787 0.001-1.569-1.22-2.752-2.841-2.752z"></path>
<path fill="#76e1fe" d="M10.368 4.091c-0.611 0-1.069 0.329-1.069 0.964s0.5 0.945 0.971 0.945c0.411 0 1.040-0.305 1.040-0.945 0-0.005 0-0.011 0-0.017 0-0.521-0.421-0.944-0.941-0.947h-0zM10.829 5.585c-0.111 0-0.296-0.027-0.296-0.267 0-0.241 0.22-0.273 0.291-0.273 0.156 0 0.255 0.103 0.255 0.257s-0.139 0.283-0.249 0.283zM19.349 7.536c-1.707 0-3.044-1.303-3.044-2.965 0-1.607 1.393-2.965 3.044-2.965 1.497 0 3.088 1.037 3.088 2.961 0 1.749-1.269 2.969-3.088 2.969zM19.349 1.795c-1.548 0-2.856 1.272-2.856 2.777 0 1.584 1.228 2.777 2.856 2.777 1.708 0 2.901-1.144 2.901-2.781 0-1.801-1.496-2.773-2.901-2.773z"></path>
<path fill="#76e1fe" d="M17.851 3.804c-0.571 0-1.036 0.313-1.036 0.965 0 0.687 0.537 0.972 0.991 0.972 0.528 0 0.992-0.425 0.992-0.924 0-0.010 0.001-0.021 0.001-0.033 0-0.53-0.42-0.962-0.945-0.981l-0.002-0zM18.309 5.343c-0.163 0-0.263-0.14-0.263-0.285s0.133-0.285 0.263-0.285c0.145 0 0.273 0.135 0.273 0.28 0.001 0.145-0.111 0.291-0.273 0.291z"></path>
<path fill="#76e1fe" d="M27.372 15.976c-0.345-0.26-1.236-0.488-1.469-0.516-0.038-0.005-0.082-0.008-0.127-0.008-0.037 0-0.073 0.002-0.109 0.006l0.004-0c-0.028-0.806-0.044-1.753-0.044-2.703 0-0.445 0.004-0.889 0.011-1.333l-0.001 0.067c0.004-0.365 0.007-0.704 0.007-1.020 0-1.22-0.104-3.037-0.593-4.812 0.393-0.171 1.581-0.8 1.581-2.105 0-0.215-0.043-1.311-0.908-1.863-1.277-0.817-2.629-0.117-2.985 0.097-1.409-1.167-3.492-1.785-6.051-1.785-3.189 0-6 0.635-7.709 1.741-0.2 0.133-0.374 0.277-0.533 0.436l-0 0c-0.327-0.197-1.435-0.755-2.693-0.149-0.499 0.231-0.878 0.649-1.052 1.162l-0.004 0.014c-0.249 0.729-0.073 1.472 0.049 1.717 0.435 0.864 1.275 1.153 1.589 1.233-0.309 1.392-0.42 3.089-0.42 3.9 0 1.251 0.133 2.287 0.261 3.289 0.107 0.833 0.207 1.628 0.212 2.447-0.035-0.002-0.076-0.003-0.117-0.003-0.058 0-0.116 0.002-0.173 0.006l0.008-0c-0.227 0.013-1.195 0.251-1.68 0.679-0.142 0.135-0.231 0.326-0.232 0.537v0c0 0.189 0.117 0.425 0.245 0.509 0.079 0.22 0.252 0.472 0.468 0.537 0.054 0.018 0.117 0.028 0.181 0.028 0.002 0 0.005 0 0.007-0h-0c0.317 0 0.633-0.2 0.703-0.248 0.108-0.073 0.352-0.255 0.529-0.391-0.076 1.545-0.119 3.354-0.119 5.174 0 0.028 0 0.056 0 0.083v-0.004 0.72c-0.001 0.861-0.003 1.84 0.049 2.391 0.099 1.047 1.127 2.737 2.125 3.531-0.229 0.123-0.625 0.356-0.887 0.62-0.397 0.401-0.539 0.813-0.539 1.065 0 0.272 0.189 0.607 0.464 0.68 0.205 0.239 0.436 0.289 0.717 0.291 0.013 0.001 0.040 0.004 0.076 0.004 0 0 0 0 0 0 0.144 0 0.279-0.036 0.398-0.1l-0.005 0.002c0.129-0.071 0.38-0.301 0.623-0.523 0.168-0.153 0.328-0.3 0.405-0.355 0.195-0.136 0.476-0.279 0.667-0.289 0.065-0 0.126-0.015 0.181-0.040l-0.003 0.001c1.027 0.476 2.476 0.861 4.768 0.861 2.595 0 4.703-0.249 6.599-1.304 0.085 0.039 0.224 0.101 0.381 0.184 0.331 0.171 0.831 0.839 0.944 1.028 0.133 0.221 0.452 0.395 0.725 0.395 0.269 0 0.421-0.061 0.589-0.239l0.068-0.024c0.135-0.044 0.237-0.096 0.347-0.367 0.008-0.024 0.195-0.588-0.109-1.051-0.305-0.463-0.541-0.788-1.031-1.072-0.049-0.030-0.111-0.064-0.174-0.095l-0.014-0.006c2.284-2.157 2.352-6.685 2.352-7.203 0-1.685-0.071-2.903-0.145-4.192-0.003-0.026-0.013-0.178-0.022-0.331l-0.005-0.109c0.108 0.055 0.2 0.12 0.282 0.197l-0.001-0.001c0.183 0.167 0.52 0.364 0.7 0.385l0.031 0.003c0.054 0.009 0.117 0.014 0.181 0.015h0.001c0.213 0 0.46-0.080 0.62-0.523 0.148-0.111 0.243-0.285 0.243-0.482 0-0.008-0-0.015-0-0.023l0 0.001c-0.001-0.351-0.091-0.509-0.437-0.769zM25.571 1.928c0.741 0.473 0.779 1.437 0.779 1.625 0 1.108-1.008 1.665-1.379 1.833-0.16-0.481-0.33-0.885-0.528-1.273l0.024 0.051c0.221-0.197 0.671-0.676 0.297-1.051-0.331-0.329-0.74-0.179-0.94-0.072-0.256-0.399-0.541-0.745-0.86-1.056l-0.001-0.001c0.409-0.225 1.556-0.731 2.608-0.057zM4.996 4.795c-0.101-0.203-0.252-0.861-0.035-1.5 0.155-0.454 0.483-0.813 0.903-1.008l0.011-0.004c1.056-0.508 2.023-0.085 2.368 0.105-0.306 0.345-0.584 0.727-0.824 1.135l-0.019 0.034c-0.215-0.112-0.721-0.307-0.951 0.197-0.221 0.487 0.191 0.773 0.389 0.879l-0.105 0.231c-0.129 0.291-0.24 0.637-0.335 1.016-0.273-0.073-1.024-0.332-1.403-1.085zM6.377 16.315l-0.041 0.887c-0.161 0.123-0.515 0.391-0.645 0.479-0.197 0.133-0.508 0.264-0.731 0.196-0.12-0.036-0.26-0.201-0.335-0.392 0.171-0.139 0.329-0.241 0.469-0.304l-0.076-0.172c-0.194 0.093-0.361 0.202-0.511 0.331l0.003-0.003c-0.075-0.089-0.123-0.202-0.131-0.326l-0-0.002c0.002-0.155 0.066-0.295 0.169-0.396l0-0c0.453-0.4 1.38-0.621 1.567-0.632 0.121-0.007 0.209-0.005 0.272-0.001-0.003 0.111-0.005 0.223-0.011 0.336zM10.292 30.549c-0.243 0.013-0.563 0.183-0.764 0.323-0.156 0.123-0.295 0.244-0.427 0.372l0.001-0.001c-0.213 0.195-0.477 0.435-0.587 0.495-0.175 0.096-0.357 0.073-0.359 0.073l-0.013-0.003c-0.279 0-0.433-0.056-0.573-0.215 0.077-0.417 0.652-1.045 0.657-1.052l-0.139-0.128c-0.025 0.028-0.564 0.616-0.689 1.083-0.151-0.104-0.251-0.275-0.257-0.468l-0-0.001c0-0.213 0.128-0.573 0.485-0.933 0.327-0.329 0.907-0.621 1.001-0.668 0.423-0.049 0.757 0.028 0.997 0.232 0.256 0.219 0.619 0.713 0.74 0.885-0.017 0.001-0.041 0.005-0.075 0.007zM24.635 30.284c0.252 0.385 0.089 0.883 0.089 0.883-0.083 0.203-0.136 0.224-0.224 0.252-0.111-0.469-0.34-0.915-0.513-1.113l-0.143 0.124c0.143 0.161 0.381 0.601 0.484 1.085-0.121 0.12-0.227 0.156-0.431 0.156-0.232-0.010-0.435-0.126-0.563-0.301l-0.001-0.002c-0.101-0.169-0.635-0.899-1.019-1.097-0.073-0.040-0.181-0.094-0.291-0.144l-0.039-0.016c0.201-0.148 0.381-0.327 0.545-0.488 0.087-0.088 0.176-0.172 0.268-0.254l0.006-0.005c0.152-0.12 0.335-0.208 0.535-0.25l0.009-0.002c0.044 0.019 0.159 0.067 0.317 0.159 0.455 0.264 0.679 0.573 0.969 1.013zM23.263 28.909l-0.049 0.044c-0.203 0.054-0.38 0.146-0.53 0.27l0.002-0.002c-0.103 0.089-0.196 0.177-0.286 0.268l-0 0c-0.096 0.096-0.2 0.197-0.309 0.296-1.945 1.217-4.12 1.491-6.84 1.491-2.321 0-3.756-0.401-4.76-0.888-0.148-0.205-0.484-0.656-0.74-0.875-0.261-0.224-0.613-0.317-1.047-0.284l-0.017-0.012c-0.969-0.689-2.053-2.421-2.148-3.433-0.051-0.537-0.049-1.508-0.048-2.364v-0.721c0.002-2.246 0.064-4.472 0.184-6.682l-0.014 0.313c0.051-1.033-0.073-2-0.204-3.021-0.128-0.993-0.259-2.021-0.259-3.253 0-1.325 0.252-3.855 0.796-5.075 0.66-1.484 1.4-2.523 2.14-3.001 1.665-1.077 4.42-1.696 7.556-1.696 2.595 0 4.683 0.645 6.040 1.865 0.861 0.777 1.725 2.425 2.031 3.507 0.5 1.768 0.604 3.595 0.604 4.815 0 0.315-0.003 0.652-0.008 1.017-0.007 0.375-0.010 0.818-0.010 1.262 0 1.491 0.042 2.972 0.125 4.442l-0.009-0.204 0.037 0.643c0.075 1.284 0.144 2.497 0.144 4.175-0.001 0.513-0.067 5.079-2.38 7.105zM27.503 17.059c-0.179-0.177-0.521-0.317-0.565-0.335l-0.071 0.175c0.152 0.060 0.409 0.192 0.516 0.308-0.156 0.417-0.379 0.391-0.595 0.365l-0.033-0.004c-0.115-0.013-0.411-0.169-0.592-0.336-0.117-0.114-0.257-0.204-0.412-0.265l-0.008-0.003c-0.027-0.464-0.045-0.901-0.061-1.317 0.030-0.004 0.065-0.007 0.101-0.007s0.070 0.002 0.105 0.007l-0.004-0c0.228 0.028 1.077 0.253 1.379 0.48 0.3 0.225 0.361 0.329 0.361 0.619 0 0.004 0 0.009 0 0.014 0 0.116-0.046 0.222-0.12 0.3l0-0z"></path>
</svg>
