<!-- Generated by IcoMoon.io -->
<svg version="1.1" xmlns="http://www.w3.org/2000/svg" width="32" height="32" viewBox="0 0 32 32">
<title>googlepodcasts</title>
<path fill="#4285f4" d="M14 10.181v11.636h4v-11.636zM4 14.909c-0 1.105-0.896 2-2.001 2s-2.001-0.896-2.001-2.001c0-0 0-0 0-0.001v0c0-1.105 0.896-2 2.001-2s2.001 0.896 2.001 2.001c0 0 0 0 0 0.001v-0z"></path>
<path fill="#4285f4" d="M4 17.091c-0 1.105-0.896 2-2.001 2s-2.001-0.896-2.001-2.001c0-0 0-0 0-0.001v0c0-1.105 0.896-2 2.001-2s2.001 0.896 2.001 2.001c0 0 0 0 0 0.001v-0z"></path>
<path fill="#4285f4" d="M0 14.909h4v2.181h-4v-2.181zM32 17.091c-0 1.105-0.896 2-2.001 2s-2.001-0.896-2.001-2.001c0-0 0-0 0-0.001v0c0-1.105 0.896-2 2.001-2s2.001 0.896 2.001 2.001c0 0 0 0 0 0.001v-0z"></path>
<path fill="#4285f4" d="M32 14.909c-0 1.105-0.896 2-2.001 2s-2.001-0.896-2.001-2.001c0-0 0-0 0-0.001v0c0-1.105 0.896-2 2.001-2s2.001 0.896 2.001 2.001c0 0 0 0 0 0.001v-0z"></path>
<path fill="#4285f4" d="M32 17.091h-4v-2.181h4v2.181zM10.909 21.455c-0 1.105-0.896 2-2.001 2s-2.001-0.896-2.001-2.001c0-0 0-0 0-0.001v0c0-1.105 0.896-2 2.001-2s2.001 0.896 2.001 2.001c0 0 0 0 0 0.001v-0z"></path>
<path fill="#4285f4" d="M10.909 23.636c-0 1.105-0.896 2-2.001 2s-2.001-0.896-2.001-2.001c0-0 0-0 0-0.001v0c0-1.105 0.896-2 2.001-2s2.001 0.896 2.001 2.001c0 0 0 0 0 0.001v-0z"></path>
<path fill="#4285f4" d="M6.909 21.455h4v2.181h-4v-2.181zM10.909 8.364c-0 1.105-0.896 2-2.001 2s-2.001-0.896-2.001-2.001c0-0 0-0 0-0.001v0c0-1.105 0.896-2 2.001-2s2.001 0.896 2.001 2.001c0 0 0 0 0 0.001v-0zM10.909 15.455c-0 1.105-0.896 2-2.001 2s-2.001-0.896-2.001-2.001c0-0 0-0 0-0.001v0c0-1.105 0.896-2 2.001-2s2.001 0.896 2.001 2.001c0 0 0 0 0 0.001v-0z"></path>
<path fill="#4285f4" d="M6.909 8.364h4v7.136h-4v-7.136zM25.091 10.545c-0 1.105-0.896 2-2.001 2s-2.001-0.896-2.001-2.001c0-0 0-0 0-0.001v0c0-1.105 0.896-2 2.001-2s2.001 0.896 2.001 2.001c0 0 0 0 0 0.001v-0z"></path>
<path fill="#4285f4" d="M25.091 8.364c-0 1.105-0.896 2-2.001 2s-2.001-0.896-2.001-2.001c0-0 0-0 0-0.001v0c0-1.105 0.896-2 2.001-2s2.001 0.896 2.001 2.001c0 0 0 0 0 0.001v-0z"></path>
<path fill="#4285f4" d="M25.091 10.545h-4v-2.181h4v2.181zM18 4.181c-0 1.105-0.896 2-2.001 2s-2.001-0.896-2.001-2.001c0-0 0-0 0-0.001v0c0-1.105 0.896-2 2.001-2s2.001 0.896 2.001 2.001c0 0 0 0 0 0.001v-0z"></path>
<path fill="#4285f4" d="M18 2c-0 1.105-0.896 2-2.001 2s-2.001-0.896-2.001-2.001c0-0 0-0 0-0.001v0c0-1.105 0.896-2 2.001-2s2.001 0.896 2.001 2.001c0 0 0 0 0 0.001v-0z"></path>
<path fill="#4285f4" d="M18 4.181h-4v-2.181h4v2.181zM18 30c-0 1.105-0.896 2-2.001 2s-2.001-0.896-2.001-2.001c0-0 0-0 0-0.001v0c0-1.105 0.896-2 2.001-2s2.001 0.896 2.001 2.001c0 0 0 0 0 0.001v-0z"></path>
<path fill="#4285f4" d="M18 27.819c-0 1.105-0.896 2-2.001 2s-2.001-0.896-2.001-2.001c0-0 0-0 0-0.001v0c0-1.105 0.896-2 2.001-2s2.001 0.896 2.001 2.001c0 0 0 0 0 0.001v-0z"></path>
<path fill="#4285f4" d="M18 30h-4v-2.181h4v2.181zM25.091 23.636c-0 1.105-0.896 2-2.001 2s-2.001-0.896-2.001-2.001c0-0 0-0 0-0.001v0c0-1.105 0.896-2 2.001-2s2.001 0.896 2.001 2.001c0 0 0 0 0 0.001v-0zM25.091 16.545c-0 1.105-0.896 2-2.001 2s-2.001-0.896-2.001-2.001c0-0 0-0 0-0.001v0c0-1.105 0.896-2 2.001-2s2.001 0.896 2.001 2.001c0 0 0 0 0 0.001v-0z"></path>
<path fill="#4285f4" d="M25.091 23.636h-4v-7.091h4v7.091zM18 10.181c-0 1.105-0.896 2-2.001 2s-2.001-0.896-2.001-2.001c0-0 0-0 0-0.001v0c0-1.105 0.896-2 2.001-2s2.001 0.896 2.001 2.001c0 0 0 0 0 0.001v-0zM18 21.819c-0 1.105-0.896 2-2.001 2s-2.001-0.896-2.001-2.001c0-0 0-0 0-0.001v0c0-1.105 0.896-2 2.001-2s2.001 0.896 2.001 2.001c0 0 0 0 0 0.001v-0z"></path>
</svg>
