<!-- Generated by IcoMoon.io -->
<svg version="1.1" xmlns="http://www.w3.org/2000/svg" width="32" height="32" viewBox="0 0 32 32">
<title>travisci</title>
<path fill="#3eaaaf" d="M22.134 18.66c0.194-0.005 0.35-0.164 0.346-0.358-0.003-0.191-0.159-0.345-0.351-0.345-0.003 0-0.006 0-0.008 0h0c-0.193 0.003-0.346 0.164-0.344 0.356 0.003 0.193 0.16 0.348 0.353 0.348 0.001 0 0.003 0 0.004-0h-0zM24.293 20.238c-0.462-0.223-0.969 0.063-1.893 0.078-0.685 0.025-1.263 0.031-1.3-1.047-0.038-1.078 0.402-1.973 1.087-1.996 0.687-0.024 1.313 0.832 1.4 1.91 0.022 0.298-0.009 0.514-0.085 0.673 0.638-0.078 0.785 0.359 0.79 0.381zM12.297 18.919c0.189-0.006 0.341-0.161 0.341-0.351 0-0.003-0-0.006-0-0.008v0c-0.005-0.194-0.167-0.349-0.359-0.342-0.191 0.004-0.344 0.16-0.344 0.351 0 0.003 0 0.006 0 0.008v-0c0.005 0.19 0.161 0.343 0.352 0.343 0.004 0 0.008-0 0.011-0h-0.001zM13.357 19.484c0.010 1.078-0.561 1.013-1.248 1.020-0.070 0.003-0.136 0.003-0.203 0.007-0.077 0-0.15 0.003-0.222 0-0.667 0-1.092-0.031-1.471 0.172 0.010-0.022 0.175-0.395 0.775-0.544-0.067-0.147-0.109-0.35-0.12-0.628-0.040-1.081 0.625-1.965 1.313-1.971 0.686-0.008 1.166 0.866 1.176 1.945zM11.77 11.594c-0.005-0.011-0.011-0.024-0.015-0.037l-0.001-0.002c-0.316-1.15-0.302-2.357-0.273-2.913l-3.281 0.934c-0.222 1.436-0.119 2.492-0.097 2.687 0.273-0.075 0.546-0.142 0.822-0.206 0.453-0.099 0.911-0.184 1.369-0.26 0.459-0.078 0.919-0.136 1.38-0.193 0.038-0.003 0.072-0.006 0.105-0.011l-0.008 0.001zM13.2 11.456c-0.384-0.807-0.469-1.667-0.488-1.971-0.297-0.21-0.591-0.463-0.808-0.659-0.018 0.581-0.005 1.633 0.266 2.615 0.005 0.017 0.007 0.036 0.007 0.056s-0.003 0.039-0.008 0.057l0-0.002c0.343-0.036 0.686-0.069 1.030-0.096zM22.284 11.441c0.272-0.984 0.288-2.036 0.266-2.615-0.215 0.197-0.512 0.449-0.806 0.659-0.018 0.305-0.103 1.164-0.491 1.973 0.344 0.028 0.687 0.058 1.031 0.095-0.004-0.017-0.007-0.036-0.007-0.056s0.003-0.039 0.007-0.058l-0 0.002zM26.35 12.264c0.021-0.193 0.128-1.248-0.094-2.687l-3.285-0.934c0.031 0.556 0.044 1.762-0.272 2.913-0.003 0.014-0.009 0.026-0.016 0.040 0.031 0.005 0.066 0.007 0.098 0.011 0.922 0.106 1.84 0.253 2.75 0.453 0.275 0.062 0.547 0.131 0.819 0.205zM26.878 12.419c0.441 0.145 0.884 0.297 1.288 0.533-0.216-0.086-0.437-0.147-0.663-0.201-0.144-0.040-0.37-0.092-0.599-0.137l-0.073-0.012c-0.328-0.068-0.791-0.142-1.259-0.201l-0.101-0.010c-0.312-0.046-0.782-0.099-1.255-0.14l-0.113-0.008c-0.456-0.039-0.913-0.078-1.369-0.105-1.835-0.113-3.669-0.141-5.508-0.143-1.836 0-3.674 0.036-5.505 0.144-0.458 0.027-0.914 0.066-1.372 0.103-0.588 0.050-1.057 0.103-1.523 0.166l0.156-0.017c-0.454 0.055-0.908 0.128-1.359 0.212-0.299 0.055-0.526 0.106-0.75 0.164l0.077-0.017c-0.223 0.055-0.445 0.115-0.661 0.201 0.403-0.234 0.845-0.389 1.287-0.535 0.038-0.011 0.075-0.021 0.113-0.033-0.001-0.009-0.005-0.019-0.007-0.030-0.008-0.049-0.172-1.256 0.113-2.982 0.014-0.083 0.075-0.15 0.154-0.172l0.002-0 0.465-0.133c0.102-3.621 1.593-5.322 1.639-5.375-1.331 2.144-1.32 4.685-1.297 5.278l2.901-0.825c0.002 0 0.003 0 0.007-0.002 0.015-0.002 0.027-0.003 0.039-0.005l-0.003 0c0.003 0 0.008-0.001 0.013-0.001 0 0 0.001 0 0.001 0 0.016 0 0.032 0.002 0.048 0.005l-0.002-0c0.003 0 0.005 0.001 0.010 0.003 0.011 0.003 0.021 0.006 0.035 0.011 0.006 0.003 0.009 0.006 0.014 0.008 0.010 0.006 0.019 0.010 0.030 0.018 0.001 0.002 0.005 0.003 0.008 0.005 0 0.003 0.003 0.003 0.003 0.006 0.003 0.002 0.006 0.003 0.009 0.007s0.080 0.079 0.202 0.193c-0.028-0.956 0.017-3.696 1.322-5.97-0.027 0.079-1.063 3.109-0.706 6.503 0.116 0.094 0.24 0.184 0.358 0.264 0.055 0.040 0.091 0.103 0.094 0.175v0c0 0.011 0.025 1.094 0.503 2.014 0.006 0.014 0.012 0.028 0.016 0.042 1.189-0.081 2.381-0.115 3.57-0.115s2.379 0.037 3.57 0.117c0.003-0.017 0.009-0.032 0.016-0.046l-0 0.001c0.478-0.921 0.503-2.003 0.503-2.014 0.004-0.070 0.038-0.136 0.094-0.175 0.137-0.093 0.254-0.179 0.366-0.271l-0.009 0.007c0.359-3.394-0.678-6.424-0.707-6.503 1.307 2.272 1.354 5.014 1.326 5.97 0.119-0.114 0.197-0.19 0.201-0.193 0.003-0.002 0.005-0.005 0.009-0.007 0-0.003 0-0.003 0.003-0.006 0.004-0.002 0.007-0.003 0.009-0.005 0.010-0.008 0.019-0.013 0.029-0.018 0.003-0.002 0.009-0.005 0.013-0.008 0.012-0.005 0.025-0.008 0.036-0.013 0.004 0 0.007-0.001 0.011-0.001 0.014-0.003 0.030-0.005 0.046-0.005 0 0 0 0 0.001 0h-0c0.003 0 0.005 0.001 0.009 0.001 0.012 0.002 0.025 0.003 0.038 0.005 0.003 0.002 0.005 0.002 0.005 0.002l2.904 0.825c0.022-0.593 0.034-3.134-1.297-5.278 0.047 0.053 1.538 1.755 1.638 5.375l0.465 0.133c0.082 0.022 0.141 0.089 0.156 0.172 0.285 1.727 0.119 2.933 0.113 2.982-0.004 0.009-0.006 0.019-0.007 0.030v0c0.038 0.011 0.074 0.023 0.112 0.035zM7.564 13.983s-4.978 3.505-5.173 4.84l0.373-0.077s5.963-3.952 10.689-4.433l0.106-0.602-5.995 0.271zM15.38 13.482l-3.922 2.783 0.212 0.169c0.159-0.128 6.967-2.206 6.967-2.206l1.435-0.9c-0.962 0.119-4.692 0.155-4.692 0.155zM18.789 16.846c2.783 0 6.957-2.727 6.957-2.727l-1.346-0.257c-0.069 0.068-2.178-0.073-2.178-0.073l-1-0.28-2.392 2.727-0.195 0.473c0.172-0.070 0.155 0.137 0.155 0.137zM6.947 27.069c-0.020-0.009-0.039-0.018-0.058-0.027-0.064-0.057-0.168-0.148-0.274-0.238l-0.048-0.040 0.38 0.306zM27.79 25.435l-0.859 0.244-3.978-0.087-2.484-1.931-3.005 0.75-3.476-0.301-1.947 2.129-3.653 1.090-1.824-0.565c-0.058-0.049-0.092-0.078-0.092-0.078l0.819 2.003s1.855 1.988 2.889 2.223c1.036 0.234 2.906-0.020 4.311-0.234 1.404-0.219 2.523-0.719 2.973-1.538s0.517-1.053 0.517-1.053 1.338 1.888 2.488 2.107c1.152 0.215 4.578-0.953 4.578-0.953s2.087-0.569 2.456-1.285c0.366-0.719 1.335-3.074 1.335-3.074l-1.047 0.556z"></path>
<path fill="#3eaaaf" d="M6.039 14.796c-0.624 0.115-1.005 0.197-1.383 0.284l0.255-0.049 0.133 0.502c0.283-0.228 0.607-0.47 0.94-0.7l0.055-0.036zM6.65 23.013c-0.036-0.109-0.067-0.225-0.1-0.337l-0.826-0.578c-0.050-0.035-0.085-0.090-0.093-0.152l-0-0.001-0.402-3.272c-0.298 0.16-0.642 0.355-0.734 0.434-0.079 0.065-0.141 0.236-0.055 1.014 0.108 0.958 0.594 2.771 0.856 3.034 0.315 0.056 1.012-0.040 1.355-0.141zM11.586 14.341c0.613-0.172 1.242-0.322 1.891-0.447-1.223 0.044-2.192 0.091-3.158 0.148l0.373-0.018c-0.752 0.040-1.31 0.078-1.865 0.123l0.256-0.016c-0.354 0.025-0.63 0.051-0.905 0.081l0.104-0.009c-0.099 0.009-0.177 0.018-0.254 0.029l0.028-0.003c-0.698 0.417-3.381 2.101-5.222 4.303 1.789-1.243 4.906-3.113 8.753-4.189zM11.24 15.933c0.52-0.515 1.057-0.942 1.53-1.275-1.825 0.425-3.508 1.047-4.98 1.725 0.836-0.149 2.017-0.308 3.208-0.431l0.242-0.020zM18.25 13.83c-0.316-0.006-0.69-0.009-1.064-0.009-0.016 0-0.032 0-0.048 0h0.003c-0.542 0-1.086 0.006-1.631 0.017l-1.001 0.475c-0.002 0.001-0.008 0.003-0.016 0.008-0.15 0.073-1.467 0.737-2.706 1.923 1.111-0.585 2.743-1.347 4.664-1.939 0.576-0.177 1.179-0.338 1.8-0.475zM17.639 16.836c0.293-0.176 0.574-0.379 0.84-0.593-0.338-0.007-0.746-0.012-1.155-0.013l-0.009-0c-1.589 0.001-3.162 0.063-4.718 0.183l0.208-0.013c-1.378 0.673-2.219 1.228-2.24 1.24l-1.323 0.883 0.909-1.302c0.15-0.219 0.308-0.422 0.472-0.618-1.525 0.17-2.795 0.373-3.745 0.547l0.486 3.94 1.673 1.172 5.31-1.181 0.993-3.273c0.017-0.054 0.053-0.098 0.099-0.126l0.001-0.001c0.014-0.010 0.031-0.018 0.048-0.022l0.001-0c0.031-0.008 0.561-0.16 1.175-0.234l0.974-0.59zM18.176 29.419c0.169-0.016 0.34-0.038 0.51-0.063-0.221-0.228-0.417-0.444-0.573-0.618-0.186 0.452-0.289 0.681-0.394 0.909l0.088-0.213h0.039c0.105 0 0.22-0.013 0.329-0.015zM20.962 30.613c-0.721-0.053-1.378-0.353-1.906-0.879-0.029-0.027-0.053-0.056-0.081-0.081-0.211 0.044-0.477 0.083-0.747 0.109l-0.032 0.003c-0.113 0.004-0.219 0.013-0.335 0.013l-0.173 0.003-0.066-0.003c-0.702 1.047-2.265 1.25-2.337 1.259-0.066 0.009-0.117 0.020-0.191 0.031 0.872 0.238 1.759 0.341 2.635 0.281 1.183-0.079 2.283-0.342 3.303-0.762l-0.070 0.025zM20.387 14.277c0.060-0.075 0.116-0.149 0.167-0.214-0.61 0.062-1.138 0.142-1.658 0.245l0.111-0.018c-1.731 0.323-3.329 0.861-4.658 1.412 0.883-0.046 1.921-0.073 2.964-0.073h0.003c0.625 0 1.233 0.013 1.824 0.030 0.51-0.489 0.939-0.991 1.247-1.381zM25.165 14.128s0-0.001-0.003-0.001c-0.21-0.021-0.754-0.058-1.301-0.090l-0.272-0.013c-0.362-0.026-1.123-0.065-1.885-0.098l-0.303-0.010c-0.102 0.151-0.185 0.267-0.271 0.381l0.018-0.025c-0.397 0.536-1.181 1.522-2.193 2.356 1.43-0.255 3.905-0.889 6.049-2.384 0.056-0.038 0.106-0.078 0.159-0.116zM27.572 22.385l-0.225 0.156-0.603 0.425-0.656 0.459c-0.036 0.025-0.080 0.039-0.128 0.039-0.009 0-0.018-0.001-0.027-0.002l0.001 0-6.992-0.794c-0.089-0.010-0.162-0.072-0.187-0.155l-0-0.002-1.021-3.361c-0.171-0.023-0.323-0.035-0.449-0.035-0.13 0-0.279 0.012-0.45 0.035l-0.991 3.264c-0.024 0.076-0.086 0.133-0.163 0.149l-0.001 0-6.949 1.547c-0.017 0.003-0.034 0.007-0.049 0.007-0 0-0.001 0-0.001 0-0.048 0-0.092-0.016-0.128-0.042l0.001 0-0.252-0.174-0.756-0.531-0.305-0.212c0.020 0.065 0.045 0.134 0.070 0.199l-0.002 0.004c0.060 0.172 0.644 1.859 1.835 3.509 1.275-0.378 2.378-0.728 2.73-0.837 0.719-1.109 1.741-2.207 2.467-2.244 0.125-0.007 0.255-0.011 0.384-0.011 0.355 0 0.695 0.026 1.008 0.063-0.266-0.244-0.32-0.527-0.359-0.652 0 0 0.926 0.725 2.107 0.571 1.18-0.15 1.911-0.831 1.911-0.831s-0.004 0.496-0.517 0.88c0.988-0.3 1.398-0.402 1.68-0.402 0.309 0 0.462 0.128 0.594 0.243 0.024 0.022 0.051 0.043 0.078 0.063l0.003 0.002c1.843 1.432 2.476 1.937 3.108 2.443l-1.164-0.902c0.309 0.034 1.29 0.146 1.909 0.203 0.357 0.034 0.678 0.059 0.997 0.059 0.1 0 0.197-0.003 0.288-0.009 0.409-0.781 0.775-1.665 1.087-2.665 0.040-0.154 0.084-0.307 0.118-0.463zM27.203 20.488l0.478-3.353c-1.35-0.245-3.322-0.541-5.743-0.727-2.181 0.753-4.012 0.979-4.121 0.986l-0.128 0.008c0.697 0.059 1.353 0.246 1.385 0.258 0.073 0.021 0.129 0.076 0.151 0.147l0 0.002 0.989 3.258 5.301 0.603 1.687-1.181zM28.493 21.194l0.544-3.788c-0.241-0.051-0.551-0.117-0.919-0.188l-0.487 3.428c-0.011 0.062-0.045 0.115-0.093 0.149l-0.001 0-1.835 1.285c-0.044 0.031-0.1 0.043-0.154 0.040l-5.531-0.631c-0.088-0.010-0.16-0.070-0.187-0.151l-0-0.002-0.996-3.284c-0.268-0.066-0.952-0.226-1.551-0.226-0.603 0-1.287 0.16-1.553 0.226l-0.997 3.284c-0.018 0.056-0.057 0.102-0.108 0.127l-0.001 0.001c-0.018 0.013-0.036 0.016-0.055 0.022l-5.531 1.23c-0.019 0.004-0.033 0.004-0.050 0.004-0.047-0-0.091-0.014-0.128-0.038l0.001 0.001-1.834-1.284c-0.050-0.036-0.085-0.092-0.094-0.155l-0-0.001-0.494-4.012c-0.206 0.039-0.392 0.078-0.557 0.111 0.227-0.115 0.114-0.051 0 0.014l-0.347 0.181 0.525 4.253 2.666 1.868 6.728-1.497 0.994-3.273c0.025-0.081 0.092-0.141 0.175-0.156l0.001-0c0.251-0.039 0.471-0.061 0.659-0.061 0.184 0 0.405 0.022 0.656 0.061 0.085 0.015 0.152 0.075 0.177 0.155l0 0.002 1.018 3.355 6.764 0.768 2.594-1.819zM29.244 16.836l0.475-1.806c-0.691-0.156-1.962-0.417-3.694-0.662-0.884 0.635-1.853 1.143-2.806 1.549 2.913 0.283 5.053 0.705 6.025 0.919zM30.069 19.66c0.072-0.809 0.009-0.982-0.072-1.047-0.085-0.070-0.359-0.227-0.629-0.374l-0.447 3.115c-0.009 0.063-0.044 0.116-0.093 0.149l-0.001 0-0.634 0.447c-0.051 0.253-0.069 0.375-0.132 0.625 0.362 0.085 0.96 0.147 1.244 0.094 0.259-0.281 0.676-2.015 0.763-3.009zM31.987 11.975c0.026 0.465 0.013 0.934-0.040 1.397-0.054 0.517-0.145 0.985-0.274 1.438l0.014-0.059c-0.077 0.277-0.154 0.5-0.242 0.718l0.016-0.046c-0.060 0.154-0.107 0.263-0.157 0.37l0.017-0.039c-0.025 0.055-0.053 0.108-0.085 0.164l-0.043 0.081c-0.020 0.030-0.031 0.051-0.056 0.093l-0.047 0.074-0.076 0.037c-0.078 0.041-0.143 0.070-0.216 0.105l-0.206 0.093c-0.037 0.021-0.176 0.079-0.315 0.135l-0.104 0.037c-0.151 0.056-0.24 0.092-0.328 0.13l0.060-0.023-0.228 0.876c-0.007 0-0.078-0.017-0.207-0.048l-0.012 0.091c0.257 0.133 0.757 0.402 0.928 0.543 0.344 0.285 0.365 0.734 0.29 1.575-0.038 0.431-0.181 1.272-0.381 2.044-0.344 1.328-0.525 1.484-0.759 1.543-0.122 0.029-0.303 0.060-0.482 0.060-0.362 0-0.857 0.012-1.187-0.069-0.087 0.303-0.331 1.091-0.813 2.076 0.022-0.013 0.047-0.022 0.069-0.035 0.594-0.313 1.737-0.809 1.788-0.831l0.9-0.395-0.462 0.872c-0.011 0.016-1 1.881-1.607 3.1-0.603 1.206-1.735 1.469-2.413 1.625-0.1 0.025-0.197 0.047-0.275 0.065-0.487 0.138-1.469 0.372-2.337 0.582-0.009 0.003-0.020 0.005-0.031 0.005h-0c-0.501 0.317-1.079 0.609-1.685 0.843l-0.069 0.023c-2.329 0.884-4.787 0.835-7.015 0.016-0.361 0.047-0.836 0.103-1.47 0.176-0.239 0.029-0.516 0.046-0.797 0.047h-0.001c-2.123 0-3.248-1.078-4.068-2.135-0.88-1.128-1.953-2.806-2-2.878l-0.622-0.969 1.053 0.471c0.503 0.229 2.003 0.922 2.433 1.122 0.034-0.013 0.069-0.022 0.101-0.031-0.712-1.016-1.297-2.178-1.711-3.462-0.35 0.105-0.892 0.188-1.313 0.188-0.153 0-0.292-0.009-0.397-0.035-0.236-0.056-0.505-0.281-0.87-1.568-0.211-0.747-0.37-1.56-0.416-1.982-0.092-0.819-0.075-1.259 0.266-1.542 0.205-0.17 0.899-0.535 1.041-0.609l-0.030-0.253c-2.2 1.293-3.519 2.435-3.546 2.457l-1.572 1.381 1.122-1.766c0.886-1.402 1.911-2.535 2.853-3.407-0.039-0.016-0.075-0.031-0.114-0.047l-0.208-0.094c-0.099-0.045-0.169-0.080-0.238-0.117l0.024 0.012-0.074-0.037-0.047-0.074c-0.027-0.041-0.037-0.063-0.056-0.092l-0.047-0.081c-0.028-0.056-0.057-0.109-0.083-0.164-0.039-0.078-0.086-0.187-0.13-0.298l-0.011-0.032c-0.071-0.17-0.148-0.394-0.214-0.622l-0.012-0.050c-0.111-0.391-0.202-0.858-0.254-1.338l-0.003-0.039c-0.034-0.288-0.053-0.622-0.053-0.96 0-0.154 0.004-0.308 0.012-0.46l-0.001 0.021c0.014-0.263 0.038-0.503 0.072-0.74l-0.005 0.044c0.021-0.153 0.041-0.271 0.065-0.388l-0.007 0.041c0.029-0.151 0.058-0.27 0.091-0.388l-0.008 0.033 0.025-0.090 0.065-0.050c0.367-0.289 0.762-0.506 1.165-0.7 0.249-0.122 0.582-0.263 0.922-0.39l0.087-0.029c0.951-2.637 2.586-4.978 4.734-6.609 2.222-1.686 4.834-2.577 7.556-2.577 2.719 0 5.335 0.891 7.553 2.577 2.15 1.631 3.784 3.972 4.735 6.609 0.43 0.156 0.764 0.297 1.091 0.452l-0.078-0.033c0.402 0.194 0.797 0.411 1.165 0.7l0.063 0.050 0.025 0.090c0.038 0.128 0.060 0.238 0.085 0.355 0.022 0.116 0.040 0.231 0.056 0.348 0.031 0.23 0.056 0.463 0.065 0.695zM6.479 9.045c-0.401 0.161-0.803 0.33-1.193 0.512-0.391 0.18-0.777 0.372-1.145 0.586-0.339 0.195-0.664 0.411-0.952 0.654-0.009 0.043-0.021 0.121-0.031 0.198l-0.003 0.028c-0.010 0.074-0.022 0.184-0.031 0.296l-0.002 0.026c-0.017 0.194-0.027 0.42-0.028 0.649v0.001c-0.005 0.433 0.025 0.867 0.080 1.297 0.059 0.432 0.137 0.859 0.255 1.272 0.071 0.256 0.138 0.459 0.215 0.658l-0.016-0.048c0.047 0.124 0.088 0.22 0.134 0.313l-0.010-0.023c0.020 0.047 0.044 0.094 0.065 0.138l0.027 0.053c0.033 0.018 0.066 0.033 0.097 0.049l0.194 0.090c0.107 0.050 0.256 0.12 0.378 0.175 0.008-0.005 0.014-0.013 0.021-0.018l-0.358-1.363c0.077-0.020 0.754-0.195 1.925-0.419-0.122-0.022-0.218-0.043-0.312-0.067l0.029 0.006c-0.309-0.075-0.57-0.161-0.822-0.264l0.039 0.014c-0.125-0.053-0.25-0.111-0.369-0.18s-0.236-0.144-0.326-0.247c1.286 0.421 3.942 0.23 6.305-0.014 2.159-0.223 4.325-0.367 6.5-0.372 2.174 0.005 4.344 0.148 6.5 0.372 2.362 0.243 5.022 0.434 6.306 0.014-0.090 0.103-0.206 0.18-0.324 0.247-0.101 0.058-0.224 0.119-0.35 0.171l-0.022 0.008c-0.213 0.089-0.474 0.175-0.742 0.242l-0.040 0.008c0.016-0.002-0.024 0.007-0.064 0.016l-0.055 0.010c1.281 0.24 2.027 0.432 2.109 0.453l-0.344 1.297c0.129-0.053 0.197-0.084 0.264-0.115l-0.058 0.024 0.194-0.092c0.031-0.016 0.063-0.031 0.096-0.049l0.029-0.051c0.012-0.021 0.033-0.067 0.054-0.113l0.011-0.026c0.035-0.071 0.076-0.166 0.113-0.264l0.009-0.026c0.062-0.155 0.129-0.357 0.186-0.564l0.010-0.044c0.119-0.414 0.197-0.842 0.257-1.273 0.056-0.43 0.085-0.864 0.081-1.297-0.003-0.235-0.013-0.461-0.029-0.686l0.002 0.036c-0.009-0.108-0.022-0.214-0.035-0.322-0.012-0.097-0.023-0.174-0.038-0.251l0.004 0.024c-0.288-0.242-0.612-0.458-0.953-0.654-0.369-0.214-0.754-0.406-1.145-0.586-0.391-0.182-0.793-0.352-1.193-0.512 0.020-0.002-0.181-0.082-0.383-0.161l-0.226-0.077c-0.203-0.078-0.41-0.151-0.613-0.227 0.431 0.070 0.857 0.169 1.281 0.279 0.275 0.070 0.551 0.151 0.822 0.237-1.937-5.065-6.571-8.364-11.629-8.364-5.059 0-9.693 3.299-11.628 8.364 0.271-0.086 0.545-0.167 0.82-0.237 0.425-0.109 0.852-0.208 1.284-0.279-0.206 0.076-0.411 0.148-0.616 0.227-0.447 0.162-0.648 0.243-0.848 0.325l0.24-0.087zM18.020 27.573l0.255 0.306c0.007 0.007 0.573 0.681 1.266 1.369 0.46 0.453 1.016 0.685 1.656 0.685 0.216 0 0.444-0.029 0.674-0.085 0.216-0.051 0.451-0.107 0.687-0.163 0.863-0.206 1.839-0.44 2.31-0.572 0.074-0.024 0.178-0.051 0.284-0.073l0.026-0.005c0.628-0.145 1.49-0.344 1.947-1.259 0.344-0.687 0.809-1.582 1.152-2.234-0.297 0.137-0.609 0.284-0.831 0.402-0.344 0.178-0.791 0.266-1.369 0.266-0.348 0-0.685-0.027-1.060-0.063-0.746-0.069-2.012-0.215-2.025-0.219l-0.096-0.009-0.078-0.063c-0.011-0.009-1.12-0.891-2.016-1.596-0.038-0.029-0.069-0.057-0.1-0.082-0.094-0.081-0.094-0.081-0.15-0.081-0.288 0-1.122 0.259-2.956 0.828l-0.112 0.034-0.109-0.040c-0.013-0.007-1.215-0.451-2.653-0.451-0.119 0-0.236 0.004-0.35 0.011-0.143 0.005-0.953 0.391-1.987 2.027l-0.068 0.103-0.119 0.042c-0.017 0.003-1.799 0.581-3.687 1.119l-0.122 0.034-0.117-0.053c-0.011-0.003-0.75-0.346-1.453-0.672 0.383 0.569 0.873 1.276 1.305 1.828 0.755 0.973 1.703 1.87 3.525 1.87 0.23 0 0.472-0.013 0.722-0.044 1.852-0.21 2.329-0.294 2.586-0.337 0.087-0.016 0.156-0.029 0.243-0.038 0.014-0.003 1.531-0.197 1.958-1.154 0.439-0.981 0.527-1.215 0.531-1.224l0.155-0.413-0.044-0.038c0.031-0.034 0.063-0.072 0.094-0.103l0.004 0.003c0.049 0.035 0.098 0.072 0.147 0.109l-0.026 0.035z"></path>
<path fill="#3eaaaf" d="M20.688 5.891v-2.724h-6.796v2.724h1.929v-0.796h0.433v3.677h-0.653v2.057h3.376v-2.057h-0.656v-3.677h0.435v0.796z"></path>
</svg>
