<?xml version="1.0" encoding="iso-8859-1"?>
<!-- Generator: Adobe Illustrator 19.0.0, SVG Export Plug-In . SVG Version: 6.00 Build 0)  -->
<svg version="1.1" id="Layer_1" xmlns="http://www.w3.org/2000/svg" xmlns:xlink="http://www.w3.org/1999/xlink" x="0px" y="0px"
	 viewBox="0 0 489.6 489.6" style="enable-background:new 0 0 489.6 489.6;" xml:space="preserve">
<g>
	<path style="fill:#B1BCBC;" d="M461.218,489.6h-433.6c-15.2,0-27.2-12-27.2-27.2V28c-0.8-15.2,12-28,27.2-28h434.4
		c15.2,0,27.2,12,27.2,27.2v434.4C489.218,476.8,476.418,489.6,461.218,489.6z M27.618,24c-1.6,0-3.2,1.6-3.2,3.2v434.4
		c0,1.6,1.6,3.2,3.2,3.2h434.4c1.6,0,3.2-1.6,3.2-3.2V28c0-1.6-1.6-3.2-3.2-3.2h-434.4V24z"/>
	<rect x="18.018" y="20" style="fill:#B1BCBC;" width="453.6" height="74.4"/>
</g>
<g style="opacity:0.4;">
	<circle style="fill:#B1BCBC;" cx="45.218" cy="55.2" r="11.2"/>
</g>
<circle style="fill:#FFFFFF;" cx="45.218" cy="51.2" r="11.2"/>
<path style="fill:#E8EFEE;" d="M37.218,43.2c4-4,11.2-4,16,0c4,4,4,11.2,0,16"/>
<g style="opacity:0.4;">
	<circle style="fill:#B1BCBC;" cx="89.218" cy="55.2" r="11.2"/>
</g>
<circle style="fill:#FFFFFF;" cx="89.218" cy="51.2" r="11.2"/>
<path style="fill:#E8EFEE;" d="M81.218,43.2c4-4,11.2-4,16,0c4,4,4,11.2,0,16"/>
<g style="opacity:0.4;">
	<circle style="fill:#B1BCBC;" cx="133.218" cy="55.2" r="11.2"/>
</g>
<circle style="fill:#FFFFFF;" cx="133.218" cy="51.2" r="11.2"/>
<path style="fill:#E8EFEE;" d="M125.218,43.2c4-4,11.2-4,16,0c4,4,4,11.2,0,16"/>
<g>
	<path style="fill:#0FB8BC;" d="M393.218,409.6h-297.6c-10.4,0-18.4-8-18.4-18.4V172.8c0-10.4,8-18.4,18.4-18.4h298.4
		c10.4,0,18.4,8,18.4,18.4v218.4C412.418,400.8,403.618,409.6,393.218,409.6z M95.618,170.4c-1.6,0-2.4,0.8-2.4,2.4v218.4
		c0,1.6,0.8,2.4,2.4,2.4h298.4c1.6,0,2.4-0.8,2.4-2.4V172.8c0-1.6-0.8-2.4-2.4-2.4H95.618z"/>
	<rect x="89.218" y="168" style="fill:#0FB8BC;" width="311.2" height="51.2"/>
</g>
<g style="opacity:0.4;">
	<circle style="fill:#B1BCBC;" cx="107.618" cy="192" r="8"/>
</g>
<circle style="fill:#FFFFFF;" cx="107.618" cy="188.8" r="8"/>
<path style="fill:#E8EFEE;" d="M102.018,183.2c3.2-3.2,8-3.2,11.2,0s3.2,8,0,11.2"/>
<g style="opacity:0.4;">
	<circle style="fill:#B1BCBC;" cx="138.018" cy="192" r="8"/>
</g>
<circle style="fill:#FFFFFF;" cx="138.018" cy="188.8" r="8"/>
<path style="fill:#E8EFEE;" d="M132.418,183.2c3.2-3.2,8-3.2,11.2,0s3.2,8,0,11.2"/>
<g style="opacity:0.4;">
	<circle style="fill:#B1BCBC;" cx="168.418" cy="192" r="8"/>
</g>
<circle style="fill:#FFFFFF;" cx="168.418" cy="188.8" r="8"/>
<path style="fill:#E8EFEE;" d="M162.818,183.2c3.2-3.2,8-3.2,11.2,0s3.2,8,0,11.2"/>
<g>
</g>
<g>
</g>
<g>
</g>
<g>
</g>
<g>
</g>
<g>
</g>
<g>
</g>
<g>
</g>
<g>
</g>
<g>
</g>
<g>
</g>
<g>
</g>
<g>
</g>
<g>
</g>
<g>
</g>
</svg>
