<?xml version="1.0" encoding="iso-8859-1"?>
<!-- Generator: Adobe Illustrator 19.0.0, SVG Export Plug-In . SVG Version: 6.00 Build 0)  -->
<svg version="1.1" id="Layer_1" xmlns="http://www.w3.org/2000/svg" xmlns:xlink="http://www.w3.org/1999/xlink" x="0px" y="0px"
	 viewBox="0 0 480.8 480.8" style="enable-background:new 0 0 480.8 480.8;" xml:space="preserve">
<g>
	<path style="fill:#FF6700;" d="M456.8,480.4H23.2C10.4,480.4,0,470,0,457.2V23.6C0,10.8,10.4,0.4,23.2,0.4H456
		c13.6,0,24,10.4,24,23.2v432.8C480,470,469.6,480.4,456.8,480.4z M23.2,16.4c-4,0-7.2,3.2-7.2,7.2v432.8c0,4.8,3.2,8,7.2,8H456
		c4,0,7.2-3.2,7.2-7.2V23.6c0.8-4-2.4-7.2-6.4-7.2H23.2z"/>
	<path style="fill:#FF6700;" d="M456.8,480.4H23.2C6.4,480.4,0,473.2,0,466V277.2c0-12.8,16.8-12.8,23.2-12.8h434.4
		c5.6,0,23.2,0,23.2,12.8V466C480,473.2,473.6,480.4,456.8,480.4z M16,463.6c1.6,0,3.2,0.8,7.2,0.8h434.4c3.2,0,5.6-0.8,7.2-0.8
		V281.2c-1.6,0-3.2-0.8-7.2-0.8H23.2c-3.2,0-5.6,0-7.2,0.8V463.6z"/>
	<rect x="16" y="8.4" style="fill:#FF6700;" width="448" height="80"/>
</g>
<g style="opacity:0.4;">
	<circle style="fill:#B1BCBC;" cx="40.8" cy="50.8" r="11.2"/>
</g>
<circle style="fill:#FFFFFF;" cx="40.8" cy="46.8" r="11.2"/>
<path style="fill:#E8EFEE;" d="M32.8,38.8c4-4,11.2-4,16,0c4,4,4,11.2,0,16"/>
<g style="opacity:0.4;">
	<circle style="fill:#B1BCBC;" cx="84.8" cy="50.8" r="11.2"/>
</g>
<circle style="fill:#FFFFFF;" cx="84.8" cy="46.8" r="11.2"/>
<path style="fill:#E8EFEE;" d="M76.8,38.8c4-4,11.2-4,16,0c4,4,4,11.2,0,16"/>
<g style="opacity:0.4;">
	<circle style="fill:#B1BCBC;" cx="128.8" cy="50.8" r="11.2"/>
</g>
<circle style="fill:#FFFFFF;" cx="128.8" cy="46.8" r="11.2"/>
<path style="fill:#E8EFEE;" d="M120.8,38.8c4-4,11.2-4,16,0c4,4,4,11.2,0,16"/>
<g>
</g>
<g>
</g>
<g>
</g>
<g>
</g>
<g>
</g>
<g>
</g>
<g>
</g>
<g>
</g>
<g>
</g>
<g>
</g>
<g>
</g>
<g>
</g>
<g>
</g>
<g>
</g>
<g>
</g>
</svg>
