<?xml version="1.0" encoding="iso-8859-1"?>
<!-- Generator: Adobe Illustrator 19.0.0, SVG Export Plug-In . SVG Version: 6.00 Build 0)  -->
<svg version="1.1" id="Layer_1" xmlns="http://www.w3.org/2000/svg" xmlns:xlink="http://www.w3.org/1999/xlink" x="0px" y="0px"
	 viewBox="0 0 495.243 495.243" style="enable-background:new 0 0 495.243 495.243;" xml:space="preserve">
<g>
	<path style="fill:#7BD100;" d="M212,235.622H23.2c-12.8,0-23.2-10.4-23.2-23.2v-178.4c0-12.8,10.4-23.2,23.2-23.2h188
		c12.8,0,23.2,10.4,23.2,23.2v178.4C235.2,225.222,224.8,235.622,212,235.622z M23.2,26.822c-4,0-7.2,3.2-7.2,7.2v178.4
		c0,4,3.2,7.2,7.2,7.2h188c4,0,7.2-3.2,7.2-7.2v-178.4c0-4-3.2-7.2-7.2-7.2H23.2z"/>
	<rect x="13.6" y="18.822" style="fill:#7BD100;" width="207.2" height="82.4"/>
</g>
<g style="opacity:0.4;">
	<circle style="fill:#B1BCBC;" cx="41.6" cy="62.022" r="11.2"/>
</g>
<circle style="fill:#FFFFFF;" cx="41.6" cy="57.222" r="11.2"/>
<path style="fill:#E8EFEE;" d="M33.6,49.222c4-4,11.2-4,16,0c4,4,4,11.2,0,16"/>
<g style="opacity:0.4;">
	<circle style="fill:#B1BCBC;" cx="85.6" cy="62.022" r="11.2"/>
</g>
<circle style="fill:#FFFFFF;" cx="85.6" cy="57.222" r="11.2"/>
<path style="fill:#E8EFEE;" d="M77.6,49.222c4-4,11.2-4,16,0c4,4,4,11.2,0,16"/>
<g style="opacity:0.4;">
	<circle style="fill:#B1BCBC;" cx="129.6" cy="62.022" r="11.2"/>
</g>
<circle style="fill:#FFFFFF;" cx="129.6" cy="57.222" r="11.2"/>
<path style="fill:#E8EFEE;" d="M121.6,49.222c4-4,11.2-4,16,0c4,4,4,11.2,0,16"/>
<g>
	<path style="fill:#7BD100;" d="M472.8,235.622H284c-12.8,0-23.2-10.4-23.2-23.2v-178.4c0-12.8,10.4-23.2,23.2-23.2h188
		c12.8,0,23.2,10.4,23.2,23.2v178.4C496,225.222,485.6,235.622,472.8,235.622z M284,26.822c-4,0-7.2,3.2-7.2,7.2v178.4
		c0,4,3.2,7.2,7.2,7.2h188c4,0,7.2-3.2,7.2-7.2v-178.4c0-4-3.2-7.2-7.2-7.2H284z"/>
	<rect x="275.2" y="18.822" style="fill:#7BD100;" width="207.2" height="82.4"/>
</g>
<g style="opacity:0.4;">
	<circle style="fill:#B1BCBC;" cx="302.4" cy="62.022" r="11.2"/>
</g>
<circle style="fill:#FFFFFF;" cx="302.4" cy="57.222" r="11.2"/>
<path style="fill:#E8EFEE;" d="M294.4,49.222c4-4,11.2-4,16,0c4,4,4,11.2,0,16"/>
<g style="opacity:0.4;">
	<circle style="fill:#B1BCBC;" cx="346.4" cy="62.022" r="11.2"/>
</g>
<circle style="fill:#FFFFFF;" cx="346.4" cy="57.222" r="11.2"/>
<path style="fill:#E8EFEE;" d="M338.4,49.222c4-4,11.2-4,16,0c4,4,4,11.2,0,16"/>
<g style="opacity:0.4;">
	<circle style="fill:#B1BCBC;" cx="390.4" cy="62.022" r="11.2"/>
</g>
<circle style="fill:#FFFFFF;" cx="390.4" cy="57.222" r="11.2"/>
<path style="fill:#E8EFEE;" d="M382.4,49.222c4-4,11.2-4,16,0c4,4,4,11.2,0,16"/>
<g>
	<path style="fill:#7BD100;" d="M212,484.422H23.2c-12.8,0-23.2-10.4-23.2-23.2v-178.4c0-12.8,10.4-23.2,23.2-23.2h188
		c12.8,0,23.2,10.4,23.2,23.2v178.4C235.2,474.022,224.8,484.422,212,484.422z M23.2,275.622c-4,0-7.2,3.2-7.2,7.2v178.4
		c0,4,3.2,7.2,7.2,7.2h188c4,0,7.2-3.2,7.2-7.2v-178.4c0-4-3.2-7.2-7.2-7.2H23.2z"/>
	<rect x="13.6" y="267.622" style="fill:#7BD100;" width="207.2" height="82.4"/>
</g>
<g style="opacity:0.4;">
	<circle style="fill:#B1BCBC;" cx="41.6" cy="310.822" r="11.2"/>
</g>
<circle style="fill:#FFFFFF;" cx="41.6" cy="306.822" r="11.2"/>
<path style="fill:#E8EFEE;" d="M33.6,298.822c4-4,11.2-4,16,0c4,4,4,11.2,0,16"/>
<g style="opacity:0.4;">
	<circle style="fill:#B1BCBC;" cx="85.6" cy="310.822" r="11.2"/>
</g>
<circle style="fill:#FFFFFF;" cx="85.6" cy="306.822" r="11.2"/>
<path style="fill:#E8EFEE;" d="M77.6,298.822c4-4,11.2-4,16,0c4,4,4,11.2,0,16"/>
<g style="opacity:0.4;">
	<circle style="fill:#B1BCBC;" cx="129.6" cy="310.822" r="11.2"/>
</g>
<circle style="fill:#FFFFFF;" cx="129.6" cy="306.822" r="11.2"/>
<path style="fill:#E8EFEE;" d="M121.6,298.822c4-4,11.2-4,16,0c4,4,4,11.2,0,16"/>
<g>
	<path style="fill:#7BD100;" d="M472.8,484.422H284c-12.8,0-23.2-10.4-23.2-23.2v-178.4c0-12.8,10.4-23.2,23.2-23.2h188
		c12.8,0,23.2,10.4,23.2,23.2v178.4C496,474.022,485.6,484.422,472.8,484.422z M284,275.622c-4,0-7.2,3.2-7.2,7.2v178.4
		c0,4,3.2,7.2,7.2,7.2h188c4,0,7.2-3.2,7.2-7.2v-178.4c0-4-3.2-7.2-7.2-7.2H284z"/>
	<rect x="275.2" y="267.622" style="fill:#7BD100;" width="207.2" height="82.4"/>
</g>
<g style="opacity:0.4;">
	<circle style="fill:#B1BCBC;" cx="302.4" cy="310.822" r="11.2"/>
</g>
<circle style="fill:#FFFFFF;" cx="302.4" cy="306.822" r="11.2"/>
<path style="fill:#E8EFEE;" d="M294.4,298.822c4-4,11.2-4,16,0c4,4,4,11.2,0,16"/>
<g style="opacity:0.4;">
	<circle style="fill:#B1BCBC;" cx="346.4" cy="310.822" r="11.2"/>
</g>
<circle style="fill:#FFFFFF;" cx="346.4" cy="306.822" r="11.2"/>
<path style="fill:#E8EFEE;" d="M338.4,298.822c4-4,11.2-4,16,0c4,4,4,11.2,0,16"/>
<g style="opacity:0.4;">
	<circle style="fill:#B1BCBC;" cx="390.4" cy="310.822" r="11.2"/>
</g>
<circle style="fill:#FFFFFF;" cx="390.4" cy="306.822" r="11.2"/>
<path style="fill:#E8EFEE;" d="M382.4,298.822c4-4,11.2-4,16,0c4,4,4,11.2,0,16"/>
<g>
</g>
<g>
</g>
<g>
</g>
<g>
</g>
<g>
</g>
<g>
</g>
<g>
</g>
<g>
</g>
<g>
</g>
<g>
</g>
<g>
</g>
<g>
</g>
<g>
</g>
<g>
</g>
<g>
</g>
</svg>
