<?xml version="1.0" encoding="iso-8859-1"?>
<!-- Generator: Adobe Illustrator 19.0.0, SVG Export Plug-In . SVG Version: 6.00 Build 0)  -->
<svg version="1.1" id="Layer_1" xmlns="http://www.w3.org/2000/svg" xmlns:xlink="http://www.w3.org/1999/xlink" x="0px" y="0px"
	 viewBox="0 0 480 480" style="enable-background:new 0 0 480 480;" xml:space="preserve">
<g>
	<path style="fill:#0097F4;" d="M456.8,480H23.2C10.4,480,0,469.6,0,456.8V23.2C0,10.4,10.4,0,23.2,0H456c13.6,0,24,10.4,24,23.2
		V456C480,469.6,469.6,480,456.8,480z M23.2,16c-4,0-7.2,3.2-7.2,7.2V456c0,4.8,3.2,8,7.2,8H456c4,0,7.2-3.2,7.2-7.2V23.2
		c0.8-4-2.4-7.2-6.4-7.2H23.2z"/>
	<rect x="16" y="8" style="fill:#0097F4;" width="448" height="80"/>
</g>
<g style="opacity:0.4;">
	<circle style="fill:#B1BCBC;" cx="40.8" cy="50.4" r="11.2"/>
</g>
<circle style="fill:#FFFFFF;" cx="40.8" cy="46.4" r="11.2"/>
<path style="fill:#E8EFEE;" d="M32.8,38.4c4-4,11.2-4,16,0c4,4,4,11.2,0,16"/>
<g style="opacity:0.4;">
	<circle style="fill:#B1BCBC;" cx="84.8" cy="50.4" r="11.2"/>
</g>
<circle style="fill:#FFFFFF;" cx="84.8" cy="46.4" r="11.2"/>
<path style="fill:#E8EFEE;" d="M76.8,38.4c4-4,11.2-4,16,0c4,4,4,11.2,0,16"/>
<g style="opacity:0.4;">
	<circle style="fill:#B1BCBC;" cx="128.8" cy="50.4" r="11.2"/>
</g>
<circle style="fill:#FFFFFF;" cx="128.8" cy="46.4" r="11.2"/>
<path style="fill:#E8EFEE;" d="M120.8,38.4c4-4,11.2-4,16,0c4,4,4,11.2,0,16"/>
<g>
	<path style="fill:#0097F4;" d="M472,176H8c-4.8,0-8-3.2-8-8s3.2-8,8-8h464c4.8,0,8,3.2,8,8S476.8,176,472,176z"/>
	<path style="fill:#0097F4;" d="M152,480c-4.8,0-8-3.2-8-8V168c0-4.8,3.2-8,8-8s8,3.2,8,8v304C160,476.8,156.8,480,152,480z"/>
	<path style="fill:#0097F4;" d="M472,328H152c-4.8,0-8-3.2-8-8s3.2-8,8-8h320c4.8,0,8,3.2,8,8S476.8,328,472,328z"/>
</g>
<g>
</g>
<g>
</g>
<g>
</g>
<g>
</g>
<g>
</g>
<g>
</g>
<g>
</g>
<g>
</g>
<g>
</g>
<g>
</g>
<g>
</g>
<g>
</g>
<g>
</g>
<g>
</g>
<g>
</g>
</svg>
