<?xml version="1.0" encoding="iso-8859-1"?>
<!-- Generator: Adobe Illustrator 19.0.0, SVG Export Plug-In . SVG Version: 6.00 Build 0)  -->
<svg version="1.1" id="Layer_1" xmlns="http://www.w3.org/2000/svg" xmlns:xlink="http://www.w3.org/1999/xlink" x="0px" y="0px"
	 viewBox="0 0 480 480" style="enable-background:new 0 0 480 480;" xml:space="preserve">
<g>
	<path style="fill:#7BD100;" d="M204.8,480H27.2C14.4,480,4,469.6,4,456.8V23.2C4,10.4,14.4,0,27.2,0H204c13.6,0,24,10.4,24,23.2
		V456C228,469.6,217.6,480,204.8,480z M27.2,16c-4,0-7.2,3.2-7.2,7.2V456c0,4.8,3.2,8,7.2,8H204c4,0,7.2-3.2,7.2-7.2V23.2
		c0.8-4-2.4-7.2-6.4-7.2H27.2z"/>
	<rect x="20" y="8" style="fill:#7BD100;" width="200" height="80"/>
</g>
<g style="opacity:0.4;">
	<circle style="fill:#B1BCBC;" cx="48" cy="50.4" r="11.2"/>
</g>
<circle style="fill:#FFFFFF;" cx="48" cy="46.4" r="11.2"/>
<path style="fill:#E8EFEE;" d="M40,38.4c4-4,11.2-4,16,0c4,4,4,11.2,0,16"/>
<g style="opacity:0.4;">
	<circle style="fill:#B1BCBC;" cx="92" cy="50.4" r="11.2"/>
</g>
<circle style="fill:#FFFFFF;" cx="92" cy="46.4" r="11.2"/>
<path style="fill:#E8EFEE;" d="M84,38.4c4-4,11.2-4,16,0c4,4,4,11.2,0,16"/>
<g style="opacity:0.4;">
	<circle style="fill:#B1BCBC;" cx="136" cy="50.4" r="11.2"/>
</g>
<circle style="fill:#FFFFFF;" cx="136" cy="46.4" r="11.2"/>
<path style="fill:#E8EFEE;" d="M128,38.4c4-4,11.2-4,16,0c4,4,4,11.2,0,16"/>
<g>
	<path style="fill:#7BD100;" d="M452.8,480H275.2c-12.8,0-23.2-10.4-23.2-23.2V23.2C252,10.4,262.4,0,275.2,0H452
		c13.6,0,24,10.4,24,23.2V456C476,469.6,465.6,480,452.8,480z M275.2,16c-4,0-7.2,3.2-7.2,7.2V456c0,4,3.2,7.2,7.2,7.2H452
		c4,0,7.2-3.2,7.2-7.2V23.2c0.8-4-2.4-7.2-6.4-7.2H275.2z"/>
	<rect x="260" y="8" style="fill:#7BD100;" width="208" height="80"/>
</g>
<g style="opacity:0.4;">
	<circle style="fill:#B1BCBC;" cx="295.2" cy="50.4" r="11.2"/>
</g>
<circle style="fill:#FFFFFF;" cx="295.2" cy="46.4" r="11.2"/>
<path style="fill:#E8EFEE;" d="M287.2,38.4c4-4,11.2-4,16,0c4,4,4,11.2,0,16"/>
<g style="opacity:0.4;">
	<circle style="fill:#B1BCBC;" cx="339.2" cy="50.4" r="11.2"/>
</g>
<circle style="fill:#FFFFFF;" cx="339.2" cy="46.4" r="11.2"/>
<path style="fill:#E8EFEE;" d="M331.2,38.4c4-4,11.2-4,16,0c4,4,4,11.2,0,16"/>
<g style="opacity:0.4;">
	<circle style="fill:#B1BCBC;" cx="383.2" cy="50.4" r="11.2"/>
</g>
<circle style="fill:#FFFFFF;" cx="383.2" cy="46.4" r="11.2"/>
<path style="fill:#E8EFEE;" d="M375.2,38.4c4-4,11.2-4,16,0c4,4,4,11.2,0,16"/>
<g>
</g>
<g>
</g>
<g>
</g>
<g>
</g>
<g>
</g>
<g>
</g>
<g>
</g>
<g>
</g>
<g>
</g>
<g>
</g>
<g>
</g>
<g>
</g>
<g>
</g>
<g>
</g>
<g>
</g>
</svg>
