<?xml version="1.0" encoding="iso-8859-1"?>
<!-- Generator: Adobe Illustrator 19.0.0, SVG Export Plug-In . SVG Version: 6.00 Build 0)  -->
<svg version="1.1" id="Layer_1" xmlns="http://www.w3.org/2000/svg" xmlns:xlink="http://www.w3.org/1999/xlink" x="0px" y="0px"
	 viewBox="0 0 480 480" style="enable-background:new 0 0 480 480;" xml:space="preserve">
<g>
	<path style="fill:#7BD100;" d="M456.8,232H23.2C10.4,232,0,221.6,0,208.8V23.2C0,10.4,10.4,0,23.2,0H456c13.6,0,24,10.4,24,23.2
		V208C480,221.6,469.6,232,456.8,232z M23.2,16c-4,0-7.2,3.2-7.2,7.2V208c0,4.8,3.2,8,7.2,8H456c4,0,7.2-3.2,7.2-7.2V23.2
		c0.8-4-2.4-7.2-6.4-7.2H23.2z"/>
	<rect x="16" y="8" style="fill:#7BD100;" width="448" height="80"/>
</g>
<g style="opacity:0.4;">
	<circle style="fill:#B1BCBC;" cx="40.8" cy="49.6" r="11.2"/>
</g>
<circle style="fill:#FFFFFF;" cx="40.8" cy="45.6" r="11.2"/>
<path style="fill:#E8EFEE;" d="M32.8,37.6c4-4,11.2-4,16,0c4,4,4,11.2,0,16"/>
<g style="opacity:0.4;">
	<circle style="fill:#B1BCBC;" cx="84.8" cy="49.6" r="11.2"/>
</g>
<circle style="fill:#FFFFFF;" cx="84.8" cy="45.6" r="11.2"/>
<path style="fill:#E8EFEE;" d="M76.8,37.6c4-4,11.2-4,16,0c4,4,4,11.2,0,16"/>
<g style="opacity:0.4;">
	<circle style="fill:#B1BCBC;" cx="128.8" cy="49.6" r="11.2"/>
</g>
<circle style="fill:#FFFFFF;" cx="128.8" cy="45.6" r="11.2"/>
<path style="fill:#E8EFEE;" d="M120.8,37.6c4-4,11.2-4,16,0c4,4,4,11.2,0,16"/>
<g>
	<path style="fill:#7BD100;" d="M456.8,480H23.2C10.4,480,0,469.6,0,456.8V271.2C0,258.4,10.4,248,23.2,248H456
		c12.8,0,23.2,10.4,23.2,23.2V456C480,469.6,469.6,480,456.8,480z M23.2,264c-4,0-7.2,3.2-7.2,7.2V456c0,4.8,3.2,8,7.2,8H456
		c4,0,7.2-3.2,7.2-7.2V271.2c0-4-3.2-7.2-7.2-7.2H23.2z"/>
	<rect x="16" y="256" style="fill:#7BD100;" width="448" height="80"/>
</g>
<g style="opacity:0.4;">
	<circle style="fill:#B1BCBC;" cx="40.8" cy="300" r="11.2"/>
</g>
<circle style="fill:#FFFFFF;" cx="40.8" cy="295.2" r="11.2"/>
<path style="fill:#E8EFEE;" d="M32.8,287.2c4-4,11.2-4,16,0c4,4,4,11.2,0,16"/>
<g style="opacity:0.4;">
	<circle style="fill:#B1BCBC;" cx="84.8" cy="300" r="11.2"/>
</g>
<circle style="fill:#FFFFFF;" cx="84.8" cy="295.2" r="11.2"/>
<path style="fill:#E8EFEE;" d="M76.8,287.2c4-4,11.2-4,16,0c4,4,4,11.2,0,16"/>
<g style="opacity:0.4;">
	<circle style="fill:#B1BCBC;" cx="128.8" cy="300" r="11.2"/>
</g>
<circle style="fill:#FFFFFF;" cx="128.8" cy="295.2" r="11.2"/>
<path style="fill:#E8EFEE;" d="M120.8,287.2c4-4,11.2-4,16,0c4,4,4,11.2,0,16"/>
<g>
</g>
<g>
</g>
<g>
</g>
<g>
</g>
<g>
</g>
<g>
</g>
<g>
</g>
<g>
</g>
<g>
</g>
<g>
</g>
<g>
</g>
<g>
</g>
<g>
</g>
<g>
</g>
<g>
</g>
</svg>
