<?xml version="1.0" encoding="iso-8859-1"?>
<!-- Generator: Adobe Illustrator 19.0.0, SVG Export Plug-In . SVG Version: 6.00 Build 0)  -->
<svg version="1.1" id="Layer_1" xmlns="http://www.w3.org/2000/svg" xmlns:xlink="http://www.w3.org/1999/xlink" x="0px" y="0px"
	 viewBox="0 0 448 448" style="enable-background:new 0 0 448 448;" xml:space="preserve">
<path style="fill:#B8BFBE;" d="M184.815,61.6c0-29.6-24-53.6-53.6-53.6h-45.6c-28.8,0-52.8,24-52.8,53.6v45.6
	c0,28.8,24,52.8,53.6,52.8h45.6c29.6,0,53.6-24,53.6-53.6V61.6H184.815z"/>
<path style="fill:#FFFFFF;" d="M168.815,380.8c0,24-19.2,43.2-43.2,43.2h-40.8c-24,0-43.2-19.2-43.2-43.2V340
	c0-24,19.2-43.2,43.2-43.2h40.8c24,0,43.2,19.2,43.2,43.2V380.8z"/>
<g>
	<path style="fill:#B8BFBE;" d="M131.215,312c18.4,0,29.6,9.6,29.6,28v44c0,18.4-11.2,32-29.6,32h-44.8c-18.4,0-30.4-13.6-30.4-32
		v-44.8c0-18.4,11.2-28,30.4-28h42.4 M131.215,288h-44.8c-28.8,0-53.6,22.4-53.6,52v44c0,29.6,24.8,56,54.4,56h44.8
		c29.6,0,53.6-26.4,53.6-56v-44.8C184.815,310.4,160.815,288,131.215,288L131.215,288z"/>
	<path style="fill:#B8BFBE;" d="M352.815,9.6c-2.4-5.6-8-9.6-14.4-9.6s-12,4-14.4,9.6l-61.6,139.2c-3.2,8,0,17.6,8,21.6
		s17.6,0,21.6-8l46.4-106.4l14.4,33.6c-8,1.6-13.6,7.2-13.6,15.2c0,8.8,7.2,15.2,16,15.2h11.2l18.4,41.6c2.4,5.6,8.8,9.6,14.4,9.6
		c2.4,0,4.8,0,6.4-1.6c8-4,12-12.8,8-20.8L352.815,9.6z"/>
</g>
<path style="fill:#6C7A7A;" d="M392.815,376c-8.8,0-16,7.2-16,16v4.8c0,10.4-11.2,20-21.6,20h-50.4v-40h41.6
	c26.4,0,46.4-20.8,46.4-47.2v-4c0-26.4-20-44.8-46.4-44.8h-16c-8.8,0-16,7.2-16,16s7.2,16,16,16h16c8.8,0,14.4,4,14.4,12.8v4
	c0,8.8-5.6,15.2-14.4,15.2h-41.6v-52c0-8.8-7.2-16-16-16s-16,7.2-16,16V432c0,8.8,4,16,12.8,16h68.8c28,0,53.6-23.2,53.6-52v-4
	C408.815,383.2,401.615,376,392.815,376z"/>
<polyline style="fill:#9FAAA9;" points="68.815,86.4 93.615,110.4 148.815,55.2 "/>
<path style="fill:#FFFFFF;" d="M93.615,131.2L58.415,96c-5.6-5.6-5.6-15.2,0-20.8c5.6-5.6,15.2-5.6,20.8,0l14.4,14.4l44.8-44.8
	c5.6-5.6,15.2-5.6,20.8,0s5.6,15.2,0,20.8L93.615,131.2z"/>
<g>
</g>
<g>
</g>
<g>
</g>
<g>
</g>
<g>
</g>
<g>
</g>
<g>
</g>
<g>
</g>
<g>
</g>
<g>
</g>
<g>
</g>
<g>
</g>
<g>
</g>
<g>
</g>
<g>
</g>
</svg>
