<?xml version="1.0" encoding="iso-8859-1"?>
<!-- Generator: Adobe Illustrator 19.0.0, SVG Export Plug-In . SVG Version: 6.00 Build 0)  -->
<svg version="1.1" id="Layer_1" xmlns="http://www.w3.org/2000/svg" xmlns:xlink="http://www.w3.org/1999/xlink" x="0px" y="0px"
	 viewBox="0 0 443.2 443.2" style="enable-background:new 0 0 443.2 443.2;" xml:space="preserve">
<path style="fill:#FFFFFF;" d="M166.015,384c0,24-19.2,43.2-43.2,43.2h-40.8c-24,0-43.2-19.2-43.2-43.2v-40.8
	c0-24,19.2-43.2,43.2-43.2h40.8c24,0,43.2,19.2,43.2,43.2V384z"/>
<path style="fill:#B8BFBE;" d="M128.415,307.2c18.4,0,29.6,13.6,29.6,32V384c0,18.4-11.2,27.2-29.6,27.2h-44.8
	c-18.4,0-30.4-8.8-30.4-27.2v-44.8c0-18.4,11.2-32,30.4-32h42.4 M128.415,283.2h-44.8c-28.8,0-53.6,26.4-53.6,56V384
	c0,29.6,24.8,51.2,54.4,51.2h44.8c29.6,0,53.6-22.4,53.6-51.2v-44.8C182.015,309.6,158.015,283.2,128.415,283.2L128.415,283.2z"/>
<path style="fill:#FFFFFF;" d="M166.015,104c0,24-19.2,43.2-43.2,43.2h-40.8c-24,0-43.2-19.2-43.2-43.2V63.2
	c0-24,19.2-43.2,43.2-43.2h40.8c24,0,43.2,19.2,43.2,43.2V104z"/>
<g>
	<path style="fill:#B8BFBE;" d="M182.015,64.8c0-29.6-24-53.6-53.6-53.6h-45.6c-28.8,0-52.8,24-52.8,53.6v45.6
		c0,28.8,24,52.8,53.6,52.8h45.6c29.6,0,53.6-24,53.6-53.6V64.8H182.015z M150.015,104c0,16-9.6,27.2-24.8,27.2h-37.6
		c-16,0-25.6-11.2-25.6-27.2V66.4c0-16,9.6-23.2,25.6-23.2h37.6c16,0,24.8,8,24.8,23.2V104z"/>
	<path style="fill:#B8BFBE;" d="M350.015,9.6c-2.4-5.6-8-9.6-14.4-9.6s-12,4-14.4,9.6l-61.6,139.2c-3.2,8,0,17.6,8,21.6
		s17.6,0,21.6-8l47.2-106.4l14.4,33.6c-8,1.6-13.6,8.8-13.6,16.8c0,8.8,7.2,17.6,16,17.6h11.2l18.4,40c2.4,5.6,8.8,8.8,14.4,8.8
		c2.4,0,4.8-0.8,6.4-1.6c8-4,12-13.6,8-21.6L350.015,9.6z"/>
</g>
<path style="fill:#6C7A7A;" d="M390.015,375.2c-8.8,0-16,7.2-16,16v4.8c0,10.4-11.2,15.2-21.6,15.2h-50.4v-32h41.6
	c26.4,0,46.4-24.8,46.4-51.2v-4c0-26.4-20-48.8-46.4-48.8h-16c-8.8,0-16,7.2-16,16s7.2,16,16,16h16c8.8,0,14.4,8,14.4,16.8v4
	c0,8.8-5.6,19.2-14.4,19.2h-41.6V292c0-8.8-7.2-16-16-16s-16,7.2-16,16v139.2c0,8.8,4,12,12.8,12h68.8c28,0,53.6-19.2,53.6-47.2
	v-4.8C406.015,382.4,398.815,375.2,390.015,375.2z"/>
<g>
</g>
<g>
</g>
<g>
</g>
<g>
</g>
<g>
</g>
<g>
</g>
<g>
</g>
<g>
</g>
<g>
</g>
<g>
</g>
<g>
</g>
<g>
</g>
<g>
</g>
<g>
</g>
<g>
</g>
</svg>
