<?xml version="1.0" encoding="iso-8859-1"?>
<!-- Generator: Adobe Illustrator 19.0.0, SVG Export Plug-In . SVG Version: 6.00 Build 0)  -->
<svg version="1.1" id="Layer_1" xmlns="http://www.w3.org/2000/svg" xmlns:xlink="http://www.w3.org/1999/xlink" x="0px" y="0px"
	 viewBox="0 0 448 448" style="enable-background:new 0 0 448 448;" xml:space="preserve">
<g>
	<path style="fill:#6C7A7A;" d="M350.815,9.6c-2.4-5.6-8-9.6-14.4-9.6s-12,4-14.4,9.6l-61.6,139.2c-3.2,8,0,17.6,8,21.6
		s17.6,0,21.6-8l46.4-106.4l14.4,33.6c-8,1.6-13.6,7.2-13.6,15.2c0,8.8,7.2,15.2,16,15.2h11.2l18.4,41.6c2.4,5.6,8.8,9.6,14.4,9.6
		c2.4,0,4.8,0,6.4-1.6c8-4,12-12.8,8-20.8L350.815,9.6z"/>
	<path style="fill:#6C7A7A;" d="M392.415,376c-8.8,0-16,7.2-16,16v4.8c0,10.4-12.8,20-23.2,20h-56.8v-40h48c26.4,0,48-20.8,48-47.2
		v-4c0-26.4-21.6-44.8-48-44.8h-16c-8.8,0-16,7.2-16,16s7.2,16,16,16h16c8.8,0,16,4,16,12.8v4c0,8.8-7.2,15.2-16,15.2h-48v-52
		c0-8.8-7.2-16-16-16s-16,7.2-16,16V432c0,8.8,11.2,16,20,16h68.8c28,0,55.2-23.2,55.2-52v-4C408.415,383.2,401.215,376,392.415,376
		z"/>
</g>
<path style="fill:#FFFFFF;" d="M99.615,415.2c-29.6,0-52.8-24-52.8-52.8c0-29.6,24-52.8,52.8-52.8c29.6,0,52.8,24,52.8,52.8
	S128.415,415.2,99.615,415.2z"/>
<path style="fill:#B8BFBE;" d="M99.615,320.8c22.4,0,40.8,18.4,40.8,40.8s-18.4,40.8-40.8,40.8s-40.8-18.4-40.8-40.8
	S77.215,320.8,99.615,320.8 M99.615,296.8c-36,0-64.8,28.8-64.8,64.8s28.8,64.8,64.8,64.8s64.8-28.8,64.8-64.8
	C164.415,326.4,135.615,296.8,99.615,296.8L99.615,296.8z"/>
<path style="fill:#FFFFFF;" d="M99.615,127.2c-22.4,0-40.8-18.4-40.8-40.8s18.4-40.8,40.8-40.8s40.8,18.4,40.8,40.8
	S122.015,127.2,99.615,127.2z"/>
<path style="fill:#1BCEB8;" d="M99.615,68.8c9.6,0,16.8,8,16.8,16.8s-8,16.8-16.8,16.8s-16.8-8-16.8-16.8S90.015,68.8,99.615,68.8
	 M99.615,20.8c-36,0-64.8,28.8-64.8,64.8s28.8,64.8,64.8,64.8s64.8-28.8,64.8-64.8C164.415,50.4,135.615,20.8,99.615,20.8
	L99.615,20.8z"/>
<g>
</g>
<g>
</g>
<g>
</g>
<g>
</g>
<g>
</g>
<g>
</g>
<g>
</g>
<g>
</g>
<g>
</g>
<g>
</g>
<g>
</g>
<g>
</g>
<g>
</g>
<g>
</g>
<g>
</g>
</svg>
