<?xml version="1.0" encoding="iso-8859-1"?>
<!-- Generator: Adobe Illustrator 19.0.0, SVG Export Plug-In . SVG Version: 6.00 Build 0)  -->
<svg version="1.1" id="Layer_1" xmlns="http://www.w3.org/2000/svg" xmlns:xlink="http://www.w3.org/1999/xlink" x="0px" y="0px"
	 viewBox="0 0 496.8 496.8" style="enable-background:new 0 0 496.8 496.8;" xml:space="preserve">
<path style="fill:#E5420A;" d="M36,16.6c-19.2,0-36,16-36,35.2v252C0,323,16.8,339,36,339s36-16,36-35.2v-252
	C72,32.6,55.2,16.6,36,16.6z"/>
<path style="fill:#363F3E;" d="M493.6,299.8L455.2,327c-0.8,0.8-2.4,1.6-3.2,1.6H284l47.2,56.8c0.8,0.8,0.8,0.8,0.8,1.6l22.4,69.6
	c0.8,2.4,0,4.8-1.6,6.4l-17.6,16c-2.4,1.6-5.6,1.6-8,0l-220-188.8c-1.6-0.8-3.2-2.4-3.2-4V60.6c0-3.2,41.6-20,44.8-20.8l34.4-8
	l184.8-8l0,0c0.8,0,1.6,0,2.4,0.8l43.2,20c0.8,0,1.6,0.8,1.6,1.6l25.6,25.6c1.6,1.6,1.6,3.2,1.6,4.8l-2.4,20l24.8,26.4
	c0.8,0.8,1.6,1.6,1.6,3.2l4.8,31.2c0,1.6,0,3.2-0.8,4l-11.2,15.2L476,187c1.6,0.8,2.4,2.4,2.4,4l4.8,32.8c0,1.6,0,4-1.6,4.8
	l-11.2,11.2l20,19.2c0.8,0.8,1.6,2.4,1.6,3.2l4.8,30.4C496,295.8,495.2,298.2,493.6,299.8z"/>
<path d="M455.2,326.2c-0.8,0.8-2.4,1.6-3.2,1.6H284l47.2,56.8c0.8,0.8,0.8,0.8,0.8,1.6l22.4,69.6c0.8,2.4,0,4.8-1.6,6.4l-17.6,16
	c-2.4,1.6-5.6,1.6-8,0L151.2,327L424,54.2L440.8,71c1.6,1.6,1.6,3.2,1.6,4.8L440,96.6l24.8,26.4c0.8,0.8,1.6,1.6,1.6,3.2l4.8,31.2
	c0,1.6,0,3.2-0.8,4l-11.2,15.2L476,187c1.6,0.8,2.4,2.4,2.4,4l4.8,32.8c0,1.6,0,4-1.6,4.8l-11.2,11.2l20,19.2
	c0.8,0.8,1.6,2.4,1.6,3.2l4.8,30.4c0,2.4-0.8,4.8-2.4,5.6L455.2,326.2z"/>
<path style="fill:#C11F05;" d="M36,339c-19.2,0-36-16-36-35.2V166.2L72,95v208C72,323,55.2,339,36,339z"/>
<circle style="fill:#FFFFFF;" cx="35.2" cy="299.8" r="8.8"/>
<g>
</g>
<g>
</g>
<g>
</g>
<g>
</g>
<g>
</g>
<g>
</g>
<g>
</g>
<g>
</g>
<g>
</g>
<g>
</g>
<g>
</g>
<g>
</g>
<g>
</g>
<g>
</g>
<g>
</g>
</svg>
