<?xml version="1.0" encoding="iso-8859-1"?>
<!-- Generator: Adobe Illustrator 19.0.0, SVG Export Plug-In . SVG Version: 6.00 Build 0)  -->
<svg version="1.1" id="Layer_1" xmlns="http://www.w3.org/2000/svg" xmlns:xlink="http://www.w3.org/1999/xlink" x="0px" y="0px"
	 viewBox="0 0 496.4 496.4" style="enable-background:new 0 0 496.4 496.4;" xml:space="preserve">
<g>
	<path style="fill:#C6C6C6;" d="M400.8,412.8c-3.2,0-6.4-1.6-8.8-4l-48-48c-4.8-4.8-4.8-12.8,0-17.6c4.8-4.8,12.8-4.8,17.6,0l48,48
		c4.8,4.8,4.8,12.8,0,17.6C407.2,412,404,412.8,400.8,412.8z"/>
	<path style="fill:#C6C6C6;" d="M208,416C93.6,416,0,323.2,0,208C0,93.6,93.6,0,208,0s208,93.6,208,208C416,323.2,323.2,416,208,416
		z M208,33.6C112,33.6,33.6,112,33.6,208c0,96.8,78.4,175.2,174.4,175.2c96.8,0,175.2-78.4,175.2-175.2
		C383.2,112,304.8,33.6,208,33.6z"/>
</g>
<path style="fill:#B5B5B5;" d="M208,0L208,0v33.6l0,0c96.8,0,175.2,78.4,175.2,174.4c0,96.8-78.4,175.2-175.2,175.2l0,0V416l0,0
	c114.4,0,208-93.6,208-208S323.2,0,208,0z"/>
<path style="fill:#B761C6;" d="M488,448c11.2,11.2,11.2,28.8,0,40l0,0c-11.2,11.2-28.8,11.2-40,0l-73.6-73.6
	c-11.2-11.2-11.2-28.8,0-40l0,0c11.2-11.2,28.8-11.2,40,0L488,448z"/>
<path style="fill:#9C44B2;" d="M414.4,374.4L488,448c11.2,11.2,11.2,28.8,0,40l0,0c-11.2,11.2-28.8,11.2-40,0"/>
<path style="fill:#B761C6;" d="M392.8,208c0,101.6-82.4,184-184,184s-184-82.4-184-184C24,106.4,106.4,24,208,24
	S392.8,106.4,392.8,208z"/>
<path style="fill:#9C44B2;" d="M208,24c101.6,0,184,82.4,184,184s-82.4,184-184,184"/>
<path style="fill:#AA53BC;" d="M77.6,77.6c72-72,188.8-72,260.8,0s72,188.8,0,260.8"/>
<g>
	<path style="fill:#FFFFFF;" d="M212.8,188H204c-4,0-8-3.2-8-8c0-4,3.2-8,8-8h8.8c4,0,8,3.2,8,8C220.8,184,216.8,188,212.8,188z"/>
	<path style="fill:#FFFFFF;" d="M212.8,244H204c-4,0-8-3.2-8-8s3.2-8,8-8h8.8c4,0,8,3.2,8,8S216.8,244,212.8,244z"/>
	<path style="fill:#FFFFFF;" d="M140.8,279.2c-4,0-8-3.2-8-8v-108L124,172c-3.2,3.2-8,3.2-11.2,0s-3.2-8,0-11.2l22.4-22.4
		c2.4-2.4,5.6-3.2,8.8-1.6c3.2,0.8,4.8,4,4.8,7.2v126.4C148.8,275.2,144.8,279.2,140.8,279.2z"/>
	<path style="fill:#FFFFFF;" d="M164.8,279.2H116c-4,0-8-3.2-8-8c0-4,3.2-8,8-8h48.8c4,0,8,3.2,8,8S168.8,279.2,164.8,279.2z"/>
	<path style="fill:#FFFFFF;" d="M276,279.2c-4,0-8-3.2-8-8v-108l-8.8,8.8c-3.2,3.2-8,3.2-11.2,0c-3.2-3.2-3.2-8,0-11.2l22.4-22.4
		c2.4-2.4,5.6-3.2,8.8-1.6c3.2,0.8,4.8,4,4.8,7.2v126.4C283.2,275.2,280,279.2,276,279.2z"/>
	<path style="fill:#FFFFFF;" d="M300,279.2h-48.8c-4,0-8-3.2-8-8c0-4,3.2-8,8-8H300c4,0,8,3.2,8,8S304,279.2,300,279.2z"/>
</g>
<g>
</g>
<g>
</g>
<g>
</g>
<g>
</g>
<g>
</g>
<g>
</g>
<g>
</g>
<g>
</g>
<g>
</g>
<g>
</g>
<g>
</g>
<g>
</g>
<g>
</g>
<g>
</g>
<g>
</g>
</svg>
