<?xml version="1.0" encoding="iso-8859-1"?>
<!-- Generator: Adobe Illustrator 19.0.0, SVG Export Plug-In . SVG Version: 6.00 Build 0)  -->
<svg version="1.1" id="Layer_1" xmlns="http://www.w3.org/2000/svg" xmlns:xlink="http://www.w3.org/1999/xlink" x="0px" y="0px"
	 viewBox="0 0 502.4 502.4" style="enable-background:new 0 0 502.4 502.4;" xml:space="preserve">
<polygon style="fill:#CC157A;" points="291.2,363.2 291.2,502.4 416.8,373.6 "/>
<path style="fill:#F93E9C;" d="M251.2,0c-130.4,0-236,97.6-236,218.4s105.6,218.4,236,218.4s236-97.6,236-218.4S381.6,0,251.2,0z"/>
<path style="fill:#E83888;" d="M15.2,218.4c0,120.8,105.6,218.4,236,218.4s236-97.6,236-218.4S381.6,0,251.2,0"/>
<path style="fill:#D8217D;" d="M324,161.6l-74.4,144l107.2,107.2c49.6-23.2,88.8-60.8,110.4-108L324,161.6z"/>
<path style="fill:#FFFFFF;" d="M322.4,160c-25.6-26.4-56.8-6.4-71.2,8.8c-14.4-16-45.6-35.2-71.2-8.8c-34.4,34.4,2.4,69.6,2.4,69.6
	l68.8,77.6v0.8l0,0l0,0v-0.8l68.8-77.6C320,229.6,356.8,194.4,322.4,160z"/>
<path style="fill:#EFDFE8;" d="M251.2,307.2v0.8V307.2v0.8V307.2l68.8-77.6c0,0,36-35.2,2.4-69.6c-25.6-26.4-56.8-7.2-71.2,8.8"/>
<g>
</g>
<g>
</g>
<g>
</g>
<g>
</g>
<g>
</g>
<g>
</g>
<g>
</g>
<g>
</g>
<g>
</g>
<g>
</g>
<g>
</g>
<g>
</g>
<g>
</g>
<g>
</g>
<g>
</g>
</svg>
