<?xml version="1.0" encoding="iso-8859-1"?>
<!-- Generator: Adobe Illustrator 19.0.0, SVG Export Plug-In . SVG Version: 6.00 Build 0)  -->
<svg version="1.1" id="Layer_1" xmlns="http://www.w3.org/2000/svg" xmlns:xlink="http://www.w3.org/1999/xlink" x="0px" y="0px"
	 viewBox="0 0 496 496" style="enable-background:new 0 0 496 496;" xml:space="preserve">
<path style="fill:#DD2A73;" d="M496,320.8c0,96.8-78.4,175.2-175.2,175.2H175.2C78.4,496,0,417.6,0,320.8V175.2
	C0,78.4,78.4,0,175.2,0h145.6C417.6,0,496,78.4,496,175.2V320.8z"/>
<path style="fill:#D31C70;" d="M0,175.2C0,78.4,78.4,0,175.2,0h145.6C417.6,0,496,78.4,496,175.2v145.6
	c0,96.8-78.4,175.2-175.2,175.2"/>
<g>
	<path style="fill:#C60E6A;" d="M320.8,0C417.6,0,496,78.4,496,175.2v145.6c0,96.8-78.4,175.2-175.2,175.2"/>
	<path style="fill:#C60E6A;" d="M352,172c0-6.4-5.6-12-12-12H148c-6.4,0-12,5.6-12,12v192.8c0,6.4,5.6,12,12,12h192.8
		c6.4,0,12-5.6,12-12V172H352z M160,352v-96h176v96H160z"/>
</g>
<path style="fill:#FFFFFF;" d="M360,148c0-6.4-5.6-12-12-12H148c-6.4,0-12,5.6-12,12v192.8c0,6.4,5.6,12,12,12h200.8
	c6.4,0,12-5.6,12-12V148H360z M160,328v-96h176v96H160z"/>
<g>
</g>
<g>
</g>
<g>
</g>
<g>
</g>
<g>
</g>
<g>
</g>
<g>
</g>
<g>
</g>
<g>
</g>
<g>
</g>
<g>
</g>
<g>
</g>
<g>
</g>
<g>
</g>
<g>
</g>
</svg>
