<?xml version="1.0" encoding="iso-8859-1"?>
<!-- Generator: Adobe Illustrator 19.0.0, SVG Export Plug-In . SVG Version: 6.00 Build 0)  -->
<svg version="1.1" id="Layer_1" xmlns="http://www.w3.org/2000/svg" xmlns:xlink="http://www.w3.org/1999/xlink" x="0px" y="0px"
	 viewBox="0 0 480.8 480.8" style="enable-background:new 0 0 480.8 480.8;" xml:space="preserve">
<rect x="8" y="8" style="fill:#FFFFFF;" width="464" height="464"/>
<polyline style="fill:#E8EFEE;" points="8,8 472,8 472,472 "/>
<path style="fill:#C8CECE;" d="M480,468c0,6.4-5.6,12-12,12H12c-6.4,0-12-5.6-12-12V12C0,5.6,5.6,0,12,0h456c6.4,0,12,5.6,12,12V468
	z M24,456h432V24H24V456z"/>
<polygon style="fill:#B1BCBC;" points="472,468.8 472,8 11.2,8 23.2,24 456,24 456,456.8 "/>
<path style="fill:#C8CECE;" d="M476,304H311.2c-2.4,0-7.2,4.8-7.2,7.2v165.6c0,2.4,4.8,4,7.2,4h165.6c2.4,0,4-1.6,4-4V311.2
	C480,308.8,478.4,304,476,304z"/>
<path style="fill:#B1BCBC;" d="M472,304H311.2c-0.8,0-0.8,1.6-1.6,2.4L472,468.8V304z"/>
<path style="fill:#1BCEB8;" d="M272,274.4c0-2.4,0-2.4,2.4-2.4H424V67.2c0-4.8-6.4-11.2-11.2-11.2H67.2C62.4,56,56,62.4,56,67.2
	v345.6c0,4.8,6.4,11.2,11.2,11.2H272V274.4z"/>
<path style="fill:#0DBFBA;" d="M412.8,56H67.2c-2.4,0-4.8,2.4-6.4,4l210.4,212c0.8-0.8,1.6,0.8,3.2,0.8H424V67.2
	C424,62.4,417.6,56,412.8,56z"/>
<path style="fill:#B1BCBC;" d="M393.6,436.8l-40-40c-5.6-5.6-5.6-13.6,0-19.2s13.6-5.6,19.2,0l21.6,21.6l21.6-21.6
	c5.6-5.6,13.6-5.6,19.2,0s5.6,13.6,0,19.2L393.6,436.8z"/>
<path style="fill:#FFFFFF;" d="M393.6,424.8l-40-40c-5.6-5.6-5.6-13.6,0-19.2s13.6-5.6,19.2,0l21.6,21.6l21.6-21.6
	c5.6-5.6,13.6-5.6,19.2,0s5.6,13.6,0,19.2L393.6,424.8z"/>
<g>
</g>
<g>
</g>
<g>
</g>
<g>
</g>
<g>
</g>
<g>
</g>
<g>
</g>
<g>
</g>
<g>
</g>
<g>
</g>
<g>
</g>
<g>
</g>
<g>
</g>
<g>
</g>
<g>
</g>
</svg>
