<?xml version="1.0" encoding="iso-8859-1"?>
<!-- Generator: Adobe Illustrator 19.0.0, SVG Export Plug-In . SVG Version: 6.00 Build 0)  -->
<svg version="1.1" id="Layer_1" xmlns="http://www.w3.org/2000/svg" xmlns:xlink="http://www.w3.org/1999/xlink" x="0px" y="0px"
	 viewBox="0 0 481.6 481.6" style="enable-background:new 0 0 481.6 481.6;" xml:space="preserve">
<rect x="12" y="12" style="fill:#FFFFFF;" width="457.6" height="457.6"/>
<polyline style="fill:#E8EFEE;" points="12,12 469.6,12 469.6,469.6 "/>
<path style="fill:#C8CECE;" d="M469.6,481.6H12c-6.4,0-12-5.6-12-12V12C0,5.6,5.6,0,12,0h457.6c6.4,0,12,5.6,12,12v457.6
	C481.6,476,476,481.6,469.6,481.6z M24,457.6h433.6V24H24V457.6z"/>
<polygon style="fill:#B1BCBC;" points="469.6,469.6 469.6,12 12,12 24,24 457.6,24 457.6,457.6 "/>
<path style="fill:#C8CECE;" d="M476.8,307.2H312c-2.4,0-4,1.6-4,4v165.6c0,2.4,1.6,4,4,4h165.6c2.4,0,4-1.6,4-4V312
	C481.6,309.6,479.2,307.2,476.8,307.2z"/>
<g>
	<path style="fill:#B1BCBC;" d="M469.6,307.2H312c-0.8,0-2.4,0.8-3.2,1.6l160.8,160.8V307.2z"/>
	<path style="fill:#B1BCBC;" d="M394.4,437.6l-40-40c-5.6-5.6-5.6-13.6,0-19.2s13.6-5.6,19.2,0l21.6,21.6l21.6-21.6
		c5.6-5.6,13.6-5.6,19.2,0s5.6,13.6,0,19.2L394.4,437.6z"/>
</g>
<path style="fill:#FFFFFF;" d="M394.4,425.6l-40-40c-5.6-5.6-5.6-13.6,0-19.2s13.6-5.6,19.2,0l21.6,21.6l21.6-21.6
	c5.6-5.6,13.6-5.6,19.2,0s5.6,13.6,0,19.2L394.4,425.6z"/>
<path style="fill:#C8CECE;" d="M120,116.8c0,2.4-1.6,4-4,4H63.2c-2.4,0-4-1.6-4-4V64c0-2.4,1.6-4,4-4h53.6c2.4,0,4,1.6,4,4v52.8H120
	z"/>
<path style="fill:#B1BCBC;" d="M116.8,60H63.2c-0.8,0-1.6,0-2.4,0.8l58.4,58.4c0.8-0.8,0.8-1.6,0.8-2.4V64
	C120,61.6,118.4,60,116.8,60z"/>
<path style="fill:#C8CECE;" d="M180,176.8c0,2.4-1.6,4-4,4h-53.6c-2.4,0-4-1.6-4-4v-53.6c0-2.4,1.6-4,4-4H176c2.4,0,4,1.6,4,4
	L180,176.8L180,176.8z"/>
<g>
	<path style="fill:#B1BCBC;" d="M241.6,116.8c0,2.4-1.6,4-4,4H184c-2.4,0-4-1.6-4-4V64c0-2.4,1.6-4,4-4h53.6c2.4,0,4,1.6,4,4V116.8z
		"/>
	<path style="fill:#B1BCBC;" d="M300.8,176.8c0,2.4-1.6,4-4,4h-53.6c-2.4,0-4-1.6-4-4v-53.6c0-2.4,1.6-4,4-4h53.6c2.4,0,4,1.6,4,4
		V176.8z"/>
	<path style="fill:#B1BCBC;" d="M362.4,116.8c0,2.4-1.6,4-4,4h-53.6c-2.4,0-4-1.6-4-4V64c0-2.4,1.6-4,4-4h53.6c2.4,0,4,1.6,4,4
		V116.8z"/>
	<path style="fill:#B1BCBC;" d="M422.4,176.8c0,2.4-1.6,4-4,4h-53.6c-2.4,0-4-1.6-4-4v-53.6c0-2.4,1.6-4,4-4h53.6c2.4,0,4,1.6,4,4
		V176.8z"/>
</g>
<g>
	<path style="fill:#C8CECE;" d="M120,237.6c0,2.4-1.6,4-4,4H63.2c-2.4,0-4-1.6-4-4V184c0-2.4,1.6-4,4-4h53.6c2.4,0,4,1.6,4,4v53.6
		H120z"/>
	<path style="fill:#C8CECE;" d="M180,297.6c0,2.4-1.6,4-4,4h-53.6c-2.4,0-4-1.6-4-4V244c0-2.4,1.6-4,4-4H176c2.4,0,4,1.6,4,4
		L180,297.6L180,297.6z"/>
	<path style="fill:#C8CECE;" d="M241.6,237.6c0,2.4-1.6,4-4,4H184c-2.4,0-4-1.6-4-4V184c0-2.4,1.6-4,4-4h53.6c2.4,0,4,1.6,4,4V237.6
		z"/>
	<path style="fill:#C8CECE;" d="M300.8,244c0-2.4-1.6-4-4-4h-53.6c-2.4,0-4,1.6-4,4v53.6c0,2.4,1.6,4,4,4h26.4v-26.4
		c0-2.4,1.6-4,4-4H300V244H300.8z"/>
</g>
<g>
	<path style="fill:#B1BCBC;" d="M176,119.2h-53.6c-0.8,0-1.6,0-2.4,0.8l58.4,58.4c0.8-0.8,0.8-1.6,0.8-2.4v-53.6
		C180,120.8,178.4,119.2,176,119.2z"/>
	<path style="fill:#B1BCBC;" d="M241.6,184c0-2.4-1.6-4-4-4H184c-0.8,0-1.6,0.8-2.4,0.8l58.4,58.4c0.8-0.8,0.8-1.6,0.8-2.4V184
		H241.6z"/>
	<path style="fill:#B1BCBC;" d="M297.6,240H244c-0.8,0-1.6,0.8-2.4,0.8l30.4,30.4c0.8-0.8,1.6-1.6,3.2-1.6h26.4v-26.4
		C300.8,241.6,299.2,240,297.6,240z"/>
	<path style="fill:#B1BCBC;" d="M362.4,237.6c0,2.4-1.6,4-4,4h-53.6c-2.4,0-4-1.6-4-4V184c0-2.4,1.6-4,4-4h53.6c2.4,0,4,1.6,4,4
		V237.6z"/>
	<path style="fill:#B1BCBC;" d="M422.4,270.4V244c0-2.4-1.6-4-4-4h-53.6c-2.4,0-4,1.6-4,4v26.4H422.4z"/>
</g>
<g>
	<path style="fill:#C8CECE;" d="M120,358.4c0,2.4-1.6,4-4,4H63.2c-2.4,0-4-1.6-4-4v-53.6c0-2.4,1.6-4,4-4h53.6c2.4,0,4,1.6,4,4v53.6
		H120z"/>
	<path style="fill:#C8CECE;" d="M180,417.6c0,2.4-1.6,4-4,4h-53.6c-2.4,0-4-1.6-4-4V364c0-2.4,1.6-4,4-4H176c2.4,0,4,1.6,4,4
		L180,417.6L180,417.6z"/>
	<path style="fill:#C8CECE;" d="M241.6,358.4c0,2.4-1.6,4-4,4H184c-2.4,0-4-1.6-4-4v-53.6c0-2.4,1.6-4,4-4h53.6c2.4,0,4,1.6,4,4
		V358.4z"/>
	<path style="fill:#C8CECE;" d="M270.4,360.8H244c-2.4,0-4,1.6-4,4v53.6c0,2.4,1.6,4,4,4h26.4V360.8z"/>
</g>
<g>
</g>
<g>
</g>
<g>
</g>
<g>
</g>
<g>
</g>
<g>
</g>
<g>
</g>
<g>
</g>
<g>
</g>
<g>
</g>
<g>
</g>
<g>
</g>
<g>
</g>
<g>
</g>
<g>
</g>
</svg>
