<?xml version="1.0" encoding="iso-8859-1"?>
<!-- Generator: Adobe Illustrator 19.0.0, SVG Export Plug-In . SVG Version: 6.00 Build 0)  -->
<svg version="1.1" id="Layer_1" xmlns="http://www.w3.org/2000/svg" xmlns:xlink="http://www.w3.org/1999/xlink" x="0px" y="0px"
	 viewBox="0 0 480 480" style="enable-background:new 0 0 480 480;" xml:space="preserve">
<rect x="8" y="8" style="fill:#FFFFFF;" width="464" height="464"/>
<polyline style="fill:#E8EFEE;" points="8,8 472,8 472,472 "/>
<path style="fill:#C8CECE;" d="M480,468c0,6.4-5.6,12-12,12H12c-6.4,0-12-5.6-12-12V12C0,5.6,5.6,0,12,0h456c6.4,0,12,5.6,12,12V468
	z M24,456h432V24H24V456z"/>
<path style="fill:#4C5654;" d="M100,277.6c-6.4,0-12-5.6-12-12V84c0-6.4,5.6-12,12-12s12,5.6,12,12v181.6
	C112,272,106.4,277.6,100,277.6z"/>
<g>
</g>
<g>
</g>
<g>
</g>
<g>
</g>
<g>
</g>
<g>
</g>
<g>
</g>
<g>
</g>
<g>
</g>
<g>
</g>
<g>
</g>
<g>
</g>
<g>
</g>
<g>
</g>
<g>
</g>
</svg>
