<?xml version="1.0" encoding="iso-8859-1"?>
<!-- Generator: Adobe Illustrator 19.0.0, SVG Export Plug-In . SVG Version: 6.00 Build 0)  -->
<svg version="1.1" id="Layer_1" xmlns="http://www.w3.org/2000/svg" xmlns:xlink="http://www.w3.org/1999/xlink" x="0px" y="0px"
	 viewBox="0 0 482.4 482.4" style="enable-background:new 0 0 482.4 482.4;" xml:space="preserve">
<rect x="12" y="12" style="fill:#FFFFFF;" width="457.6" height="457.6"/>
<polyline style="fill:#E8EFEE;" points="12,12 469.6,12 469.6,469.6 "/>
<path style="fill:#B1BCBC;" d="M469.6,481.6H12c-6.4,0-12-5.6-12-12V12C0,5.6,5.6,0,12,0h457.6c6.4,0,12,5.6,12,12v457.6
	C481.6,476,476,481.6,469.6,481.6z M24,457.6h433.6V24H24V457.6z"/>
<path id="SVGCleanerId_0" style="fill:#FFFFFF;" d="M16.8,473.6C12,473.6,8,467.2,8,460v-67.2c0-7.2,4-13.6,8.8-13.6h448
	c4.8,0,8.8,6.4,8.8,13.6V460c0,7.2-4,13.6-8.8,13.6L16.8,473.6L16.8,473.6z"/>
<path id="SVGCleanerId_1" style="fill:#B1BCBC;" d="M464,388c0.8,0.8,1.6,2.4,1.6,5.6v67.2c0,3.2-0.8,4.8-1.6,5.6H17.6
	c-0.8-1.6-1.6-3.2-1.6-6.4v-67.2c0-3.2,0.8-4.8,1.6-5.6H464 M464.8,372h-448C7.2,372,0,381.6,0,393.6v67.2c0,12,7.2,21.6,16.8,21.6
	h448c9.6,0,16.8-9.6,16.8-21.6v-67.2C481.6,381.6,473.6,372,464.8,372L464.8,372z"/>
<path style="fill:#C2CECE;" d="M112.8,473.6c-0.8-1.6-3.2-6.4-3.2-13.6v-67.2c0-7.2,1.6-12,3.2-13.6h256c0.8,1.6,3.2,6.4,3.2,13.6
	V460c0,7.2-1.6,12-3.2,13.6L112.8,473.6L112.8,473.6z"/>
<path style="fill:#B1BCBC;" d="M363.2,388c0,1.6,0.8,3.2,0.8,5.6v67.2c0,2.4,0,4-0.8,5.6H118.4c0-1.6-0.8-3.2-0.8-5.6v-67.2
	c0-2.4,0-4,0.8-5.6L363.2,388 M370.4,372H111.2c-5.6,0-9.6,9.6-9.6,21.6v67.2c0,12,4,21.6,9.6,21.6h258.4c5.6,0,9.6-9.6,9.6-21.6
	v-67.2C380,381.6,375.2,372,370.4,372L370.4,372z"/>
<path id="SVGCleanerId_2" style="fill:#606868;" d="M66.4,416.8c2.4,0,4,1.6,4,4v12c0,2.4-1.6,4-4,4H53.6c-2.4,0-4-1.6-4-4V420
	c0-2.4,1.6-4,4-4h12.8V416.8z"/>
<path id="SVGCleanerId_3" style="fill:#606868;" d="M428,416.8c2.4,0,4,1.6,4,4v12c0,2.4-1.6,4-4,4h-12.8c-2.4,0-4-1.6-4-4V420
	c0-2.4,1.6-4,4-4H428V416.8z"/>
<g>
	<path id="SVGCleanerId_0_1_" style="fill:#FFFFFF;" d="M16.8,473.6C12,473.6,8,467.2,8,460v-67.2c0-7.2,4-13.6,8.8-13.6h448
		c4.8,0,8.8,6.4,8.8,13.6V460c0,7.2-4,13.6-8.8,13.6L16.8,473.6L16.8,473.6z"/>
</g>
<g>
	<path id="SVGCleanerId_1_1_" style="fill:#B1BCBC;" d="M464,388c0.8,0.8,1.6,2.4,1.6,5.6v67.2c0,3.2-0.8,4.8-1.6,5.6H17.6
		c-0.8-1.6-1.6-3.2-1.6-6.4v-67.2c0-3.2,0.8-4.8,1.6-5.6H464 M464.8,372h-448C7.2,372,0,381.6,0,393.6v67.2c0,12,7.2,21.6,16.8,21.6
		h448c9.6,0,16.8-9.6,16.8-21.6v-67.2C481.6,381.6,473.6,372,464.8,372L464.8,372z"/>
</g>
<path style="fill:#C2CECE;" d="M120.8,473.6c-4.8,0-8.8-6.4-8.8-13.6v-67.2c0-7.2,4-13.6,8.8-13.6h344c4.8,0,8.8,6.4,8.8,13.6V460
	c0,7.2-4,13.6-8.8,13.6L120.8,473.6L120.8,473.6z"/>
<path style="fill:#B1BCBC;" d="M464,388c0.8,0.8,1.6,2.4,1.6,5.6v67.2c0,3.2-0.8,4.8-1.6,5.6H121.6c-0.8-0.8-1.6-2.4-1.6-5.6v-67.2
	c0-3.2,0.8-4.8,1.6-5.6L464,388 M464.8,372h-344c-9.6,0-16.8,9.6-16.8,21.6v67.2c0,12,7.2,21.6,16.8,21.6h344
	c9.6,0,16.8-9.6,16.8-21.6v-67.2C481.6,381.6,473.6,372,464.8,372L464.8,372z"/>
<g>
	<path id="SVGCleanerId_2_1_" style="fill:#606868;" d="M66.4,416.8c2.4,0,4,1.6,4,4v12c0,2.4-1.6,4-4,4H53.6c-2.4,0-4-1.6-4-4V420
		c0-2.4,1.6-4,4-4h12.8V416.8z"/>
</g>
<g>
	<path id="SVGCleanerId_3_1_" style="fill:#606868;" d="M428,416.8c2.4,0,4,1.6,4,4v12c0,2.4-1.6,4-4,4h-12.8c-2.4,0-4-1.6-4-4V420
		c0-2.4,1.6-4,4-4H428V416.8z"/>
</g>
<path style="fill:#FFFFFF;" d="M393.6,473.6c-7.2,0-13.6-4-13.6-8.8v-448c0-4.8,6.4-8.8,13.6-8.8h67.2c7.2,0,13.6,4,13.6,8.8v448
	c0,4.8-6.4,8.8-13.6,8.8H393.6z"/>
<path style="fill:#B1BCBC;" d="M460,16c3.2,0,4.8,0.8,5.6,1.6V464c-0.8,0.8-2.4,1.6-5.6,1.6h-67.2c-3.2,0-4.8-0.8-5.6-1.6V17.6
	c0.8-0.8,2.4-1.6,5.6-1.6L460,16 M460,0h-67.2c-12,0-21.6,7.2-21.6,16.8v448c0,9.6,9.6,16.8,21.6,16.8H460c12,0,21.6-7.2,21.6-16.8
	v-448C481.6,8,472,0,460,0L460,0z"/>
<path style="fill:#C2CECE;" d="M393.6,473.6c-7.2,0-13.6-4-13.6-8.8v-352c0-4.8,6.4-8.8,13.6-8.8h67.2c7.2,0,13.6,4,13.6,8.8v352
	c0,4.8-6.4,8.8-13.6,8.8H393.6z"/>
<path style="fill:#B1BCBC;" d="M460,112c3.2,0,4.8,0.8,5.6,1.6V464c-0.8,0.8-2.4,1.6-5.6,1.6h-67.2c-3.2,0-4.8-0.8-5.6-1.6V113.6
	c0.8-0.8,2.4-1.6,5.6-1.6L460,112 M460,96h-67.2c-12,0-21.6,7.2-21.6,16.8v352c0,9.6,9.6,16.8,21.6,16.8H460
	c12,0,21.6-7.2,21.6-16.8v-352C481.6,104,472,96,460,96L460,96z"/>
<path style="fill:#FFFFFF;" d="M393.6,473.6c-7.2,0-13.6-4-13.6-8.8V380h84.8c4.8,0,8.8,6.4,8.8,13.6v67.2c0,4-0.8,7.2-3.2,10.4
	c-2.4,2.4-6.4,3.2-10.4,3.2h-66.4V473.6z"/>
<path style="fill:#B1BCBC;" d="M464,388c0.8,0.8,1.6,2.4,1.6,5.6v67.2c0,2.4-0.8,3.2-0.8,4c-0.8,0.8-2.4,0.8-4,0.8h-67.2
	c-3.2,0-4.8-0.8-5.6-1.6v-76L464,388 M464.8,372H372v92.8c0,9.6,9.6,16.8,21.6,16.8h67.2c6.4,0,12-2.4,16-5.6c3.2-4,5.6-9.6,5.6-16
	v-67.2C481.6,381.6,473.6,372,464.8,372L464.8,372z"/>
<g>
	<path style="fill:#606868;" d="M436.8,66.4c0,2.4-1.6,4-4,4H420c-2.4,0-4-1.6-4-4V53.6c0-1.6,1.6-4,4-4h12.8c2.4,0,4,1.6,4,4V66.4z
		"/>
	<path style="fill:#606868;" d="M436.8,432.8c0,1.6-1.6,4-4,4H420c-2.4,0-4-1.6-4-4V420c0-2.4,1.6-4,4-4h12.8c2.4,0,4,1.6,4,4V432.8
		z"/>
</g>
<g>
</g>
<g>
</g>
<g>
</g>
<g>
</g>
<g>
</g>
<g>
</g>
<g>
</g>
<g>
</g>
<g>
</g>
<g>
</g>
<g>
</g>
<g>
</g>
<g>
</g>
<g>
</g>
<g>
</g>
</svg>
