<?xml version="1.0" encoding="iso-8859-1"?>
<!-- Generator: Adobe Illustrator 19.0.0, SVG Export Plug-In . SVG Version: 6.00 Build 0)  -->
<svg version="1.1" id="Layer_1" xmlns="http://www.w3.org/2000/svg" xmlns:xlink="http://www.w3.org/1999/xlink" x="0px" y="0px"
	 viewBox="0 0 496.8 496.8" style="enable-background:new 0 0 496.8 496.8;" xml:space="preserve">
<path style="fill:#FFFFFF;" d="M480,385.2c0,12.8-10.4,23.2-23.2,23.2H31.2C18.4,408.4,8,398,8,385.2V103.6
	c0-12.8,10.4-23.2,23.2-23.2h426.4c12.8,0,23.2,10.4,23.2,23.2v281.6H480z"/>
<path style="fill:#E9F2F1;" d="M12,104.4c0-12.8,10.4-24,23.2-24h426.4c12.8,0,19.2,12.8,19.2,25.6v284.8c0,12.8-8,22.4-20.8,22.4"
	/>
<path style="fill:#B8BFBE;" d="M460.8,96.4c6.4,0,11.2,3.2,11.2,9.6v284.8c0,6.4-4.8,9.6-11.2,9.6H35.2c-6.4,0-11.2-3.2-11.2-9.6
	V106c0-6.4,4.8-9.6,11.2-9.6H464 M460.8,72.4H35.2C16,72.4,0,86.8,0,106v284.8c0,19.2,16,33.6,35.2,33.6h426.4
	c19.2,0,35.2-14.4,35.2-33.6V106C496,86.8,480,72.4,460.8,72.4L460.8,72.4z"/>
<path style="fill:#1BCEB8;" d="M317.6,142.8c-50.4,0-91.2,40.8-91.2,91.2s40.8,91.2,91.2,91.2l0,0c50.4,0,91.2-40.8,91.2-91.2
	S368,142.8,317.6,142.8z M317.6,164.4c38.4,0,69.6,31.2,69.6,69.6s-31.2,69.6-69.6,69.6S248,272.4,248,234S280,164.4,317.6,164.4z"
	/>
<path style="fill:#0DBFBA;" d="M435.2,334L404,302.8c-4.8-4.8-12-4.8-16.8,0s-4.8,12,0,16.8l31.2,31.2c4.8,4.8,12,4.8,16.8,0
	S440,338.8,435.2,334z"/>
<g>
</g>
<g>
</g>
<g>
</g>
<g>
</g>
<g>
</g>
<g>
</g>
<g>
</g>
<g>
</g>
<g>
</g>
<g>
</g>
<g>
</g>
<g>
</g>
<g>
</g>
<g>
</g>
<g>
</g>
</svg>
