<?xml version="1.0" encoding="iso-8859-1"?>
<!-- Generator: Adobe Illustrator 19.0.0, SVG Export Plug-In . SVG Version: 6.00 Build 0)  -->
<svg version="1.1" id="Layer_1" xmlns="http://www.w3.org/2000/svg" xmlns:xlink="http://www.w3.org/1999/xlink" x="0px" y="0px"
	 viewBox="0 0 496 496" style="enable-background:new 0 0 496 496;" xml:space="preserve">
<path style="fill:#A1B2B1;" d="M496,364c0,17.6-14.4,32-32,32H32c-17.6,0-32-14.4-32-32V132c0-17.6,14.4-32,32-32h432
	c17.6,0,32,14.4,32,32V364z"/>
<g>
	<path style="fill:#97AAAA;" d="M0,130.4C0,112.8,14.4,100,32,100h432c17.6,0,32,11.2,32,28.8V364c0,17.6-14.4,32-32,32"/>
	<path style="fill:#97AAAA;" d="M180.8,186.4c-2.4-5.6-8-8.8-13.6-8.8s-11.2,3.2-13.6,8.8L96.8,313.6c-3.2,7.2,0,16,7.2,19.2
		s16,0,19.2-7.2l43.2-97.6l13.6,30.4c-7.2,0.8-12,8.8-12,16c0,8,6.4,16.8,14.4,16.8h10.4l16.8,36c2.4,5.6,8,8,13.6,8
		c1.6,0,4-0.8,5.6-1.6c7.2-3.2,10.4-12,7.2-20L180.8,186.4z"/>
	<path style="fill:#97AAAA;" d="M368,268.8c-8,0-16,6.4-16,14.4v4c0,9.6-4.8,20-14.4,20H288v-40h41.6c24,0,46.4-18.4,46.4-42.4v-4
		c0-24-22.4-41.6-46.4-41.6h-14.4c-8,0-14.4,4-14.4,12s6.4,12,14.4,12h14.4c8,0,14.4,9.6,14.4,17.6v4c0,8-6.4,18.4-14.4,18.4H288
		V192c0-8-8-14.4-16-14.4s-16,6.4-16,14.4v127.2c0,8,9.6,12,18.4,12h63.2c25.6,0,46.4-18.4,46.4-44v-4
		C384,275.2,376,268.8,368,268.8z"/>
</g>
<g>
	<path style="fill:#FFFFFF;" d="M180.8,174.4c-2.4-5.6-8-8.8-13.6-8.8s-11.2,3.2-13.6,8.8L96.8,301.6c-3.2,7.2,0,16,7.2,19.2
		s16,0,19.2-7.2l43.2-97.6l13.6,30.4c-7.2,0.8-12,7.2-12,14.4c0,8,6.4,14.4,14.4,14.4h10.4l16.8,37.6c2.4,5.6,8,8.8,13.6,8.8
		c1.6,0,4-0.8,5.6-1.6c7.2-3.2,10.4-12,7.2-19.2L180.8,174.4z"/>
	<path style="fill:#FFFFFF;" d="M368,256.8c-8,0-16,6.4-16,14.4v4c0,9.6-4.8,16.8-14.4,16.8H288v-32h41.6c24,0,46.4-22.4,46.4-46.4
		v-4c0-24-22.4-45.6-46.4-45.6h-14.4c-8,0-14.4,8-14.4,16s6.4,16,14.4,16h14.4c8,0,14.4,5.6,14.4,13.6v4c0,8-6.4,14.4-14.4,14.4H288
		v-48c0-8-8-14.4-16-14.4s-16,6.4-16,14.4v128c0,8,9.6,16,18.4,16h63.2c25.6,0,46.4-22.4,46.4-48.8v-4
		C384,263.2,376,256.8,368,256.8z"/>
</g>
<g>
</g>
<g>
</g>
<g>
</g>
<g>
</g>
<g>
</g>
<g>
</g>
<g>
</g>
<g>
</g>
<g>
</g>
<g>
</g>
<g>
</g>
<g>
</g>
<g>
</g>
<g>
</g>
<g>
</g>
</svg>
