<?xml version="1.0" encoding="iso-8859-1"?>
<!-- Generator: Adobe Illustrator 19.0.0, SVG Export Plug-In . SVG Version: 6.00 Build 0)  -->
<svg version="1.1" id="Layer_1" xmlns="http://www.w3.org/2000/svg" xmlns:xlink="http://www.w3.org/1999/xlink" x="0px" y="0px"
	 viewBox="0 0 496.8 496.8" style="enable-background:new 0 0 496.8 496.8;" xml:space="preserve">
<path style="fill:#D5DBDA;" d="M480,385.2c0,12.8-10.4,23.2-23.2,23.2H31.2C18.4,408.4,8,398,8,385.2V103.6
	c0-12.8,10.4-23.2,23.2-23.2h426.4c12.8,0,23.2,10.4,23.2,23.2v281.6H480z"/>
<path style="fill:#C6CCCB;" d="M12,104.4c0-12.8,10.4-24,23.2-24h426.4c12.8,0,19.2,12.8,19.2,25.6v284.8c0,12.8-8,22.4-20.8,22.4"
	/>
<path style="fill:#B8BFBE;" d="M460.8,96.4c6.4,0,11.2,3.2,11.2,9.6v284.8c0,6.4-4.8,9.6-11.2,9.6H35.2c-6.4,0-11.2-3.2-11.2-9.6
	V106c0-6.4,4.8-9.6,11.2-9.6H464 M460.8,72.4H35.2C16,72.4,0,86.8,0,106v284.8c0,19.2,16,33.6,35.2,33.6h426.4
	c19.2,0,35.2-14.4,35.2-33.6V106C496,86.8,480,72.4,460.8,72.4L460.8,72.4z"/>
<path style="fill:#C6CCCB;" d="M460.8,72.4H264v352h196.8c19.2,0,35.2-14.4,35.2-33.6V106C496,86.8,480,72.4,460.8,72.4z"/>
<path style="fill:#B8BFBE;" d="M460.8,80.4H264v204l194.4,128.8c12.8,0,21.6-10.4,21.6-23.2V106C480,93.2,473.6,80.4,460.8,80.4z"/>
<path style="fill:#9FAAA9;" d="M150.4,186.8c-2.4-4.8-6.4-8-12-8c-4.8,0-9.6,3.2-12,8L76,299.6c-3.2,6.4,0,14.4,6.4,17.6
	s14.4,0,17.6-6.4l38.4-86.4l12,27.2c-6.4,0.8-11.2,8-11.2,14.4c0,7.2,5.6,15.2,12.8,15.2h9.6l15.2,32c2.4,4.8,7.2,7.2,12,7.2
	c1.6,0,3.2-0.8,5.6-1.6c6.4-3.2,9.6-11.2,6.4-17.6L150.4,186.8z"/>
<path style="fill:#D5DBDA;" d="M375.2,286l-48-48c-6.4-6.4-6.4-16,0-22.4s16-6.4,22.4,0l25.6,25.6l25.6-25.6c6.4-6.4,16-6.4,22.4,0
	s6.4,16,0,22.4L375.2,286z"/>
<g>
</g>
<g>
</g>
<g>
</g>
<g>
</g>
<g>
</g>
<g>
</g>
<g>
</g>
<g>
</g>
<g>
</g>
<g>
</g>
<g>
</g>
<g>
</g>
<g>
</g>
<g>
</g>
<g>
</g>
</svg>
