<?xml version="1.0" encoding="iso-8859-1"?>
<!-- Generator: Adobe Illustrator 19.0.0, SVG Export Plug-In . SVG Version: 6.00 Build 0)  -->
<svg version="1.1" id="Layer_1" xmlns="http://www.w3.org/2000/svg" xmlns:xlink="http://www.w3.org/1999/xlink" x="0px" y="0px"
	 viewBox="0 0 496.8 496.8" style="enable-background:new 0 0 496.8 496.8;" xml:space="preserve">
<path style="fill:#FFFFFF;" d="M480,385.2c0,12.8-10.4,23.2-23.2,23.2H31.2C18.4,408.4,8,398,8,385.2V103.6
	c0-12.8,10.4-23.2,23.2-23.2h426.4c12.8,0,23.2,10.4,23.2,23.2v281.6H480z"/>
<rect x="40" y="136.4" style="fill:#7BD100;" width="368" height="224"/>
<path style="fill:#B8BFBE;" d="M460.8,96.4c6.4,0,11.2,3.2,11.2,9.6v284.8c0,6.4-4.8,9.6-11.2,9.6H35.2c-6.4,0-11.2-3.2-11.2-9.6
	V106c0-6.4,4.8-9.6,11.2-9.6H464 M460.8,72.4H35.2C16,72.4,0,86.8,0,106v284.8c0,19.2,16,33.6,35.2,33.6h426.4
	c19.2,0,35.2-14.4,35.2-33.6V106C496,86.8,480,72.4,460.8,72.4L460.8,72.4z"/>
<g>
	<path style="fill:#FFFFFF;" d="M155.2,175.6c-2.4-5.6-8-8.8-14.4-8.8s-11.2,3.2-14.4,8.8L68,308.4c-3.2,8,0,16.8,8,20s16.8,0,20-8
		l44.8-101.6l14.4,32c-7.2,1.6-12.8,6.4-12.8,14.4c0,8.8,7.2,14.4,15.2,14.4h11.2l17.6,40c2.4,5.6,8,9.6,14.4,9.6c2.4,0,4,0,6.4-0.8
		c8-3.2,11.2-12.8,8-20L155.2,175.6z"/>
	<path style="fill:#FFFFFF;" d="M352,261.2c-8.8,0-16,7.2-16,15.2v4c0,10.4-7.2,15.2-17.6,15.2H264v-32h45.6
		c25.6,0,50.4-22.4,50.4-48v-4c0-25.6-24.8-44-50.4-44h-15.2c-8.8,0-15.2,7.2-15.2,16s7.2,16,15.2,16h15.2c8.8,0,18.4,4,18.4,12v4.8
		c0,8.8-9.6,16-18.4,16H264V182c0-8.8-3.2-15.2-12-15.2c-8.8,0-12,7.2-12,15.2v132.8c0,8.8,4,13.6,12,13.6h66.4
		c27.2,0,49.6-20,49.6-47.2v-4C368,268.4,360.8,261.2,352,261.2z"/>
</g>
<g>
	<path style="fill:#4C5654;" d="M380,496.4h-30.4c-6.4,0-12-5.6-12-12c0-6.4,5.6-12,12-12H380c11.2,0,20-12,20-22.4V46.8
		c0-10.4-9.6-22.4-20-22.4h-30.4c-6.4,0-12-5.6-12-12s4.8-12,11.2-12h30.4c24,0,44,22.4,44,46.4v402.4C424,474,404,496.4,380,496.4z
		"/>
	<path style="fill:#4C5654;" d="M475.2,496.4h-30.4c-24,0-44-22.4-44-46.4V46.8c0-24,20-46.4,44-46.4h30.4c6.4,0,12,5.6,12,12
		s-5.6,12-12,12h-30.4c-11.2,0-20.8,12-20.8,22.4v402.4c0,11.2,9.6,22.4,20,22.4h30.4c6.4,0,12,5.6,12,12
		C486.4,490,481.6,496.4,475.2,496.4z"/>
</g>
<g>
</g>
<g>
</g>
<g>
</g>
<g>
</g>
<g>
</g>
<g>
</g>
<g>
</g>
<g>
</g>
<g>
</g>
<g>
</g>
<g>
</g>
<g>
</g>
<g>
</g>
<g>
</g>
<g>
</g>
</svg>
