<?xml version="1.0" encoding="iso-8859-1"?>
<!-- Generator: Adobe Illustrator 19.0.0, SVG Export Plug-In . SVG Version: 6.00 Build 0)  -->
<svg version="1.1" id="Layer_1" xmlns="http://www.w3.org/2000/svg" xmlns:xlink="http://www.w3.org/1999/xlink" x="0px" y="0px"
	 viewBox="0 0 496.8 496.8" style="enable-background:new 0 0 496.8 496.8;" xml:space="preserve">
<path style="fill:#FFFFFF;" d="M35.2,416.4C22.4,416.4,8,403.6,8,390.8V106c0-12.8,14.4-25.6,27.2-25.6h426.4
	c12.8,0,19.2,12.8,19.2,25.6v284.8c0,12.8-6.4,25.6-19.2,25.6H35.2z"/>
<path style="fill:#E9F2F1;" d="M12,104.4c0-12.8,10.4-24,23.2-24h426.4c12.8,0,19.2,12.8,19.2,25.6v284.8c0,12.8-8,22.4-20.8,22.4"
	/>
<path style="fill:#CBD1D0;" d="M460.8,96.4c6.4,0,11.2,3.2,11.2,9.6v284.8c0,6.4-4.8,9.6-11.2,9.6H35.2c-6.4,0-11.2-3.2-11.2-9.6
	V106c0-6.4,4.8-9.6,11.2-9.6H464 M460.8,72.4H35.2C16,72.4,0,86.8,0,106v284.8c0,19.2,16,33.6,35.2,33.6h426.4
	c19.2,0,35.2-14.4,35.2-33.6V106C496,86.8,480,72.4,460.8,72.4L460.8,72.4z"/>
<g>
	<polygon style="fill:#A8B2B0;" points="218.4,120.4 156.8,120.4 48,231.6 48,293.2 	"/>
	<path style="fill:#A8B2B0;" d="M271.2,120.4L48,346v15.2c0,10.4,10.4,15.2,20,15.2h9.6l255.2-256H271.2z"/>
	<path style="fill:#A8B2B0;" d="M103.2,120.4H68c-9.6,0-20,4.8-20,14.4V178L103.2,120.4z"/>
	<path style="fill:#A8B2B0;" d="M433.6,122.8c-2.4-1.6-2.4-2.4-6.4-2.4h-41.6l-262.4,256h61.6L433.6,122.8z"/>
	<polygon style="fill:#A8B2B0;" points="448,339.6 448,278.8 352.8,376.4 413.6,376.4 	"/>
	<polygon style="fill:#A8B2B0;" points="448,225.2 448,163.6 237.6,376.4 299.2,376.4 	"/>
</g>
<g>
</g>
<g>
</g>
<g>
</g>
<g>
</g>
<g>
</g>
<g>
</g>
<g>
</g>
<g>
</g>
<g>
</g>
<g>
</g>
<g>
</g>
<g>
</g>
<g>
</g>
<g>
</g>
<g>
</g>
</svg>
