<?xml version="1.0" encoding="iso-8859-1"?>
<!-- Generator: Adobe Illustrator 19.0.0, SVG Export Plug-In . SVG Version: 6.00 Build 0)  -->
<svg version="1.1" id="Layer_1" xmlns="http://www.w3.org/2000/svg" xmlns:xlink="http://www.w3.org/1999/xlink" x="0px" y="0px"
	 viewBox="0 0 496.8 496.8" style="enable-background:new 0 0 496.8 496.8;" xml:space="preserve">
<path style="fill:#FFFFFF;" d="M480,385.2c0,12.8-10.4,23.2-23.2,23.2H31.2C18.4,408.4,8,398,8,385.2V103.6
	c0-12.8,10.4-23.2,23.2-23.2h426.4c12.8,0,23.2,10.4,23.2,23.2v281.6H480z"/>
<path style="fill:#B8BFBE;" d="M460.8,96.4c6.4,0,11.2,3.2,11.2,9.6v284.8c0,6.4-4.8,9.6-11.2,9.6H35.2c-6.4,0-11.2-3.2-11.2-9.6
	V106c0-6.4,4.8-9.6,11.2-9.6H464 M460.8,72.4H35.2C16,72.4,0,86.8,0,106v284.8c0,19.2,16,33.6,35.2,33.6h426.4
	c19.2,0,35.2-14.4,35.2-33.6V106C496,86.8,480,72.4,460.8,72.4L460.8,72.4z"/>
<g>
	<path style="fill:#DAEAE8;" d="M155.2,182c-2.4-5.6-8-8.8-14.4-8.8s-11.2,3.2-14.4,8.8L68,314.8c-3.2,8,0,16.8,8,20s16.8,0,20-8
		l44.8-101.6l14.4,32c-7.2,1.6-12.8,7.2-12.8,15.2c0,8.8,7.2,15.2,15.2,15.2h11.2l17.6,39.2c2.4,5.6,8,8.8,14.4,8.8
		c2.4,0,4-0.8,6.4-1.6c8-3.2,11.2-12.8,8-20L155.2,182z"/>
	<path style="fill:#DAEAE8;" d="M352,267.6c-8.8,0-16,7.2-16,15.2v4c0,10.4-7.2,16.8-17.6,16.8H264v-32h45.6
		c25.6,0,50.4-24,50.4-49.6v-4c0-25.6-24.8-42.4-50.4-42.4h-15.2c-8.8,0-15.2,3.2-15.2,12s7.2,12,15.2,12h15.2
		c8.8,0,18.4,10.4,18.4,18.4v4c0,8.8-9.6,17.6-18.4,17.6H264v-52c0-8.8-3.2-15.2-12-15.2c-8.8,0-12,7.2-12,15.2v132.8
		c0,8.8,4,15.2,12,15.2h66.4c27.2,0,49.6-21.6,49.6-48.8v-4C368,274.8,360.8,267.6,352,267.6z"/>
</g>
<g>
	<path style="fill:#9FAAA9;" d="M155.2,169.2c-2.4-5.6-8-8.8-14.4-8.8s-11.2,3.2-14.4,8.8L68,302c-3.2,8,0,16.8,8,20s16.8,0,20-8
		l44.8-101.6l14.4,32c-7.2,1.6-12.8,5.6-12.8,13.6c0,8.8,7.2,13.6,15.2,13.6h11.2l17.6,40.8c2.4,5.6,8,9.6,14.4,9.6
		c2.4,0,4,0,6.4-0.8c8-3.2,11.2-12,8-20L155.2,169.2z"/>
	<path style="fill:#9FAAA9;" d="M352,254.8c-8.8,0-16,7.2-16,15.2v4c0,10.4-7.2,13.6-17.6,13.6H264v-32h45.6
		c25.6,0,50.4-20.8,50.4-46.4v-4c0-25.6-24.8-45.6-50.4-45.6h-15.2c-8.8,0-15.2,7.2-15.2,16s7.2,16,15.2,16h15.2
		c8.8,0,18.4,5.6,18.4,13.6v4c0,8.8-9.6,14.4-18.4,14.4H264v-48.8c0-8.8-3.2-15.2-12-15.2c-8.8,0-12,7.2-12,15.2v132.8
		c0,8.8,4,12,12,12h66.4c27.2,0,49.6-18.4,49.6-45.6v-4C368,262,360.8,254.8,352,254.8z"/>
</g>
<path style="fill:#4C5654;" d="M420,354c-6.4,0-12-5.6-12-12V154c0-6.4,5.6-12,12-12s12,5.6,12,12v188C432,349.2,426.4,354,420,354z
	"/>
<g>
</g>
<g>
</g>
<g>
</g>
<g>
</g>
<g>
</g>
<g>
</g>
<g>
</g>
<g>
</g>
<g>
</g>
<g>
</g>
<g>
</g>
<g>
</g>
<g>
</g>
<g>
</g>
<g>
</g>
</svg>
