<?xml version="1.0" encoding="iso-8859-1"?>
<!-- Generator: Adobe Illustrator 19.0.0, SVG Export Plug-In . SVG Version: 6.00 Build 0)  -->
<svg version="1.1" id="Layer_1" xmlns="http://www.w3.org/2000/svg" xmlns:xlink="http://www.w3.org/1999/xlink" x="0px" y="0px"
	 viewBox="0 0 444 444" style="enable-background:new 0 0 444 444;" xml:space="preserve">
<path style="fill:#61479E;" d="M250.4,5.6c-8,0-15.2,4.8-18.4,11.2l-143.2,80c-18.4-5.6-38.4-10.4-47.2-10.4h-3.2
	C19.2,86.4,0,104,0,123.2v198.4c0,19.2,19.2,36.8,38.4,36.8h3.2c8.8,0,28.8-4.8,47.2-10.4l142.4,80c3.2,6.4,11.2,10.4,19.2,10.4
	c11.2,0,21.6-9.6,21.6-20.8v-392C272,15.2,261.6,5.6,250.4,5.6z"/>
<path style="fill:#7A61C9;" d="M232,16.8C232,17.6,232,16.8,232,16.8l-144,80c-18.4-5.6-37.6-10.4-47.2-10.4h-2.4
	C19.2,86.4,0,104,0,123.2v107.2h198.4c19.2,0,33.6-17.6,33.6-36.8V16.8z"/>
<g>
	<path style="fill:#82CC00;" d="M357.6,280c-3.2-3.2-5.6-7.2-5.6-11.2V153.6c0-8.8,7.2-16,16-16s16,7.2,16,16v115.2
		c0,8.8-6.4,16-15.2,16C364,284.8,360.8,282.4,357.6,280z"/>
	<path style="fill:#82CC00;" d="M301.6,224c-3.2-3.2-4.8-6.4-4.8-10.4c0-8.8,7.2-15.2,16-15.2H428c8.8,0,16,7.2,16,16s-7.2,16-16,16
		H312.8C308.8,230.4,304.8,227.2,301.6,224z"/>
</g>
<g>
	<path style="fill:#64BA00;" d="M352,268.8c0,4.8,3.2,8.8,5.6,11.2c3.2,3.2,6.4,4.8,10.4,4.8c8.8,0,15.2-7.2,15.2-16v-54.4h-32v54.4
		H352z"/>
	<path style="fill:#64BA00;" d="M444,214.4H297.6c0,2.4,2.4,7.2,4.8,9.6c3.2,3.2,7.2,6.4,11.2,6.4h115.2
		C436,230.4,444,224,444,214.4z"/>
</g>
<g>
</g>
<g>
</g>
<g>
</g>
<g>
</g>
<g>
</g>
<g>
</g>
<g>
</g>
<g>
</g>
<g>
</g>
<g>
</g>
<g>
</g>
<g>
</g>
<g>
</g>
<g>
</g>
<g>
</g>
</svg>
