<?xml version="1.0" encoding="iso-8859-1"?>
<!-- Generator: Adobe Illustrator 19.0.0, SVG Export Plug-In . SVG Version: 6.00 Build 0)  -->
<svg version="1.1" id="Capa_1" xmlns="http://www.w3.org/2000/svg" xmlns:xlink="http://www.w3.org/1999/xlink" x="0px" y="0px"
	 viewBox="0 0 512 512" style="enable-background:new 0 0 512 512;" xml:space="preserve">
<circle style="fill:#F5C86E;" cx="256.003" cy="256.003" r="133.934"/>
<path d="M256,399.929c-42.938,0-83.313-18.963-110.772-52.026c-3.527-4.247-2.944-10.549,1.303-14.075
	c4.247-3.526,10.549-2.944,14.075,1.303c23.649,28.476,58.419,44.808,95.394,44.808c68.34,0,123.939-55.598,123.939-123.939
	S324.34,132.061,256,132.061S132.061,187.66,132.061,256c0,8.526,0.87,17.04,2.583,25.305c1.121,5.405-2.352,10.696-7.757,11.816
	c-5.402,1.123-10.696-2.352-11.816-7.757c-1.991-9.598-3-19.478-3-29.364c0-79.363,64.566-143.929,143.929-143.929
	S399.929,176.637,399.929,256S335.363,399.929,256,399.929z"/>
<path d="M256,85.125c-5.52,0-9.995-4.475-9.995-9.995V9.995C246.005,4.475,250.48,0,256,0s9.995,4.475,9.995,9.995V75.13
	C265.995,80.65,261.52,85.125,256,85.125z"/>
<path d="M256,512c-5.52,0-9.995-4.475-9.995-9.995V436.87c0-5.52,4.475-9.995,9.995-9.995s9.995,4.475,9.995,9.995v65.135
	C265.995,507.525,261.52,512,256,512z"/>
<path d="M502.005,265.995H436.87c-5.52,0-9.995-4.475-9.995-9.995c0-5.52,4.475-9.995,9.995-9.995h65.135
	c5.52,0,9.995,4.475,9.995,9.995S507.525,265.995,502.005,265.995z"/>
<path d="M75.13,265.995H9.995C4.475,265.995,0,261.52,0,256c0-5.52,4.475-9.995,9.995-9.995H75.13c5.52,0,9.995,4.475,9.995,9.995
	S80.65,265.995,75.13,265.995z"/>
<path d="M383.895,138.1c-2.558,0-5.116-0.977-7.068-2.928c-3.903-3.903-3.903-10.232,0-14.136l46.057-46.057
	c3.903-3.902,10.232-3.902,14.136,0c3.903,3.903,3.903,10.232,0,14.136l-46.057,46.057C389.011,137.124,386.452,138.1,383.895,138.1
	z"/>
<path d="M82.048,439.947c-2.558,0-5.116-0.977-7.067-2.928c-3.903-3.903-3.903-10.232,0-14.136l46.057-46.057
	c3.903-3.902,10.232-3.902,14.136,0c3.903,3.903,3.903,10.232,0,14.136l-46.057,46.057C87.165,438.97,84.606,439.947,82.048,439.947
	z"/>
<path d="M429.952,439.947c-2.558,0-5.116-0.977-7.068-2.928l-46.057-46.057c-3.903-3.903-3.903-10.232,0-14.136
	c3.903-3.902,10.232-3.902,14.136,0l46.057,46.057c3.903,3.903,3.903,10.232,0,14.136
	C435.068,438.97,432.509,439.947,429.952,439.947z"/>
<path d="M128.105,138.1c-2.558,0-5.116-0.977-7.067-2.928L74.981,89.116c-3.903-3.903-3.903-10.232,0-14.136
	c3.903-3.902,10.232-3.902,14.136,0l46.057,46.057c3.903,3.903,3.903,10.232,0,14.136C133.222,137.124,130.663,138.1,128.105,138.1z
	"/>
<path d="M136.04,325.598c-2.629,0-5.207-1.069-7.067-2.929c-1.859-1.859-2.929-4.438-2.929-7.066c0-2.639,1.069-5.207,2.929-7.066
	c1.859-1.859,4.438-2.929,7.067-2.929c2.629,0,5.207,1.069,7.066,2.929c1.859,1.859,2.929,4.438,2.929,7.066
	s-1.069,5.207-2.929,7.066C141.247,324.529,138.668,325.598,136.04,325.598z"/>
<path d="M343.531,259.886c-5.207,0-9.599-4.036-9.961-9.309c-1.192-17.34-8.308-33.99-20.035-46.882
	c-3.715-4.083-3.415-10.405,0.667-14.119c4.084-3.715,10.405-3.416,14.119,0.667c14.746,16.208,23.692,37.149,25.193,58.963
	c0.379,5.507-3.779,10.279-9.286,10.658C343.993,259.878,343.76,259.886,343.531,259.886z"/>
<path d="M343.746,297.852c-2.629,0-5.207-1.069-7.066-2.929s-2.929-4.438-2.929-7.066s1.069-5.207,2.929-7.066
	c1.859-1.859,4.438-2.929,7.066-2.929c2.639,0,5.207,1.069,7.066,2.929c1.869,1.859,2.929,4.438,2.929,7.066
	s-1.059,5.207-2.929,7.066C348.954,296.783,346.385,297.852,343.746,297.852z"/>
<g>
</g>
<g>
</g>
<g>
</g>
<g>
</g>
<g>
</g>
<g>
</g>
<g>
</g>
<g>
</g>
<g>
</g>
<g>
</g>
<g>
</g>
<g>
</g>
<g>
</g>
<g>
</g>
<g>
</g>
</svg>
