<?xml version="1.0" encoding="iso-8859-1"?>
<!-- Generator: Adobe Illustrator 19.0.0, SVG Export Plug-In . SVG Version: 6.00 Build 0)  -->
<svg version="1.1" id="Capa_1" xmlns="http://www.w3.org/2000/svg" xmlns:xlink="http://www.w3.org/1999/xlink" x="0px" y="0px"
	 viewBox="0 0 511.998 511.998" style="enable-background:new 0 0 511.998 511.998;" xml:space="preserve">
<polygon style="fill:#9BBEFF;" points="501.875,141.027 9.997,141.027 59.185,37.053 453.338,37.053 "/>
<g>
	<rect x="108.503" y="37.05" style="fill:#FF8C8C;" width="98.376" height="103.974"/>
	<rect x="305.254" y="37.05" style="fill:#FF8C8C;" width="98.376" height="103.974"/>
</g>
<polyline style="fill:#C8F5FF;" points="36.99,141.027 36.99,474.944 474.882,474.944 474.882,141.027 "/>
<rect x="36.99" y="141.024" style="fill:#AAE6FF;" width="162.96" height="333.917"/>
<path style="fill:#7D9BFF;" d="M502.002,141.027c0,27.165-22.023,49.188-49.188,49.188s-49.188-22.023-49.188-49.188
	c0,27.165-22.023,49.188-49.188,49.188s-49.188-22.023-49.188-49.188c0,27.165-22.023,49.188-49.188,49.188
	s-49.188-22.023-49.188-49.188c0,27.165-22.023,49.188-49.188,49.188S108.5,168.193,108.5,141.027
	c0,27.165-22.023,49.188-49.188,49.188s-49.188-22.023-49.188-49.188"/>
<g>
	<path style="fill:#FF5A5A;" d="M206.875,141.027c0,27.165-22.023,49.188-49.188,49.188S108.5,168.193,108.5,141.027"/>
	<path style="fill:#FF5A5A;" d="M403.626,141.027c0,27.165-22.023,49.188-49.188,49.188s-49.188-22.023-49.188-49.188"/>
</g>
<rect x="199.95" y="388.963" style="fill:#F5C86E;" width="274.932" height="85.979"/>
<path d="M501.103,464.947h-16.224V326.868c0-5.522-4.477-9.997-9.998-9.997s-9.998,4.476-9.998,9.997v52.101H209.947V223.033
	c0-5.522-4.477-9.998-9.998-9.998c-5.521,0-9.998,4.476-9.998,9.998v241.914H46.988V198.913c3.978,0.846,8.098,1.3,12.324,1.3
	c20.476,0,38.557-10.452,49.188-26.301c10.63,15.85,28.711,26.301,49.187,26.301s38.557-10.452,49.188-26.301
	c10.63,15.85,28.712,26.301,49.188,26.301c20.476,0,38.557-10.452,49.188-26.301c10.63,15.85,28.712,26.301,49.188,26.301
	c20.476,0,38.556-10.452,49.187-26.301c10.63,15.85,28.712,26.301,49.188,26.301c4.136,0,8.172-0.43,12.07-1.241v63.358
	c0,5.522,4.477,9.998,9.998,9.998s9.998-4.476,9.998-9.998v-71.595c16.302-10.552,27.12-28.885,27.12-49.708
	c0-2.049-0.619-3.953-1.677-5.54L462.397,32.824c-1.644-3.519-5.176-5.769-9.06-5.769H59.185c-3.865,0-7.384,2.228-9.037,5.723
	L0.96,136.752c-0.917,1.939-1.173,4.086-0.787,6.13c0.619,19.945,11.143,37.429,26.819,47.689v274.375H10.768
	c-5.521,0-9.998,4.476-9.998,9.998c0,5.522,4.477,9.997,9.998,9.997H36.99h437.891h26.223c5.521,0,9.997-4.476,9.997-9.997
	C511.102,469.423,506.625,464.947,501.103,464.947z M59.312,180.219c-18.155,0-33.462-12.411-37.894-29.193h75.787
	C92.774,167.808,77.466,180.219,59.312,180.219z M393.848,131.03h-78.455V47.051h78.455V131.03z M295.398,131.03h-78.453V47.051
	h78.454v83.979H295.398z M196.951,131.03h-78.454V47.051h78.454V131.03z M157.686,180.219c-18.154,0-33.461-12.411-37.893-29.193
	h75.786C191.148,167.808,175.842,180.219,157.686,180.219z M256.063,180.219c-18.156,0-33.462-12.411-37.894-29.193h75.787
	C289.525,167.808,274.218,180.219,256.063,180.219z M354.439,180.219c-18.156,0-33.462-12.411-37.894-29.193h75.786
	C387.899,167.808,372.593,180.219,354.439,180.219z M414.921,151.025h75.787c-4.432,16.782-19.738,29.193-37.894,29.193
	C434.659,180.218,419.352,167.808,414.921,151.025z M486.175,131.03h-72.332V47.051h33.129L486.175,131.03z M65.515,47.051h32.987
	v83.979H25.786L65.515,47.051z M209.947,464.947v-65.984h254.937v65.984H209.947z"/>
<path d="M151.002,319.803c-1.86,1.86-2.93,4.429-2.93,7.068c0,2.629,1.07,5.209,2.93,7.068c1.859,1.86,4.438,2.929,7.067,2.929
	c2.63,0,5.209-1.07,7.068-2.929c1.86-1.86,2.929-4.439,2.929-7.068c0-2.639-1.069-5.209-2.929-7.068
	c-1.861-1.86-4.429-2.929-7.068-2.929C155.44,316.874,152.861,317.943,151.002,319.803z"/>
<path d="M346.256,241.724c-3.905-3.904-10.233-3.904-14.139,0l-67.722,67.722c-3.904,3.904-3.904,10.234,0,14.139
	c1.953,1.953,4.511,2.928,7.069,2.928c2.558,0,5.117-0.976,7.069-2.928l67.722-67.722
	C350.161,251.959,350.161,245.628,346.256,241.724z"/>
<path d="M248.138,329.85c-2.63,0-5.209,1.06-7.068,2.919c-1.86,1.87-2.929,4.439-2.929,7.068c0,2.639,1.069,5.209,2.929,7.068
	c1.86,1.87,4.438,2.929,7.068,2.929c2.629,0,5.209-1.06,7.067-2.929c1.86-1.86,2.93-4.429,2.93-7.068c0-2.629-1.07-5.209-2.93-7.068
	C253.347,330.91,250.767,329.85,248.138,329.85z"/>
<path d="M354.147,317.974c2.559,0,5.117-0.976,7.069-2.928l68.248-68.248c3.904-3.904,3.904-10.234,0-14.139
	c-3.905-3.904-10.233-3.904-14.139,0l-68.248,68.248c-3.904,3.904-3.904,10.234,0,14.139
	C349.03,316.998,351.587,317.974,354.147,317.974z"/>
<path d="M474.882,284.322c-2.629,0-5.209,1.07-7.068,2.929s-2.929,4.429-2.929,7.068c0,2.629,1.069,5.209,2.929,7.068
	c1.861,1.86,4.439,2.929,7.068,2.929c2.629,0,5.209-1.07,7.067-2.929c1.86-1.859,2.93-4.439,2.93-7.068
	c0-2.629-1.07-5.209-2.93-7.068C480.09,285.392,477.511,284.322,474.882,284.322z"/>
<g>
</g>
<g>
</g>
<g>
</g>
<g>
</g>
<g>
</g>
<g>
</g>
<g>
</g>
<g>
</g>
<g>
</g>
<g>
</g>
<g>
</g>
<g>
</g>
<g>
</g>
<g>
</g>
<g>
</g>
</svg>
