<?xml version="1.0" encoding="iso-8859-1"?>
<!-- Generator: Adobe Illustrator 19.0.0, SVG Export Plug-In . SVG Version: 6.00 Build 0)  -->
<svg version="1.1" id="Capa_1" xmlns="http://www.w3.org/2000/svg" xmlns:xlink="http://www.w3.org/1999/xlink" x="0px" y="0px"
	 viewBox="0 0 512 512" style="enable-background:new 0 0 512 512;" xml:space="preserve">
<path style="fill:#5A55E1;" d="M326,414.644V454c0,26.51-21.49,48-48,48H58c-26.51,0-48-21.49-48-48V58c0-26.51,21.49-48,48-48h220
	c26.51,0,48,21.49,48,48v136.003V414.644z"/>
<rect x="12.05" y="75.26" style="fill:#C8F5FF;" width="313.95" height="362.74"/>
<path d="M57,448c-2.63,0-5.21-1.07-7.07-2.93C48.07,443.21,47,440.63,47,438s1.07-5.21,2.93-7.07c1.86-1.86,4.44-2.93,7.07-2.93
	s5.21,1.07,7.07,2.93S67,435.37,67,438s-1.07,5.21-2.93,7.07S59.63,448,57,448z"/>
<path d="M326,224.333c5.523,0,10-4.477,10-10V58c0-31.981-26.019-58-58-58H58C26.019,0,0,26.019,0,58v396c0,31.981,26.019,58,58,58
	h220c31.981,0,58-26.019,58-58v-39.355c0-5.523-4.477-10-10-10s-10,4.477-10,10V428H103.667c-5.523,0-10,4.477-10,10s4.477,10,10,10
	H316v6c0,20.953-17.047,38-38,38H58c-20.953,0-38-17.047-38-38V85.258h296v129.076C316,219.856,320.477,224.333,326,224.333z
	 M20,65.258V58c0-20.953,17.047-38,38-38h220c20.953,0,38,17.047,38,38v7.258H20z"/>
<path d="M168.072,480h-0.095c-5.523,0-10-4.477-10-10s4.477-10,10-10s10.048,4.477,10.048,10S173.595,480,168.072,480z"/>
<path d="M213.024,52h-88c-5.523,0-10-4.477-10-10s4.477-10,10-10h88c5.523,0,10,4.477,10,10S218.547,52,213.024,52z"/>
<path d="M61.024,234.169c-2.559,0-5.119-0.976-7.071-2.929c-3.905-3.905-3.905-10.237,0-14.143
	c30.737-30.736,71.603-47.664,115.071-47.664s84.334,16.928,115.071,47.664c3.905,3.905,3.905,10.237,0,14.143
	c-3.905,3.905-10.237,3.905-14.143,0c-26.959-26.959-62.803-41.807-100.929-41.807S95.053,204.28,68.094,231.24
	C66.143,233.193,63.583,234.169,61.024,234.169z"/>
<path d="M242.121,269.073c-2.559,0-5.118-0.976-7.071-2.929c-36.407-36.406-95.644-36.406-132.051,0
	c-3.904,3.905-10.236,3.906-14.142,0c-3.905-3.905-3.905-10.237,0-14.142c44.204-44.203,116.13-44.203,160.334,0
	c3.905,3.905,3.905,10.237,0,14.142C247.239,268.097,244.68,269.073,242.121,269.073z"/>
<path d="M208.373,302.821c-2.56,0-5.118-0.976-7.071-2.929c-8.622-8.622-20.084-13.37-32.277-13.37
	c-12.193,0-23.656,4.748-32.277,13.37c-3.905,3.905-10.237,3.905-14.143,0c-3.905-3.905-3.905-10.237,0-14.143
	c12.399-12.399,28.885-19.228,46.42-19.228s34.02,6.829,46.419,19.228c3.905,3.905,3.905,10.237,0,14.142
	C213.491,301.845,210.932,302.821,208.373,302.821z"/>
<path d="M169.02,342.57c-2.63,0-5.21-1.07-7.07-2.93s-2.93-4.44-2.93-7.07c0-2.64,1.07-5.21,2.93-7.07
	c1.86-1.87,4.44-2.93,7.07-2.93c2.64,0,5.21,1.06,7.08,2.93c1.86,1.86,2.93,4.43,2.93,7.07c0,2.63-1.07,5.21-2.93,7.07
	C174.23,341.5,171.66,342.57,169.02,342.57z"/>
<circle style="fill:#A5DC69;" cx="410" cy="322.64" r="92"/>
<path d="M410,424.645c-56.243,0-102-45.757-102-102s45.757-102,102-102s102,45.757,102,102S466.243,424.645,410,424.645z
	 M410,240.645c-45.215,0-82,36.785-82,82s36.785,82,82,82s82-36.785,82-82S455.215,240.645,410,240.645z"/>
<path d="M401.397,349.325c-2.559,0-5.119-0.976-7.071-2.929l-18.872-18.872c-3.905-3.905-3.905-10.237,0-14.143
	c3.905-3.905,10.237-3.905,14.143,0l11.8,11.801l32.921-32.922c3.905-3.905,10.237-3.905,14.143,0
	c3.905,3.905,3.905,10.237,0,14.143l-39.993,39.993C406.516,348.349,403.956,349.325,401.397,349.325z"/>
<g>
</g>
<g>
</g>
<g>
</g>
<g>
</g>
<g>
</g>
<g>
</g>
<g>
</g>
<g>
</g>
<g>
</g>
<g>
</g>
<g>
</g>
<g>
</g>
<g>
</g>
<g>
</g>
<g>
</g>
</svg>
