<?xml version="1.0" encoding="iso-8859-1"?>
<!-- Generator: Adobe Illustrator 19.0.0, SVG Export Plug-In . SVG Version: 6.00 Build 0)  -->
<svg version="1.1" id="Capa_1" xmlns="http://www.w3.org/2000/svg" xmlns:xlink="http://www.w3.org/1999/xlink" x="0px" y="0px"
	 viewBox="0 0 512 512" style="enable-background:new 0 0 512 512;" xml:space="preserve">
<path style="fill:#FFFFFF;" d="M467,10H45c-19.33,0-35,15.67-35,35v457h492V45C502,25.67,486.33,10,467,10z"/>
<path style="fill:#C8F5FF;" d="M467,10H45c-19.33,0-35,15.67-35,35v61h492V45C502,25.67,486.33,10,467,10z"/>
<g>
	<circle style="fill:#6E87F5;" cx="84" cy="58" r="20"/>
	<circle style="fill:#6E87F5;" cx="160.79" cy="58" r="20"/>
</g>
<circle style="fill:#FF5A5A;" cx="237.58" cy="58" r="20"/>
<rect x="64" y="152.58" style="fill:#A5DC69;" width="384" height="136"/>
<g>
	<rect x="64" y="344" style="fill:#78D2FA;" width="104" height="104"/>
	<rect x="204" y="344" style="fill:#78D2FA;" width="104" height="104"/>
	<rect x="344" y="344" style="fill:#78D2FA;" width="104" height="104"/>
</g>
<path d="M467,0H45C20.187,0,0,20.187,0,45v457c0,5.523,4.477,10,10,10h492c5.523,0,10-4.477,10-10V45C512,20.187,491.813,0,467,0z
	 M492,492H20V116h383c5.523,0,10-4.477,10-10s-4.477-10-10-10H20V45c0-13.785,11.215-25,25-25h422c13.785,0,25,11.215,25,25V492z"/>
<path d="M84,28c-16.542,0-30,13.458-30,30s13.458,30,30,30s30-13.458,30-30S100.542,28,84,28z M84,68c-5.514,0-10-4.486-10-10
	s4.486-10,10-10s10,4.486,10,10S89.514,68,84,68z"/>
<path d="M160.791,28c-16.542,0-30,13.458-30,30s13.458,30,30,30s30-13.458,30-30S177.333,28,160.791,28z M160.791,68
	c-5.514,0-10-4.486-10-10s4.486-10,10-10s10,4.486,10,10S166.305,68,160.791,68z"/>
<path d="M237.582,28c-16.542,0-30,13.458-30,30s13.458,30,30,30s30-13.458,30-30S254.124,28,237.582,28z M237.582,68
	c-5.514,0-10-4.486-10-10s4.486-10,10-10s10,4.486,10,10S243.096,68,237.582,68z"/>
<path d="M448,142.583H303c-5.523,0-10,4.477-10,10s4.477,10,10,10h135v116H74v-116h136c5.523,0,10-4.477,10-10s-4.477-10-10-10H64
	c-5.523,0-10,4.477-10,10v136c0,5.523,4.477,10,10,10h384c5.523,0,10-4.477,10-10v-136C458,147.061,453.523,142.583,448,142.583z"/>
<path d="M168,334H64c-5.523,0-10,4.477-10,10v104c0,5.523,4.477,10,10,10h104c5.523,0,10-4.477,10-10V344
	C178,338.477,173.523,334,168,334z M158,438H74v-84h84V438z"/>
<path d="M308,334H204c-5.523,0-10,4.477-10,10v104c0,5.523,4.477,10,10,10h104c5.523,0,10-4.477,10-10V344
	C318,338.477,313.523,334,308,334z M298,438h-84v-84h84V438z"/>
<path d="M448,334H344c-5.523,0-10,4.477-10,10v104c0,5.523,4.477,10,10,10h104c5.523,0,10-4.477,10-10V344
	C458,338.477,453.523,334,448,334z M438,438h-84v-84h84V438z"/>
<path d="M448,96c-2.63,0-5.21,1.07-7.07,2.93c-1.86,1.86-2.93,4.44-2.93,7.07s1.07,5.21,2.93,7.07S445.37,116,448,116
	s5.21-1.07,7.07-2.93S458,108.63,458,106s-1.07-5.21-2.93-7.07C453.21,97.07,450.63,96,448,96z"/>
<path d="M257.58,162.58c2.63,0,5.21-1.06,7.07-2.93c1.86-1.86,2.93-4.43,2.93-7.07c0-2.63-1.07-5.21-2.93-7.07s-4.43-2.93-7.07-2.93
	c-2.63,0-5.21,1.07-7.07,2.93s-2.93,4.44-2.93,7.07c0,2.64,1.07,5.21,2.93,7.07C252.37,161.52,254.95,162.58,257.58,162.58z"/>
<g>
</g>
<g>
</g>
<g>
</g>
<g>
</g>
<g>
</g>
<g>
</g>
<g>
</g>
<g>
</g>
<g>
</g>
<g>
</g>
<g>
</g>
<g>
</g>
<g>
</g>
<g>
</g>
<g>
</g>
</svg>
