<?xml version="1.0" encoding="iso-8859-1"?>
<!-- Generator: Adobe Illustrator 19.0.0, SVG Export Plug-In . SVG Version: 6.00 Build 0)  -->
<svg version="1.1" id="Capa_1" xmlns="http://www.w3.org/2000/svg" xmlns:xlink="http://www.w3.org/1999/xlink" x="0px" y="0px"
	 viewBox="0 0 512 512" style="enable-background:new 0 0 512 512;" xml:space="preserve">
<g>
	<path style="fill:#FF9155;" d="M502,197.646v-77.313c0-17.673-14.327-32-32-32h-32.914v109.313H502"/>
	<path style="fill:#FF9155;" d="M10,187.562V64.007c0-17.673,14.327-32,32-32h106.332l48.669,56.327H275v99.228L10,187.562"/>
</g>
<path style="fill:#F5C86E;" d="M42,143.995h428c17.673,0,32,14.327,32,32v272c0,17.673-14.327,32-32,32H42
	c-17.673,0-32-14.327-32-32v-272C10,158.321,24.327,143.995,42,143.995z"/>
<g>
	<path style="fill:#FFFFFF;" d="M288.193,237.995H380c13.255,0,24,10.745,24,24v99.999c0,13.255-10.745,24-24,24H132
		c-13.255,0-24-10.745-24-24v-99.999c0-13.255,10.745-24,24-24h88.321"/>
	<polygon style="fill:#FFFFFF;" points="454.257,143.995 403.138,32.162 158.417,144.025 	"/>
</g>
<path d="M346.5,277.995h-181c-5.523,0-10,4.477-10,10s4.477,10,10,10h181c5.523,0,10-4.477,10-10S352.023,277.995,346.5,277.995z"/>
<path d="M165.5,325.994c-5.523,0-10,4.477-10,10s4.477,10,10,10h140c5.523,0,10-4.477,10-10s-4.477-10-10-10H165.5z"/>
<path d="M346.014,325.994h-0.11c-5.523,0-10,4.477-10,10s4.477,10,10,10h0.11c5.523,0,10-4.477,10-10
	S351.537,325.994,346.014,325.994z"/>
<path d="M254.694,247.995h0.131c5.523,0,10-4.477,10-10s-4.477-10-10-10h-0.131c-5.523,0-10,4.477-10,10
	S249.171,247.995,254.694,247.995z"/>
<path d="M380,227.995h-91.807c-5.523,0-10,4.477-10,10s4.477,10,10,10H380c7.72,0,14,6.28,14,14v100c0,7.72-6.28,14-14,14H132
	c-7.72,0-14-6.28-14-14v-100c0-7.72,6.28-14,14-14h88.321c5.523,0,10-4.477,10-10s-4.477-10-10-10H132c-18.748,0-34,15.252-34,34
	v100c0,18.748,15.252,34,34,34h248c18.748,0,34-15.252,34-34v-100C414,243.247,398.748,227.995,380,227.995z"/>
<path d="M470,78.334h-32.914c-0.606,0-1.196,0.063-1.772,0.166l-23.082-50.496c-1.103-2.412-3.118-4.288-5.604-5.213
	c-2.484-0.926-5.235-0.827-7.648,0.276L277.409,78.638c-0.773-0.191-1.577-0.304-2.409-0.304h-73.424l-45.677-52.865
	c-1.9-2.198-4.662-3.462-7.567-3.462H42c-23.159,0-42,18.841-42,42v383.987c0,23.159,18.841,42,42,42h428c23.159,0,42-18.841,42-42
	v-327.66C512,97.175,493.159,78.334,470,78.334z M470,98.334c12.131,0,22,9.869,22,22v19.903c-6.403-3.954-13.938-6.242-22-6.242
	h-9.319L444.38,98.334C444.38,98.334,470,98.334,470,98.334z M438.691,133.995H204.414L398.2,45.414L438.691,133.995z M42,42.007
	h101.756l45.677,52.865c1.9,2.198,4.662,3.462,7.567,3.462h37.32l-78.014,35.661H42c-8.062,0-15.597,2.288-22,6.242v-76.23
	C20,51.876,29.869,42.007,42,42.007z M492,447.995c0,12.131-9.869,22-22,22H42c-12.131,0-22-9.869-22-22V187.562v-11.567
	c0-12.131,9.869-22,22-22h115.956c0.156,0.007,0.31,0.033,0.467,0.033c0.209,0,0.419-0.02,0.629-0.033H470c12.131,0,22,9.869,22,22
	v21.653V447.995z"/>
<g>
</g>
<g>
</g>
<g>
</g>
<g>
</g>
<g>
</g>
<g>
</g>
<g>
</g>
<g>
</g>
<g>
</g>
<g>
</g>
<g>
</g>
<g>
</g>
<g>
</g>
<g>
</g>
<g>
</g>
</svg>
