<?xml version="1.0" encoding="iso-8859-1"?>
<!-- Generator: Adobe Illustrator 19.0.0, SVG Export Plug-In . SVG Version: 6.00 Build 0)  -->
<svg version="1.1" id="Capa_1" xmlns="http://www.w3.org/2000/svg" xmlns:xlink="http://www.w3.org/1999/xlink" x="0px" y="0px"
	 viewBox="0 0 512 512" style="enable-background:new 0 0 512 512;" xml:space="preserve">
<rect x="10" y="174" style="fill:#C8F5FF;" width="328" height="328"/>
<rect x="54" y="218" style="fill:#FFFFFF;" width="240" height="240"/>
<polygon style="fill:#78D2FA;" points="174.001,10 174.001,92 420.001,92 420.001,338 502.001,338 502.001,10 "/>
<polygon style="fill:#AAE6FF;" points="92.001,92 92.001,174 338,174 338,420 420.001,420 420.001,92 "/>
<path d="M294,208h-84.737c-5.523,0-10,4.477-10,10s4.477,10,10,10H284v220H64V228h76.263c5.523,0,10-4.477,10-10s-4.477-10-10-10H54
	c-5.523,0-10,4.477-10,10v240c0,5.523,4.477,10,10,10h240c5.523,0,10-4.477,10-10V218C304,212.478,299.523,208,294,208z"/>
<path d="M502.001,0h-328c-5.523,0-10,4.477-10,10v72H92c-5.523,0-10,4.477-10,10v72H10c-5.523,0-10,4.477-10,10v328
	c0,5.523,4.477,10,10,10h328c5.523,0,10-4.477,10-10v-72h72c5.523,0,10-4.477,10-10v-72h72c5.523,0,10-4.477,10-10V10
	C512.001,4.478,507.524,0,502.001,0z M328,492H20V184h72h236v236V492z M492.001,328h-62V92c0-5.523-4.477-10-10-10h-75.238
	c-5.523,0-10,4.477-10,10s4.477,10,10,10H410v236v72h-62V174c0-5.523-4.477-10-10-10H102v-62h165.763c5.523,0,10-4.477,10-10
	s-4.477-10-10-10h-83.762V20h308V328z"/>
<path d="M174.001,228.709c5.523,0,10-4.477,10-10v-1.417c0-5.523-4.477-10-10-10s-10,4.477-10,10v1.417
	C164.001,224.232,168.478,228.709,174.001,228.709z"/>
<path d="M306.013,102c2.63,0,5.21-1.07,7.07-2.93s2.93-4.44,2.93-7.07s-1.07-5.21-2.93-7.07s-4.44-2.93-7.07-2.93
	s-5.21,1.07-7.07,2.93c-1.86,1.86-2.93,4.44-2.93,7.07s1.07,5.21,2.93,7.07C300.803,100.93,303.383,102,306.013,102z"/>
<g>
</g>
<g>
</g>
<g>
</g>
<g>
</g>
<g>
</g>
<g>
</g>
<g>
</g>
<g>
</g>
<g>
</g>
<g>
</g>
<g>
</g>
<g>
</g>
<g>
</g>
<g>
</g>
<g>
</g>
</svg>
